<svg width="48" height="48" viewBox="0 0 48 48" fill="none" xmlns="http://www.w3.org/2000/svg">
<g id="Group 427319624">
<circle id="Container" cx="24" cy="24" r="24" fill="#2FB574"/>
<g id="Shield Done">
<path id="Shield Done_2" fill-rule="evenodd" clip-rule="evenodd" d="M23.7281 40.6832C23.8388 40.7413 23.9627 40.7709 24.0865 40.7699C24.2103 40.7689 24.3331 40.7383 24.4449 40.6792L28.0128 38.7631C29.0245 38.2212 29.8168 37.6153 30.435 36.9099C31.779 35.373 32.5129 33.4115 32.4998 31.3889L32.4575 24.7173C32.4535 23.9488 31.9511 23.2631 31.2082 23.0139L24.5707 20.7765C24.1711 20.6406 23.7331 20.6435 23.3405 20.7834L16.7282 23.1006C15.9893 23.3597 15.496 24.0503 15.5 24.8197L15.5423 31.4865C15.5554 33.512 16.3145 35.4647 17.6806 36.9858C18.3048 37.6813 19.1041 38.2783 20.127 38.8113L23.7281 40.6832ZM22.7831 32.8417C22.9321 32.9856 23.1254 33.0565 23.3187 33.0545C23.512 33.0535 23.7043 32.9806 23.8513 32.8348L27.7504 28.9729C28.0434 28.6823 28.0403 28.2153 27.7444 27.9286C27.4474 27.6419 26.9692 27.6439 26.6762 27.9345L23.3077 31.2704L21.9284 29.9384C21.6314 29.6517 21.1542 29.6547 20.8603 29.9453C20.5673 30.2359 20.5703 30.7029 20.8673 30.9896L22.7831 32.8417Z" fill="white"/>
</g>
</g>
</svg>
