<svg width="48" height="48" viewBox="0 0 48 48" fill="none" xmlns="http://www.w3.org/2000/svg">
<circle cx="24" cy="24" r="24" fill="#2FB574"/>
<path fill-rule="evenodd" clip-rule="evenodd" d="M19.67 20.6765H28.34C31.73 20.6765 34 23.0676 34 26.6242V34.8333C34 38.3788 31.73 40.7699 28.34 40.7699H19.67C16.28 40.7699 14 38.3788 14 34.8333V26.6242C14 23.0676 16.28 20.6765 19.67 20.6765ZM23.4304 33.7273L28.1804 28.9551C28.5204 28.6135 28.5204 28.061 28.1804 27.7093C27.8404 27.3677 27.2804 27.3677 26.9404 27.7093L22.8104 31.8586L21.0604 30.1005C20.7204 29.7589 20.1604 29.7589 19.8204 30.1005C19.4804 30.442 19.4804 30.9946 19.8204 31.3463L22.2004 33.7273C22.3704 33.8981 22.5904 33.9785 22.8104 33.9785C23.0404 33.9785 23.2604 33.8981 23.4304 33.7273Z" fill="white"/>
</svg>
