<svg width="48" height="48" viewBox="0 0 48 48" fill="none" xmlns="http://www.w3.org/2000/svg">
<g id="Group 427319626">
<circle id="Container" cx="24" cy="24" r="24" fill="#2FB574"/>
<g id="Game">
<path id="Game_2" fill-rule="evenodd" clip-rule="evenodd" d="M27.164 24.7781C27.4791 24.7824 27.7949 24.7868 28.1119 24.79C31.5172 24.79 34 27.2291 34 30.5974V34.9238C34 38.2921 31.5172 40.7312 28.1119 40.7312C26.7478 40.7602 25.3837 40.7699 24.0098 40.7699C22.6359 40.7699 21.2522 40.7602 19.8881 40.7312C16.4828 40.7312 14 38.2921 14 34.9238V30.5974C14 27.2291 16.4828 24.79 19.8979 24.79C21.1835 24.7707 22.4985 24.7513 23.8332 24.7513V24.5868C23.8332 23.9189 23.2738 23.3769 22.6065 23.3769H21.6349C20.526 23.3769 19.6232 22.4865 19.6232 21.4024C19.6232 21.0056 19.9568 20.6765 20.3592 20.6765C20.7713 20.6765 21.0952 21.0056 21.0952 21.4024C21.0952 21.6928 21.3405 21.9251 21.6349 21.9251H22.6065C24.0883 21.9348 25.2954 23.1253 25.3052 24.5771V24.761C25.9238 24.761 26.5425 24.7695 27.164 24.7781ZM22.8519 33.4818H21.8215V34.5077C21.8215 34.9046 21.4879 35.2336 21.0855 35.2336C20.6733 35.2336 20.3495 34.9046 20.3495 34.5077V33.4818H19.3093C18.9069 33.4818 18.5732 33.1624 18.5732 32.7558C18.5732 32.359 18.9069 32.0299 19.3093 32.0299H20.3495V31.0136C20.3495 30.6168 20.6733 30.2877 21.0855 30.2877C21.4879 30.2877 21.8215 30.6168 21.8215 31.0136V32.0299H22.8519C23.2543 32.0299 23.588 32.359 23.588 32.7558C23.588 33.1624 23.2543 33.4818 22.8519 33.4818ZM27.0231 31.8458H27.1213C27.5236 31.8458 27.8573 31.5265 27.8573 31.12C27.8573 30.7232 27.5236 30.3942 27.1213 30.3942H27.0231C26.611 30.3942 26.2871 30.7232 26.2871 31.12C26.2871 31.5265 26.611 31.8458 27.0231 31.8458ZM28.7009 35.1753H28.799C29.2014 35.1753 29.535 34.8559 29.535 34.4494C29.535 34.0526 29.2014 33.7235 28.799 33.7235H28.7009C28.2877 33.7235 27.9648 34.0526 27.9648 34.4494C27.9648 34.8559 28.2877 35.1753 28.7009 35.1753Z" fill="white"/>
</g>
</g>
</svg>
