<svg width="386" height="93" viewBox="0 0 386 93" fill="none" xmlns="http://www.w3.org/2000/svg">
<rect width="386" height="93" rx="6" fill="#D8FCEC"/>
<rect x="20" y="32.5" width="40" height="40" rx="20" fill="#163D2A" fill-opacity="0.15"/>
<path d="M45.0334 53.7918C44.6834 54.1335 44.4834 54.6252 44.5334 55.1502C44.6084 56.0502 45.4334 56.7085 46.3334 56.7085H47.9167V57.7002C47.9167 59.4252 46.5084 60.8335 44.7834 60.8335H35.2167C33.4917 60.8335 32.0834 59.4252 32.0834 57.7002V52.0918C32.0834 50.3668 33.4917 48.9585 35.2167 48.9585H44.7834C46.5084 48.9585 47.9167 50.3668 47.9167 52.0918V53.2918H46.2334C45.7667 53.2918 45.3417 53.4752 45.0334 53.7918Z" stroke="#163D2A" stroke-width="1.5" stroke-linecap="round" stroke-linejoin="round"/>
<path d="M32.0831 52.8416V49.0333C32.0831 48.0416 32.6915 47.1583 33.6165 46.8083L40.2331 44.3083C41.2665 43.9166 42.3748 44.6833 42.3748 45.7916V48.9583" stroke="#163D2A" stroke-width="1.5" stroke-linecap="round" stroke-linejoin="round"/>
<path d="M48.7992 54.142V55.8587C48.7992 56.317 48.4325 56.692 47.9659 56.7086H46.3325C45.4325 56.7086 44.6075 56.0503 44.5325 55.1503C44.4825 54.6253 44.6825 54.1336 45.0325 53.792C45.3409 53.4753 45.7659 53.292 46.2325 53.292H47.9659C48.4325 53.3087 48.7992 53.6836 48.7992 54.142Z" stroke="#163D2A" stroke-width="1.5" stroke-linecap="round" stroke-linejoin="round"/>
<path d="M35.8331 52.5H41.6665" stroke="#163D2A" stroke-width="1.5" stroke-linecap="round" stroke-linejoin="round"/>
<path d="M82.072 24.636V25.524H79.792V33H78.7V25.524H76.408V24.636H82.072ZM86.2842 33.108C85.6682 33.108 85.1082 32.968 84.6042 32.688C84.1082 32.408 83.7162 32.012 83.4282 31.5C83.1482 30.98 83.0082 30.38 83.0082 29.7C83.0082 29.028 83.1522 28.436 83.4402 27.924C83.7362 27.404 84.1362 27.008 84.6402 26.736C85.1442 26.456 85.7082 26.316 86.3322 26.316C86.9562 26.316 87.5202 26.456 88.0242 26.736C88.5282 27.008 88.9242 27.4 89.2122 27.912C89.5082 28.424 89.6562 29.02 89.6562 29.7C89.6562 30.38 89.5042 30.98 89.2002 31.5C88.9042 32.012 88.5002 32.408 87.9882 32.688C87.4762 32.968 86.9082 33.108 86.2842 33.108ZM86.2842 32.148C86.6762 32.148 87.0442 32.056 87.3882 31.872C87.7322 31.688 88.0082 31.412 88.2162 31.044C88.4322 30.676 88.5402 30.228 88.5402 29.7C88.5402 29.172 88.4362 28.724 88.2282 28.356C88.0202 27.988 87.7482 27.716 87.4122 27.54C87.0762 27.356 86.7122 27.264 86.3202 27.264C85.9202 27.264 85.5522 27.356 85.2162 27.54C84.8882 27.716 84.6242 27.988 84.4242 28.356C84.2242 28.724 84.1242 29.172 84.1242 29.7C84.1242 30.236 84.2202 30.688 84.4122 31.056C84.6122 31.424 84.8762 31.7 85.2042 31.884C85.5322 32.06 85.8922 32.148 86.2842 32.148ZM92.424 27.324V31.2C92.424 31.52 92.492 31.748 92.628 31.884C92.764 32.012 93 32.076 93.336 32.076H94.14V33H93.156C92.548 33 92.092 32.86 91.788 32.58C91.484 32.3 91.332 31.84 91.332 31.2V27.324H90.48V26.424H91.332V24.768H92.424V26.424H94.14V27.324H92.424ZM95.0551 29.688C95.0551 29.016 95.1911 28.428 95.4631 27.924C95.7351 27.412 96.1071 27.016 96.5791 26.736C97.0591 26.456 97.5911 26.316 98.1751 26.316C98.7511 26.316 99.2511 26.44 99.6751 26.688C100.099 26.936 100.415 27.248 100.623 27.624V26.424H101.727V33H100.623V31.776C100.407 32.16 100.083 32.48 99.6511 32.736C99.2271 32.984 98.7311 33.108 98.1631 33.108C97.5791 33.108 97.0511 32.964 96.5791 32.676C96.1071 32.388 95.7351 31.984 95.4631 31.464C95.1911 30.944 95.0551 30.352 95.0551 29.688ZM100.623 29.7C100.623 29.204 100.523 28.772 100.323 28.404C100.123 28.036 99.8511 27.756 99.5071 27.564C99.1711 27.364 98.7991 27.264 98.3911 27.264C97.9831 27.264 97.6111 27.36 97.2751 27.552C96.9391 27.744 96.6711 28.024 96.4711 28.392C96.2711 28.76 96.1711 29.192 96.1711 29.688C96.1711 30.192 96.2711 30.632 96.4711 31.008C96.6711 31.376 96.9391 31.66 97.2751 31.86C97.6111 32.052 97.9831 32.148 98.3911 32.148C98.7991 32.148 99.1711 32.052 99.5071 31.86C99.8511 31.66 100.123 31.376 100.323 31.008C100.523 30.632 100.623 30.196 100.623 29.7ZM104.664 24.12V33H103.572V24.12H104.664ZM112.377 33.084C111.825 33.084 111.329 32.988 110.889 32.796C110.457 32.596 110.117 32.324 109.869 31.98C109.621 31.628 109.493 31.224 109.485 30.768H110.649C110.689 31.16 110.849 31.492 111.129 31.764C111.417 32.028 111.833 32.16 112.377 32.16C112.897 32.16 113.305 32.032 113.601 31.776C113.905 31.512 114.057 31.176 114.057 30.768C114.057 30.448 113.969 30.188 113.793 29.988C113.617 29.788 113.397 29.636 113.133 29.532C112.869 29.428 112.513 29.316 112.065 29.196C111.513 29.052 111.069 28.908 110.733 28.764C110.405 28.62 110.121 28.396 109.881 28.092C109.649 27.78 109.533 27.364 109.533 26.844C109.533 26.388 109.649 25.984 109.881 25.632C110.113 25.28 110.437 25.008 110.853 24.816C111.277 24.624 111.761 24.528 112.305 24.528C113.089 24.528 113.729 24.724 114.225 25.116C114.729 25.508 115.013 26.028 115.077 26.676H113.877C113.837 26.356 113.669 26.076 113.373 25.836C113.077 25.588 112.685 25.464 112.197 25.464C111.741 25.464 111.369 25.584 111.081 25.824C110.793 26.056 110.649 26.384 110.649 26.808C110.649 27.112 110.733 27.36 110.901 27.552C111.077 27.744 111.289 27.892 111.537 27.996C111.793 28.092 112.149 28.204 112.605 28.332C113.157 28.484 113.601 28.636 113.937 28.788C114.273 28.932 114.561 29.16 114.801 29.472C115.041 29.776 115.161 30.192 115.161 30.72C115.161 31.128 115.053 31.512 114.837 31.872C114.621 32.232 114.301 32.524 113.877 32.748C113.453 32.972 112.953 33.084 112.377 33.084ZM116.36 29.688C116.36 29.016 116.496 28.428 116.768 27.924C117.04 27.412 117.412 27.016 117.884 26.736C118.364 26.456 118.896 26.316 119.48 26.316C120.056 26.316 120.556 26.44 120.98 26.688C121.404 26.936 121.72 27.248 121.928 27.624V26.424H123.032V33H121.928V31.776C121.712 32.16 121.388 32.48 120.956 32.736C120.532 32.984 120.036 33.108 119.468 33.108C118.884 33.108 118.356 32.964 117.884 32.676C117.412 32.388 117.04 31.984 116.768 31.464C116.496 30.944 116.36 30.352 116.36 29.688ZM121.928 29.7C121.928 29.204 121.828 28.772 121.628 28.404C121.428 28.036 121.156 27.756 120.812 27.564C120.476 27.364 120.104 27.264 119.696 27.264C119.288 27.264 118.916 27.36 118.58 27.552C118.244 27.744 117.976 28.024 117.776 28.392C117.576 28.76 117.476 29.192 117.476 29.688C117.476 30.192 117.576 30.632 117.776 31.008C117.976 31.376 118.244 31.66 118.58 31.86C118.916 32.052 119.288 32.148 119.696 32.148C120.104 32.148 120.476 32.052 120.812 31.86C121.156 31.66 121.428 31.376 121.628 31.008C121.828 30.632 121.928 30.196 121.928 29.7ZM127.325 31.992L129.365 26.424H130.529L127.949 33H126.677L124.097 26.424H125.273L127.325 31.992ZM132.168 25.356C131.96 25.356 131.784 25.284 131.64 25.14C131.496 24.996 131.424 24.82 131.424 24.612C131.424 24.404 131.496 24.228 131.64 24.084C131.784 23.94 131.96 23.868 132.168 23.868C132.368 23.868 132.536 23.94 132.672 24.084C132.816 24.228 132.888 24.404 132.888 24.612C132.888 24.82 132.816 24.996 132.672 25.14C132.536 25.284 132.368 25.356 132.168 25.356ZM132.696 26.424V33H131.604V26.424H132.696ZM137.761 26.304C138.561 26.304 139.209 26.548 139.705 27.036C140.201 27.516 140.449 28.212 140.449 29.124V33H139.369V29.28C139.369 28.624 139.205 28.124 138.877 27.78C138.549 27.428 138.101 27.252 137.533 27.252C136.957 27.252 136.497 27.432 136.153 27.792C135.817 28.152 135.649 28.676 135.649 29.364V33H134.557V26.424H135.649V27.36C135.865 27.024 136.157 26.764 136.525 26.58C136.901 26.396 137.313 26.304 137.761 26.304ZM144.945 26.316C145.513 26.316 146.009 26.44 146.433 26.688C146.865 26.936 147.185 27.248 147.393 27.624V26.424H148.497V33.144C148.497 33.744 148.369 34.276 148.113 34.74C147.857 35.212 147.489 35.58 147.009 35.844C146.537 36.108 145.985 36.24 145.353 36.24C144.489 36.24 143.769 36.036 143.193 35.628C142.617 35.22 142.277 34.664 142.173 33.96H143.253C143.373 34.36 143.621 34.68 143.997 34.92C144.373 35.168 144.825 35.292 145.353 35.292C145.953 35.292 146.441 35.104 146.817 34.728C147.201 34.352 147.393 33.824 147.393 33.144V31.764C147.177 32.148 146.857 32.468 146.433 32.724C146.009 32.98 145.513 33.108 144.945 33.108C144.361 33.108 143.829 32.964 143.349 32.676C142.877 32.388 142.505 31.984 142.233 31.464C141.961 30.944 141.825 30.352 141.825 29.688C141.825 29.016 141.961 28.428 142.233 27.924C142.505 27.412 142.877 27.016 143.349 26.736C143.829 26.456 144.361 26.316 144.945 26.316ZM147.393 29.7C147.393 29.204 147.293 28.772 147.093 28.404C146.893 28.036 146.621 27.756 146.277 27.564C145.941 27.364 145.569 27.264 145.161 27.264C144.753 27.264 144.381 27.36 144.045 27.552C143.709 27.744 143.441 28.024 143.241 28.392C143.041 28.76 142.941 29.192 142.941 29.688C142.941 30.192 143.041 30.632 143.241 31.008C143.441 31.376 143.709 31.66 144.045 31.86C144.381 32.052 144.753 32.148 145.161 32.148C145.569 32.148 145.941 32.052 146.277 31.86C146.621 31.66 146.893 31.376 147.093 31.008C147.293 30.632 147.393 30.196 147.393 29.7Z" fill="#828282"/>
<path d="M90.144 69.852C90.144 70.7187 89.9273 71.5333 89.494 72.296C89.078 73.0587 88.454 73.7 87.622 74.22C86.8073 74.74 85.8367 75.052 84.71 75.156V77.262H83.02V75.156C81.3907 75 80.0733 74.4887 79.068 73.622C78.0627 72.7553 77.56 71.6113 77.56 70.19H80.732C80.784 70.866 81.0007 71.4293 81.382 71.88C81.7633 72.3133 82.3093 72.5907 83.02 72.712V66.992C81.8587 66.6973 80.914 66.4027 80.186 66.108C79.458 65.796 78.834 65.3107 78.314 64.652C77.8113 63.9933 77.56 63.092 77.56 61.948C77.56 60.5093 78.0627 59.322 79.068 58.386C80.0733 57.4327 81.3907 56.878 83.02 56.722V54.616H84.71V56.722C86.2353 56.8607 87.4573 57.346 88.376 58.178C89.312 58.9927 89.8407 60.1193 89.962 61.558H86.79C86.738 61.0207 86.53 60.544 86.166 60.128C85.802 59.6947 85.3167 59.4 84.71 59.244V64.86C85.8713 65.1373 86.816 65.432 87.544 65.744C88.272 66.0387 88.8873 66.5153 89.39 67.174C89.8927 67.8153 90.144 68.708 90.144 69.852ZM80.576 61.792C80.576 62.5027 80.784 63.0573 81.2 63.456C81.6333 63.8547 82.24 64.1753 83.02 64.418V59.166C82.2747 59.2527 81.6767 59.5213 81.226 59.972C80.7927 60.4227 80.576 61.0293 80.576 61.792ZM84.71 72.712C85.4727 72.5907 86.0707 72.2873 86.504 71.802C86.9373 71.2993 87.154 70.7013 87.154 70.008C87.154 69.3147 86.9373 68.7773 86.504 68.396C86.088 67.9973 85.49 67.6767 84.71 67.434V72.712ZM94.1062 71.048V68.812L102.842 56.28H106.43V68.474H108.848V71.048H106.43V75H103.518V71.048H94.1062ZM103.648 59.296L97.5122 68.474H103.648V59.296ZM114.996 69.852C115.169 70.7187 115.542 71.3773 116.114 71.828C116.686 72.2787 117.457 72.504 118.428 72.504C119.659 72.504 120.56 72.0187 121.132 71.048C121.704 70.0773 121.99 68.422 121.99 66.082C121.574 66.6713 120.985 67.1307 120.222 67.46C119.477 67.772 118.662 67.928 117.778 67.928C116.651 67.928 115.629 67.7027 114.71 67.252C113.791 66.784 113.063 66.0993 112.526 65.198C112.006 64.2793 111.746 63.17 111.746 61.87C111.746 59.9633 112.301 58.4467 113.41 57.32C114.537 56.176 116.079 55.604 118.038 55.604C120.395 55.604 122.068 56.3927 123.056 57.97C124.061 59.53 124.564 61.9307 124.564 65.172C124.564 67.408 124.373 69.2367 123.992 70.658C123.628 72.0793 122.987 73.154 122.068 73.882C121.149 74.61 119.875 74.974 118.246 74.974C116.391 74.974 114.961 74.4887 113.956 73.518C112.951 72.5473 112.387 71.3253 112.266 69.852H114.996ZM118.298 65.432C119.338 65.432 120.153 65.1113 120.742 64.47C121.349 63.8113 121.652 62.9447 121.652 61.87C121.652 60.674 121.331 59.7467 120.69 59.088C120.066 58.412 119.208 58.074 118.116 58.074C117.024 58.074 116.157 58.4207 115.516 59.114C114.892 59.79 114.58 60.6827 114.58 61.792C114.58 62.8493 114.883 63.7247 115.49 64.418C116.114 65.094 117.05 65.432 118.298 65.432ZM131.006 65.094C129.203 64.1927 128.302 62.7713 128.302 60.83C128.302 59.894 128.536 59.036 129.004 58.256C129.472 57.476 130.174 56.8607 131.11 56.41C132.046 55.942 133.19 55.708 134.542 55.708C135.877 55.708 137.012 55.942 137.948 56.41C138.901 56.8607 139.612 57.476 140.08 58.256C140.548 59.036 140.782 59.894 140.782 60.83C140.782 61.8007 140.531 62.6587 140.028 63.404C139.543 64.132 138.893 64.6953 138.078 65.094C139.066 65.458 139.846 66.056 140.418 66.888C140.99 67.7027 141.276 68.6647 141.276 69.774C141.276 70.9007 140.99 71.8973 140.418 72.764C139.846 73.6307 139.049 74.298 138.026 74.766C137.003 75.234 135.842 75.468 134.542 75.468C133.242 75.468 132.081 75.234 131.058 74.766C130.053 74.298 129.264 73.6307 128.692 72.764C128.12 71.8973 127.834 70.9007 127.834 69.774C127.834 68.6473 128.12 67.6767 128.692 66.862C129.264 66.0473 130.035 65.458 131.006 65.094ZM137.948 61.194C137.948 60.2233 137.645 59.478 137.038 58.958C136.431 58.438 135.599 58.178 134.542 58.178C133.502 58.178 132.679 58.438 132.072 58.958C131.465 59.478 131.162 60.232 131.162 61.22C131.162 62.0867 131.474 62.7973 132.098 63.352C132.739 63.8893 133.554 64.158 134.542 64.158C135.53 64.158 136.345 63.8807 136.986 63.326C137.627 62.7713 137.948 62.0607 137.948 61.194ZM134.542 66.394C133.398 66.394 132.462 66.68 131.734 67.252C131.023 67.8067 130.668 68.6127 130.668 69.67C130.668 70.658 131.015 71.464 131.708 72.088C132.401 72.6947 133.346 72.998 134.542 72.998C135.721 72.998 136.648 72.686 137.324 72.062C138.017 71.438 138.364 70.6407 138.364 69.67C138.364 68.63 138.009 67.824 137.298 67.252C136.605 66.68 135.686 66.394 134.542 66.394ZM148.028 71.438L144.882 78.614H142.958L144.804 71.438H148.028ZM150.228 65.276C150.228 62.2773 150.731 59.9373 151.736 58.256C152.759 56.5573 154.509 55.708 156.988 55.708C159.467 55.708 161.209 56.5573 162.214 58.256C163.237 59.9373 163.748 62.2773 163.748 65.276C163.748 68.3093 163.237 70.684 162.214 72.4C161.209 74.0987 159.467 74.948 156.988 74.948C154.509 74.948 152.759 74.0987 151.736 72.4C150.731 70.684 150.228 68.3093 150.228 65.276ZM160.836 65.276C160.836 63.872 160.741 62.6847 160.55 61.714C160.377 60.7433 160.013 59.9547 159.458 59.348C158.903 58.724 158.08 58.412 156.988 58.412C155.896 58.412 155.073 58.724 154.518 59.348C153.963 59.9547 153.591 60.7433 153.4 61.714C153.227 62.6847 153.14 63.872 153.14 65.276C153.14 66.732 153.227 67.954 153.4 68.942C153.573 69.93 153.937 70.7273 154.492 71.334C155.064 71.9407 155.896 72.244 156.988 72.244C158.08 72.244 158.903 71.9407 159.458 71.334C160.03 70.7273 160.403 69.93 160.576 68.942C160.749 67.954 160.836 66.732 160.836 65.276ZM170.576 69.852C170.75 70.7187 171.122 71.3773 171.694 71.828C172.266 72.2787 173.038 72.504 174.008 72.504C175.239 72.504 176.14 72.0187 176.712 71.048C177.284 70.0773 177.57 68.422 177.57 66.082C177.154 66.6713 176.565 67.1307 175.802 67.46C175.057 67.772 174.242 67.928 173.358 67.928C172.232 67.928 171.209 67.7027 170.29 67.252C169.372 66.784 168.644 66.0993 168.106 65.198C167.586 64.2793 167.326 63.17 167.326 61.87C167.326 59.9633 167.881 58.4467 168.99 57.32C170.117 56.176 171.66 55.604 173.618 55.604C175.976 55.604 177.648 56.3927 178.636 57.97C179.642 59.53 180.144 61.9307 180.144 65.172C180.144 67.408 179.954 69.2367 179.572 70.658C179.208 72.0793 178.567 73.154 177.648 73.882C176.73 74.61 175.456 74.974 173.826 74.974C171.972 74.974 170.542 74.4887 169.536 73.518C168.531 72.5473 167.968 71.3253 167.846 69.852H170.576ZM173.878 65.432C174.918 65.432 175.733 65.1113 176.322 64.47C176.929 63.8113 177.232 62.9447 177.232 61.87C177.232 60.674 176.912 59.7467 176.27 59.088C175.646 58.412 174.788 58.074 173.696 58.074C172.604 58.074 171.738 58.4207 171.096 59.114C170.472 59.79 170.16 60.6827 170.16 61.792C170.16 62.8493 170.464 63.7247 171.07 64.418C171.694 65.094 172.63 65.432 173.878 65.432ZM186.586 65.094C184.783 64.1927 183.882 62.7713 183.882 60.83C183.882 59.894 184.116 59.036 184.584 58.256C185.052 57.476 185.754 56.8607 186.69 56.41C187.626 55.942 188.77 55.708 190.122 55.708C191.457 55.708 192.592 55.942 193.528 56.41C194.481 56.8607 195.192 57.476 195.66 58.256C196.128 59.036 196.362 59.894 196.362 60.83C196.362 61.8007 196.111 62.6587 195.608 63.404C195.123 64.132 194.473 64.6953 193.658 65.094C194.646 65.458 195.426 66.056 195.998 66.888C196.57 67.7027 196.856 68.6647 196.856 69.774C196.856 70.9007 196.57 71.8973 195.998 72.764C195.426 73.6307 194.629 74.298 193.606 74.766C192.583 75.234 191.422 75.468 190.122 75.468C188.822 75.468 187.661 75.234 186.638 74.766C185.633 74.298 184.844 73.6307 184.272 72.764C183.7 71.8973 183.414 70.9007 183.414 69.774C183.414 68.6473 183.7 67.6767 184.272 66.862C184.844 66.0473 185.615 65.458 186.586 65.094ZM193.528 61.194C193.528 60.2233 193.225 59.478 192.618 58.958C192.011 58.438 191.179 58.178 190.122 58.178C189.082 58.178 188.259 58.438 187.652 58.958C187.045 59.478 186.742 60.232 186.742 61.22C186.742 62.0867 187.054 62.7973 187.678 63.352C188.319 63.8893 189.134 64.158 190.122 64.158C191.11 64.158 191.925 63.8807 192.566 63.326C193.207 62.7713 193.528 62.0607 193.528 61.194ZM190.122 66.394C188.978 66.394 188.042 66.68 187.314 67.252C186.603 67.8067 186.248 68.6127 186.248 69.67C186.248 70.658 186.595 71.464 187.288 72.088C187.981 72.6947 188.926 72.998 190.122 72.998C191.301 72.998 192.228 72.686 192.904 72.062C193.597 71.438 193.944 70.6407 193.944 69.67C193.944 68.63 193.589 67.824 192.878 67.252C192.185 66.68 191.266 66.394 190.122 66.394Z" fill="#141414"/>
<path d="M199.892 75.084C199.65 75.084 199.444 75 199.276 74.832C199.108 74.664 199.024 74.4587 199.024 74.216C199.024 73.9733 199.108 73.768 199.276 73.6C199.444 73.432 199.65 73.348 199.892 73.348C200.126 73.348 200.322 73.432 200.48 73.6C200.648 73.768 200.732 73.9733 200.732 74.216C200.732 74.4587 200.648 74.664 200.48 74.832C200.322 75 200.126 75.084 199.892 75.084ZM202.216 69.834C202.216 68.2287 202.477 66.978 203 66.082C203.522 65.1767 204.437 64.724 205.744 64.724C207.041 64.724 207.951 65.1767 208.474 66.082C208.996 66.978 209.258 68.2287 209.258 69.834C209.258 71.4673 208.996 72.7367 208.474 73.642C207.951 74.5473 207.041 75 205.744 75C204.437 75 203.522 74.5473 203 73.642C202.477 72.7367 202.216 71.4673 202.216 69.834ZM207.998 69.834C207.998 69.022 207.942 68.336 207.83 67.776C207.727 67.2067 207.508 66.7493 207.172 66.404C206.845 66.0587 206.369 65.886 205.744 65.886C205.109 65.886 204.624 66.0587 204.288 66.404C203.961 66.7493 203.742 67.2067 203.63 67.776C203.527 68.336 203.476 69.022 203.476 69.834C203.476 70.674 203.527 71.3787 203.63 71.948C203.742 72.5173 203.961 72.9747 204.288 73.32C204.624 73.6653 205.109 73.838 205.744 73.838C206.369 73.838 206.845 73.6653 207.172 73.32C207.508 72.9747 207.727 72.5173 207.83 71.948C207.942 71.3787 207.998 70.674 207.998 69.834ZM211.007 69.834C211.007 68.2287 211.268 66.978 211.791 66.082C212.313 65.1767 213.228 64.724 214.535 64.724C215.832 64.724 216.742 65.1767 217.265 66.082C217.787 66.978 218.049 68.2287 218.049 69.834C218.049 71.4673 217.787 72.7367 217.265 73.642C216.742 74.5473 215.832 75 214.535 75C213.228 75 212.313 74.5473 211.791 73.642C211.268 72.7367 211.007 71.4673 211.007 69.834ZM216.789 69.834C216.789 69.022 216.733 68.336 216.621 67.776C216.518 67.2067 216.299 66.7493 215.963 66.404C215.636 66.0587 215.16 65.886 214.535 65.886C213.9 65.886 213.415 66.0587 213.079 66.404C212.752 66.7493 212.533 67.2067 212.421 67.776C212.318 68.336 212.267 69.022 212.267 69.834C212.267 70.674 212.318 71.3787 212.421 71.948C212.533 72.5173 212.752 72.9747 213.079 73.32C213.415 73.6653 213.9 73.838 214.535 73.838C215.16 73.838 215.636 73.6653 215.963 73.32C216.299 72.9747 216.518 72.5173 216.621 71.948C216.733 71.3787 216.789 70.674 216.789 69.834Z" fill="#828282"/>
<path d="M356.43 40.9302L362.5 47.0002L356.43 53.0702" stroke="#141414" stroke-width="1.5" stroke-miterlimit="10" stroke-linecap="round" stroke-linejoin="round"/>
<path d="M345.5 47H362.33" stroke="#141414" stroke-width="1.5" stroke-miterlimit="10" stroke-linecap="round" stroke-linejoin="round"/>
</svg>
