<svg width="236" height="253" viewBox="0 0 236 253" fill="none" xmlns="http://www.w3.org/2000/svg">
<rect width="236" height="253" rx="6" fill="#D8FCEC"/>
<path d="M32.5 26.866C31.8333 26.4811 31.8333 25.5189 32.5 25.134L38.5 21.6699C39.1667 21.285 40 21.7661 40 22.5359V29.4641C40 30.2339 39.1667 30.715 38.5 30.3301L32.5 26.866Z" fill="#141414"/>
<path d="M72.4134 30H71.2486L73.8658 22.7273H75.1335L77.7507 30H76.5859L74.5298 24.0483H74.473L72.4134 30ZM72.6087 27.152H76.3871V28.0753H72.6087V27.152ZM78.7157 32.0455V24.5455H79.7527V25.4297H79.8414C79.903 25.3161 79.9918 25.1847 80.1078 25.0355C80.2238 24.8864 80.3848 24.7562 80.5907 24.6449C80.7967 24.5312 81.069 24.4744 81.4075 24.4744C81.8478 24.4744 82.2408 24.5857 82.5865 24.8082C82.9321 25.0308 83.2032 25.3516 83.3997 25.7706C83.5985 26.1896 83.698 26.6939 83.698 27.2834C83.698 27.8729 83.5997 28.3783 83.4032 28.7997C83.2067 29.2187 82.9368 29.5419 82.5936 29.7692C82.2503 29.9941 81.8585 30.1065 81.4181 30.1065C81.0867 30.1065 80.8156 30.0509 80.6049 29.9396C80.3966 29.8284 80.2333 29.6982 80.1149 29.549C79.9965 29.3999 79.9054 29.2673 79.8414 29.1513H79.7775V32.0455H78.7157ZM79.7562 27.2727C79.7562 27.6562 79.8118 27.9924 79.9231 28.2812C80.0344 28.5701 80.1954 28.7962 80.4061 28.9595C80.6168 29.1205 80.8748 29.201 81.1802 29.201C81.4975 29.201 81.7626 29.117 81.9757 28.9489C82.1887 28.7784 82.3497 28.5476 82.4586 28.2564C82.5699 27.9652 82.6255 27.6373 82.6255 27.2727C82.6255 26.9129 82.5711 26.5897 82.4622 26.3033C82.3556 26.0168 82.1947 25.7907 81.9792 25.625C81.7662 25.4593 81.4998 25.3764 81.1802 25.3764C80.8725 25.3764 80.612 25.4557 80.399 25.6143C80.1883 25.773 80.0285 25.9943 79.9196 26.2784C79.8107 26.5625 79.7562 26.8939 79.7562 27.2727ZM84.8876 30V24.5455H85.9139V25.4119H85.9707C86.0701 25.1184 86.2453 24.8875 86.4963 24.7195C86.7496 24.549 87.036 24.4638 87.3556 24.4638C87.4219 24.4638 87.5001 24.4661 87.59 24.4709C87.6824 24.4756 87.7546 24.4815 87.8066 24.4886V25.5043C87.764 25.4924 87.6883 25.4794 87.5794 25.4652C87.4705 25.4486 87.3616 25.4403 87.2527 25.4403C87.0017 25.4403 86.778 25.4936 86.5815 25.6001C86.3874 25.7043 86.2335 25.8499 86.1199 26.0369C86.0062 26.2216 85.9494 26.4323 85.9494 26.669V30H84.8876ZM88.7255 30V24.5455H89.7873V30H88.7255ZM89.2617 23.7038C89.0771 23.7038 88.9184 23.6423 88.7859 23.5192C88.6557 23.3937 88.5906 23.2446 88.5906 23.0717C88.5906 22.8965 88.6557 22.7474 88.7859 22.6243C88.9184 22.4988 89.0771 22.4361 89.2617 22.4361C89.4464 22.4361 89.6038 22.4988 89.734 22.6243C89.8666 22.7474 89.9329 22.8965 89.9329 23.0717C89.9329 23.2446 89.8666 23.3937 89.734 23.5192C89.6038 23.6423 89.4464 23.7038 89.2617 23.7038ZM92.2775 22.7273V30H91.2157V22.7273H92.2775ZM96.3382 30V29.2045L98.7992 26.6548C99.062 26.3778 99.2786 26.1352 99.449 25.9268C99.6219 25.7161 99.7509 25.5161 99.8361 25.3267C99.9213 25.1373 99.964 24.9361 99.964 24.723C99.964 24.4815 99.9071 24.2732 99.7935 24.098C99.6799 23.9205 99.5248 23.7843 99.3283 23.6896C99.1318 23.5926 98.9105 23.544 98.6642 23.544C98.4038 23.544 98.1766 23.5973 97.9824 23.7038C97.7883 23.8104 97.6391 23.9607 97.535 24.1548C97.4308 24.349 97.3787 24.5762 97.3787 24.8366H96.3311C96.3311 24.3939 96.4329 24.0069 96.6365 23.6754C96.8401 23.344 97.1195 23.0871 97.4746 22.9048C97.8297 22.7202 98.2334 22.6278 98.6855 22.6278C99.1425 22.6278 99.5449 22.719 99.8929 22.9013C100.243 23.0812 100.517 23.3274 100.713 23.6399C100.91 23.95 101.008 24.3004 101.008 24.6911C101.008 24.9609 100.957 25.2249 100.855 25.483C100.756 25.741 100.582 26.0286 100.333 26.3459C100.085 26.6607 99.7391 27.0431 99.2963 27.4929L97.851 29.0057V29.0589H101.125V30H96.3382ZM105.003 30.1207C104.442 30.1184 103.963 29.9704 103.565 29.6768C103.167 29.3833 102.863 28.956 102.652 28.3949C102.441 27.8338 102.336 27.1579 102.336 26.3672C102.336 25.5788 102.441 24.9053 102.652 24.3466C102.865 23.7879 103.171 23.3617 103.568 23.0682C103.968 22.7746 104.447 22.6278 105.003 22.6278C105.559 22.6278 106.036 22.7758 106.434 23.0717C106.832 23.3653 107.136 23.7914 107.347 24.3501C107.56 24.9065 107.666 25.5788 107.666 26.3672C107.666 27.1603 107.561 27.8374 107.35 28.3984C107.14 28.9571 106.835 29.3845 106.438 29.6804C106.04 29.974 105.562 30.1207 105.003 30.1207ZM105.003 29.1726C105.495 29.1726 105.88 28.9323 106.157 28.4517C106.436 27.9711 106.576 27.2763 106.576 26.3672C106.576 25.7635 106.512 25.2533 106.384 24.8366C106.259 24.4176 106.078 24.1004 105.841 23.8849C105.607 23.6671 105.327 23.5582 105.003 23.5582C104.513 23.5582 104.128 23.7997 103.849 24.2827C103.57 24.7656 103.429 25.4605 103.426 26.3672C103.426 26.9732 103.489 27.4858 103.615 27.9048C103.742 28.3215 103.923 28.6375 104.158 28.853C104.392 29.0661 104.674 29.1726 105.003 29.1726ZM108.926 30V29.2045L111.387 26.6548C111.65 26.3778 111.866 26.1352 112.037 25.9268C112.21 25.7161 112.339 25.5161 112.424 25.3267C112.509 25.1373 112.552 24.9361 112.552 24.723C112.552 24.4815 112.495 24.2732 112.381 24.098C112.268 23.9205 112.113 23.7843 111.916 23.6896C111.72 23.5926 111.498 23.544 111.252 23.544C110.992 23.544 110.764 23.5973 110.57 23.7038C110.376 23.8104 110.227 23.9607 110.123 24.1548C110.019 24.349 109.967 24.5762 109.967 24.8366H108.919C108.919 24.3939 109.021 24.0069 109.224 23.6754C109.428 23.344 109.707 23.0871 110.062 22.9048C110.418 22.7202 110.821 22.6278 111.273 22.6278C111.73 22.6278 112.133 22.719 112.481 22.9013C112.831 23.0812 113.105 23.3274 113.301 23.6399C113.498 23.95 113.596 24.3004 113.596 24.6911C113.596 24.9609 113.545 25.2249 113.443 25.483C113.344 25.741 113.17 26.0286 112.921 26.3459C112.673 26.6607 112.327 27.0431 111.884 27.4929L110.439 29.0057V29.0589H113.713V30H108.926ZM115.059 30V29.2045L117.52 26.6548C117.783 26.3778 117.999 26.1352 118.17 25.9268C118.343 25.7161 118.472 25.5161 118.557 25.3267C118.642 25.1373 118.685 24.9361 118.685 24.723C118.685 24.4815 118.628 24.2732 118.514 24.098C118.401 23.9205 118.246 23.7843 118.049 23.6896C117.853 23.5926 117.631 23.544 117.385 23.544C117.125 23.544 116.897 23.5973 116.703 23.7038C116.509 23.8104 116.36 23.9607 116.256 24.1548C116.152 24.349 116.099 24.5762 116.099 24.8366H115.052C115.052 24.3939 115.154 24.0069 115.357 23.6754C115.561 23.344 115.84 23.0871 116.195 22.9048C116.55 22.7202 116.954 22.6278 117.406 22.6278C117.863 22.6278 118.266 22.719 118.614 22.9013C118.964 23.0812 119.237 23.3274 119.434 23.6399C119.63 23.95 119.729 24.3004 119.729 24.6911C119.729 24.9609 119.678 25.2249 119.576 25.483C119.477 25.741 119.303 26.0286 119.054 26.3459C118.805 26.6607 118.46 27.0431 118.017 27.4929L116.572 29.0057V29.0589H119.846V30H115.059ZM127.066 25.902V26.8253H123.842V25.902H127.066ZM132.637 30L130.62 22.7273H131.774L133.191 28.3594H133.259L134.732 22.7273H135.876L137.349 28.3629H137.417L138.83 22.7273H139.988L137.967 30H136.863L135.332 24.5526H135.276L133.745 30H132.637ZM142.717 30.1101C142.18 30.1101 141.717 29.9953 141.328 29.7656C140.943 29.5336 140.644 29.2081 140.434 28.7891C140.225 28.3677 140.121 27.8741 140.121 27.3082C140.121 26.7495 140.225 26.2571 140.434 25.831C140.644 25.4048 140.938 25.0722 141.314 24.8331C141.693 24.594 142.136 24.4744 142.642 24.4744C142.95 24.4744 143.248 24.5253 143.537 24.6271C143.826 24.7289 144.085 24.8887 144.315 25.1065C144.545 25.3243 144.726 25.6072 144.858 25.9553C144.991 26.3009 145.057 26.7211 145.057 27.2159V27.5923H140.721V26.7969H144.017C144.017 26.5175 143.96 26.2701 143.846 26.0547C143.733 25.8369 143.573 25.6652 143.367 25.5398C143.163 25.4143 142.924 25.3516 142.65 25.3516C142.351 25.3516 142.091 25.425 141.868 25.5717C141.648 25.7161 141.478 25.9055 141.357 26.1399C141.239 26.3719 141.179 26.6241 141.179 26.8963V27.5178C141.179 27.8823 141.243 28.1925 141.371 28.4482C141.501 28.7038 141.682 28.8991 141.914 29.0341C142.146 29.1667 142.417 29.233 142.728 29.233C142.929 29.233 143.112 29.2045 143.278 29.1477C143.444 29.0885 143.587 29.0009 143.708 28.8849C143.828 28.7689 143.921 28.6257 143.985 28.4553L144.99 28.6364C144.909 28.9323 144.765 29.1915 144.556 29.4141C144.35 29.6342 144.091 29.8059 143.779 29.929C143.469 30.0497 143.115 30.1101 142.717 30.1101ZM148.586 30.1101C148.049 30.1101 147.586 29.9953 147.198 29.7656C146.812 29.5336 146.513 29.2081 146.303 28.7891C146.094 28.3677 145.99 27.8741 145.99 27.3082C145.99 26.7495 146.094 26.2571 146.303 25.831C146.513 25.4048 146.807 25.0722 147.183 24.8331C147.562 24.594 148.005 24.4744 148.512 24.4744C148.819 24.4744 149.118 24.5253 149.406 24.6271C149.695 24.7289 149.954 24.8887 150.184 25.1065C150.414 25.3243 150.595 25.6072 150.727 25.9553C150.86 26.3009 150.926 26.7211 150.926 27.2159V27.5923H146.59V26.7969H149.886C149.886 26.5175 149.829 26.2701 149.715 26.0547C149.602 25.8369 149.442 25.6652 149.236 25.5398C149.032 25.4143 148.793 25.3516 148.519 25.3516C148.22 25.3516 147.96 25.425 147.737 25.5717C147.517 25.7161 147.347 25.9055 147.226 26.1399C147.108 26.3719 147.048 26.6241 147.048 26.8963V27.5178C147.048 27.8823 147.112 28.1925 147.24 28.4482C147.37 28.7038 147.552 28.8991 147.784 29.0341C148.016 29.1667 148.287 29.233 148.597 29.233C148.798 29.233 148.981 29.2045 149.147 29.1477C149.313 29.0885 149.456 29.0009 149.577 28.8849C149.698 28.7689 149.79 28.6257 149.854 28.4553L150.859 28.6364C150.778 28.9323 150.634 29.1915 150.426 29.4141C150.22 29.6342 149.96 29.8059 149.648 29.929C149.338 30.0497 148.984 30.1101 148.586 30.1101ZM153.081 28.1499L153.074 26.8537H153.259L155.432 24.5455H156.703L154.224 27.1733H154.058L153.081 28.1499ZM152.104 30V22.7273H153.166V30H152.104ZM155.549 30L153.596 27.4077L154.327 26.6655L156.852 30H155.549ZM163.062 22.7273V30H161.961V23.8281H161.919L160.179 24.9645V23.9134L161.993 22.7273H163.062Z" fill="black"/>
<path d="M203.5 25.134C204.167 25.5189 204.167 26.4811 203.5 26.866L197.5 30.3301C196.833 30.715 196 30.2339 196 29.4641V22.5359C196 21.7661 196.833 21.285 197.5 21.6699L203.5 25.134Z" fill="#141414"/>
<path d="M205 144C205 192.049 166.049 231 118 231C69.9512 231 31 192.049 31 144C31 95.9512 69.9512 57 118 57C166.049 57 205 95.9512 205 144ZM47.3094 144C47.3094 183.041 78.9586 214.691 118 214.691C157.041 214.691 188.691 183.041 188.691 144C188.691 104.959 157.041 73.3094 118 73.3094C78.9586 73.3094 47.3094 104.959 47.3094 144Z" fill="#F9FBFC"/>
<path d="M118 65.1547C118 60.651 121.659 56.9603 126.143 57.3818C141.718 58.846 156.666 64.4901 169.373 73.787C184.28 84.6946 195.329 100.064 200.92 117.67C206.51 135.276 206.352 154.204 200.468 171.714C194.584 189.223 183.279 204.406 168.191 215.063C153.103 225.719 135.014 231.297 116.545 230.988C98.0751 230.679 80.1833 224.499 65.46 213.344C50.7368 202.188 39.9463 186.636 34.6511 168.939C30.1379 153.856 29.8165 137.881 33.6444 122.713C34.7464 118.346 39.4481 116.131 43.6926 117.637C47.9371 119.143 50.1074 123.8 49.1001 128.189C46.3742 140.068 46.756 152.5 50.2761 164.264C54.5786 178.643 63.3462 191.28 75.3094 200.344C87.2726 209.408 101.81 214.43 116.817 214.681C131.825 214.932 146.522 210.4 158.782 201.741C171.041 193.082 180.227 180.746 185.008 166.518C189.789 152.291 189.918 136.911 185.375 122.606C180.833 108.3 171.855 95.8122 159.742 86.9494C149.832 79.6983 138.243 75.182 126.137 73.7792C121.663 73.2608 118 69.6584 118 65.1547Z" fill="#163D2A"/>
<path d="M84.78 122.636L82.056 127.844V131H80.964V127.844L78.228 122.636H79.44L81.504 126.872L83.568 122.636H84.78ZM88.7998 131.108C88.1838 131.108 87.6238 130.968 87.1198 130.688C86.6238 130.408 86.2318 130.012 85.9438 129.5C85.6638 128.98 85.5238 128.38 85.5238 127.7C85.5238 127.028 85.6678 126.436 85.9558 125.924C86.2518 125.404 86.6518 125.008 87.1558 124.736C87.6598 124.456 88.2238 124.316 88.8478 124.316C89.4718 124.316 90.0358 124.456 90.5398 124.736C91.0438 125.008 91.4398 125.4 91.7278 125.912C92.0238 126.424 92.1718 127.02 92.1718 127.7C92.1718 128.38 92.0198 128.98 91.7158 129.5C91.4198 130.012 91.0158 130.408 90.5038 130.688C89.9918 130.968 89.4238 131.108 88.7998 131.108ZM88.7998 130.148C89.1918 130.148 89.5598 130.056 89.9038 129.872C90.2478 129.688 90.5238 129.412 90.7318 129.044C90.9478 128.676 91.0558 128.228 91.0558 127.7C91.0558 127.172 90.9518 126.724 90.7438 126.356C90.5358 125.988 90.2638 125.716 89.9278 125.54C89.5918 125.356 89.2278 125.264 88.8358 125.264C88.4358 125.264 88.0678 125.356 87.7318 125.54C87.4038 125.716 87.1398 125.988 86.9398 126.356C86.7398 126.724 86.6398 127.172 86.6398 127.7C86.6398 128.236 86.7358 128.688 86.9278 129.056C87.1278 129.424 87.3918 129.7 87.7198 129.884C88.0478 130.06 88.4078 130.148 88.7998 130.148ZM99.4396 124.424V131H98.3476V130.028C98.1396 130.364 97.8476 130.628 97.4716 130.82C97.1036 131.004 96.6956 131.096 96.2476 131.096C95.7356 131.096 95.2756 130.992 94.8676 130.784C94.4596 130.568 94.1356 130.248 93.8956 129.824C93.6636 129.4 93.5476 128.884 93.5476 128.276V124.424H94.6276V128.132C94.6276 128.78 94.7916 129.28 95.1196 129.632C95.4476 129.976 95.8956 130.148 96.4636 130.148C97.0476 130.148 97.5076 129.968 97.8436 129.608C98.1796 129.248 98.3476 128.724 98.3476 128.036V124.424H99.4396ZM102.375 125.492C102.567 125.116 102.839 124.824 103.191 124.616C103.551 124.408 103.987 124.304 104.499 124.304V125.432H104.211C102.987 125.432 102.375 126.096 102.375 127.424V131H101.283V124.424H102.375V125.492ZM111.611 131.084C111.059 131.084 110.563 130.988 110.123 130.796C109.691 130.596 109.351 130.324 109.103 129.98C108.855 129.628 108.727 129.224 108.719 128.768H109.883C109.923 129.16 110.083 129.492 110.363 129.764C110.651 130.028 111.067 130.16 111.611 130.16C112.131 130.16 112.539 130.032 112.835 129.776C113.139 129.512 113.291 129.176 113.291 128.768C113.291 128.448 113.203 128.188 113.027 127.988C112.851 127.788 112.631 127.636 112.367 127.532C112.103 127.428 111.747 127.316 111.299 127.196C110.747 127.052 110.303 126.908 109.967 126.764C109.639 126.62 109.355 126.396 109.115 126.092C108.883 125.78 108.767 125.364 108.767 124.844C108.767 124.388 108.883 123.984 109.115 123.632C109.347 123.28 109.671 123.008 110.087 122.816C110.511 122.624 110.995 122.528 111.539 122.528C112.323 122.528 112.963 122.724 113.459 123.116C113.963 123.508 114.247 124.028 114.311 124.676H113.111C113.071 124.356 112.903 124.076 112.607 123.836C112.311 123.588 111.919 123.464 111.431 123.464C110.975 123.464 110.603 123.584 110.315 123.824C110.027 124.056 109.883 124.384 109.883 124.808C109.883 125.112 109.967 125.36 110.135 125.552C110.311 125.744 110.523 125.892 110.771 125.996C111.027 126.092 111.383 126.204 111.839 126.332C112.391 126.484 112.835 126.636 113.171 126.788C113.507 126.932 113.795 127.16 114.035 127.472C114.275 127.776 114.395 128.192 114.395 128.72C114.395 129.128 114.287 129.512 114.071 129.872C113.855 130.232 113.535 130.524 113.111 130.748C112.687 130.972 112.187 131.084 111.611 131.084ZM117.094 125.636C117.31 125.26 117.63 124.948 118.054 124.7C118.486 124.444 118.986 124.316 119.554 124.316C120.138 124.316 120.666 124.456 121.138 124.736C121.618 125.016 121.994 125.412 122.266 125.924C122.538 126.428 122.674 127.016 122.674 127.688C122.674 128.352 122.538 128.944 122.266 129.464C121.994 129.984 121.618 130.388 121.138 130.676C120.666 130.964 120.138 131.108 119.554 131.108C118.994 131.108 118.498 130.984 118.066 130.736C117.642 130.48 117.318 130.164 117.094 129.788V134.12H116.002V124.424H117.094V125.636ZM121.558 127.688C121.558 127.192 121.458 126.76 121.258 126.392C121.058 126.024 120.786 125.744 120.442 125.552C120.106 125.36 119.734 125.264 119.326 125.264C118.926 125.264 118.554 125.364 118.21 125.564C117.874 125.756 117.602 126.04 117.394 126.416C117.194 126.784 117.094 127.212 117.094 127.7C117.094 128.196 117.194 128.632 117.394 129.008C117.602 129.376 117.874 129.66 118.21 129.86C118.554 130.052 118.926 130.148 119.326 130.148C119.734 130.148 120.106 130.052 120.442 129.86C120.786 129.66 121.058 129.376 121.258 129.008C121.458 128.632 121.558 128.192 121.558 127.688ZM130.112 127.46C130.112 127.668 130.1 127.888 130.076 128.12H124.82C124.86 128.768 125.08 129.276 125.48 129.644C125.888 130.004 126.38 130.184 126.956 130.184C127.428 130.184 127.82 130.076 128.132 129.86C128.452 129.636 128.676 129.34 128.804 128.972H129.98C129.804 129.604 129.452 130.12 128.924 130.52C128.396 130.912 127.74 131.108 126.956 131.108C126.332 131.108 125.772 130.968 125.276 130.688C124.788 130.408 124.404 130.012 124.124 129.5C123.844 128.98 123.704 128.38 123.704 127.7C123.704 127.02 123.84 126.424 124.112 125.912C124.384 125.4 124.764 125.008 125.252 124.736C125.748 124.456 126.316 124.316 126.956 124.316C127.58 124.316 128.132 124.452 128.612 124.724C129.092 124.996 129.46 125.372 129.716 125.852C129.98 126.324 130.112 126.86 130.112 127.46ZM128.984 127.232C128.984 126.816 128.892 126.46 128.708 126.164C128.524 125.86 128.272 125.632 127.952 125.48C127.64 125.32 127.292 125.24 126.908 125.24C126.356 125.24 125.884 125.416 125.492 125.768C125.108 126.12 124.888 126.608 124.832 127.232H128.984ZM134.757 124.304C135.557 124.304 136.205 124.548 136.701 125.036C137.197 125.516 137.445 126.212 137.445 127.124V131H136.365V127.28C136.365 126.624 136.201 126.124 135.873 125.78C135.545 125.428 135.097 125.252 134.529 125.252C133.953 125.252 133.493 125.432 133.149 125.792C132.813 126.152 132.645 126.676 132.645 127.364V131H131.553V124.424H132.645V125.36C132.861 125.024 133.153 124.764 133.521 124.58C133.897 124.396 134.309 124.304 134.757 124.304ZM138.821 127.688C138.821 127.016 138.957 126.428 139.229 125.924C139.501 125.412 139.873 125.016 140.345 124.736C140.825 124.456 141.361 124.316 141.953 124.316C142.465 124.316 142.941 124.436 143.381 124.676C143.821 124.908 144.157 125.216 144.389 125.6V122.12H145.493V131H144.389V129.764C144.173 130.156 143.853 130.48 143.429 130.736C143.005 130.984 142.509 131.108 141.941 131.108C141.357 131.108 140.825 130.964 140.345 130.676C139.873 130.388 139.501 129.984 139.229 129.464C138.957 128.944 138.821 128.352 138.821 127.688ZM144.389 127.7C144.389 127.204 144.289 126.772 144.089 126.404C143.889 126.036 143.617 125.756 143.273 125.564C142.937 125.364 142.565 125.264 142.157 125.264C141.749 125.264 141.377 125.36 141.041 125.552C140.705 125.744 140.437 126.024 140.237 126.392C140.037 126.76 139.937 127.192 139.937 127.688C139.937 128.192 140.037 128.632 140.237 129.008C140.437 129.376 140.705 129.66 141.041 129.86C141.377 130.052 141.749 130.148 142.157 130.148C142.565 130.148 142.937 130.052 143.273 129.86C143.617 129.66 143.889 129.376 144.089 129.008C144.289 128.632 144.389 128.196 144.389 127.7ZM147.902 123.356C147.694 123.356 147.518 123.284 147.374 123.14C147.23 122.996 147.158 122.82 147.158 122.612C147.158 122.404 147.23 122.228 147.374 122.084C147.518 121.94 147.694 121.868 147.902 121.868C148.102 121.868 148.27 121.94 148.406 122.084C148.55 122.228 148.622 122.404 148.622 122.612C148.622 122.82 148.55 122.996 148.406 123.14C148.27 123.284 148.102 123.356 147.902 123.356ZM148.43 124.424V131H147.338V124.424H148.43ZM153.495 124.304C154.295 124.304 154.943 124.548 155.439 125.036C155.935 125.516 156.183 126.212 156.183 127.124V131H155.103V127.28C155.103 126.624 154.939 126.124 154.611 125.78C154.283 125.428 153.835 125.252 153.267 125.252C152.691 125.252 152.231 125.432 151.887 125.792C151.551 126.152 151.383 126.676 151.383 127.364V131H150.291V124.424H151.383V125.36C151.599 125.024 151.891 124.764 152.259 124.58C152.635 124.396 153.047 124.304 153.495 124.304ZM160.679 124.316C161.247 124.316 161.743 124.44 162.167 124.688C162.599 124.936 162.919 125.248 163.127 125.624V124.424H164.231V131.144C164.231 131.744 164.103 132.276 163.847 132.74C163.591 133.212 163.223 133.58 162.743 133.844C162.271 134.108 161.719 134.24 161.087 134.24C160.223 134.24 159.503 134.036 158.927 133.628C158.351 133.22 158.011 132.664 157.907 131.96H158.987C159.107 132.36 159.355 132.68 159.731 132.92C160.107 133.168 160.559 133.292 161.087 133.292C161.687 133.292 162.175 133.104 162.551 132.728C162.935 132.352 163.127 131.824 163.127 131.144V129.764C162.911 130.148 162.591 130.468 162.167 130.724C161.743 130.98 161.247 131.108 160.679 131.108C160.095 131.108 159.563 130.964 159.083 130.676C158.611 130.388 158.239 129.984 157.967 129.464C157.695 128.944 157.559 128.352 157.559 127.688C157.559 127.016 157.695 126.428 157.967 125.924C158.239 125.412 158.611 125.016 159.083 124.736C159.563 124.456 160.095 124.316 160.679 124.316ZM163.127 127.7C163.127 127.204 163.027 126.772 162.827 126.404C162.627 126.036 162.355 125.756 162.011 125.564C161.675 125.364 161.303 125.264 160.895 125.264C160.487 125.264 160.115 125.36 159.779 125.552C159.443 125.744 159.175 126.024 158.975 126.392C158.775 126.76 158.675 127.192 158.675 127.688C158.675 128.192 158.775 128.632 158.975 129.008C159.175 129.376 159.443 129.66 159.779 129.86C160.115 130.052 160.487 130.148 160.895 130.148C161.303 130.148 161.675 130.052 162.011 129.86C162.355 129.66 162.627 129.376 162.827 129.008C163.027 128.632 163.127 128.196 163.127 127.7Z" fill="#828282"/>
<path d="M76.144 167.852C76.144 168.719 75.9273 169.533 75.494 170.296C75.078 171.059 74.454 171.7 73.622 172.22C72.8073 172.74 71.8367 173.052 70.71 173.156V175.262H69.02V173.156C67.3907 173 66.0733 172.489 65.068 171.622C64.0627 170.755 63.56 169.611 63.56 168.19H66.732C66.784 168.866 67.0007 169.429 67.382 169.88C67.7633 170.313 68.3093 170.591 69.02 170.712V164.992C67.8587 164.697 66.914 164.403 66.186 164.108C65.458 163.796 64.834 163.311 64.314 162.652C63.8113 161.993 63.56 161.092 63.56 159.948C63.56 158.509 64.0627 157.322 65.068 156.386C66.0733 155.433 67.3907 154.878 69.02 154.722V152.616H70.71V154.722C72.2353 154.861 73.4573 155.346 74.376 156.178C75.312 156.993 75.8407 158.119 75.962 159.558H72.79C72.738 159.021 72.53 158.544 72.166 158.128C71.802 157.695 71.3167 157.4 70.71 157.244V162.86C71.8713 163.137 72.816 163.432 73.544 163.744C74.272 164.039 74.8873 164.515 75.39 165.174C75.8927 165.815 76.144 166.708 76.144 167.852ZM66.576 159.792C66.576 160.503 66.784 161.057 67.2 161.456C67.6333 161.855 68.24 162.175 69.02 162.418V157.166C68.2747 157.253 67.6767 157.521 67.226 157.972C66.7927 158.423 66.576 159.029 66.576 159.792ZM70.71 170.712C71.4727 170.591 72.0707 170.287 72.504 169.802C72.9373 169.299 73.154 168.701 73.154 168.008C73.154 167.315 72.9373 166.777 72.504 166.396C72.088 165.997 71.49 165.677 70.71 165.434V170.712ZM82.1082 168.97C83.7722 167.531 85.0808 166.353 86.0342 165.434C87.0048 164.498 87.8108 163.527 88.4522 162.522C89.0935 161.517 89.4142 160.511 89.4142 159.506C89.4142 158.466 89.1628 157.651 88.6602 157.062C88.1748 156.473 87.4035 156.178 86.3462 156.178C85.3235 156.178 84.5262 156.507 83.9542 157.166C83.3995 157.807 83.1048 158.674 83.0702 159.766H80.2102C80.2622 157.79 80.8515 156.282 81.9782 155.242C83.1222 154.185 84.5695 153.656 86.3202 153.656C88.2095 153.656 89.6828 154.176 90.7402 155.216C91.8148 156.256 92.3522 157.643 92.3522 159.376C92.3522 160.624 92.0315 161.829 91.3902 162.99C90.7662 164.134 90.0122 165.165 89.1282 166.084C88.2615 166.985 87.1522 168.034 85.8002 169.23L84.6302 170.27H92.8722V172.74H80.2362V170.582L82.1082 168.97ZM95.424 158.726C95.528 157.114 96.1433 155.857 97.27 154.956C98.414 154.055 99.87 153.604 101.638 153.604C102.851 153.604 103.9 153.821 104.784 154.254C105.668 154.687 106.335 155.277 106.786 156.022C107.237 156.767 107.462 157.608 107.462 158.544C107.462 159.619 107.176 160.537 106.604 161.3C106.032 162.063 105.347 162.574 104.55 162.834V162.938C105.573 163.25 106.37 163.822 106.942 164.654C107.514 165.469 107.8 166.517 107.8 167.8C107.8 168.823 107.566 169.733 107.098 170.53C106.63 171.327 105.937 171.96 105.018 172.428C104.099 172.879 102.999 173.104 101.716 173.104C99.844 173.104 98.3013 172.627 97.088 171.674C95.892 170.703 95.2507 169.317 95.164 167.514H98.024C98.0933 168.433 98.4487 169.187 99.09 169.776C99.7313 170.348 100.598 170.634 101.69 170.634C102.747 170.634 103.562 170.348 104.134 169.776C104.706 169.187 104.992 168.433 104.992 167.514C104.992 166.301 104.602 165.443 103.822 164.94C103.059 164.42 101.881 164.16 100.286 164.16H99.61V161.716H100.312C101.716 161.699 102.782 161.465 103.51 161.014C104.255 160.563 104.628 159.853 104.628 158.882C104.628 158.05 104.359 157.391 103.822 156.906C103.285 156.403 102.522 156.152 101.534 156.152C100.563 156.152 99.8093 156.403 99.272 156.906C98.7347 157.391 98.414 157.998 98.31 158.726H95.424ZM114.112 163.094C112.309 162.193 111.408 160.771 111.408 158.83C111.408 157.894 111.642 157.036 112.11 156.256C112.578 155.476 113.28 154.861 114.216 154.41C115.152 153.942 116.296 153.708 117.648 153.708C118.982 153.708 120.118 153.942 121.054 154.41C122.007 154.861 122.718 155.476 123.186 156.256C123.654 157.036 123.888 157.894 123.888 158.83C123.888 159.801 123.636 160.659 123.134 161.404C122.648 162.132 121.998 162.695 121.184 163.094C122.172 163.458 122.952 164.056 123.524 164.888C124.096 165.703 124.382 166.665 124.382 167.774C124.382 168.901 124.096 169.897 123.524 170.764C122.952 171.631 122.154 172.298 121.132 172.766C120.109 173.234 118.948 173.468 117.648 173.468C116.348 173.468 115.186 173.234 114.164 172.766C113.158 172.298 112.37 171.631 111.798 170.764C111.226 169.897 110.94 168.901 110.94 167.774C110.94 166.647 111.226 165.677 111.798 164.862C112.37 164.047 113.141 163.458 114.112 163.094ZM121.054 159.194C121.054 158.223 120.75 157.478 120.144 156.958C119.537 156.438 118.705 156.178 117.648 156.178C116.608 156.178 115.784 156.438 115.178 156.958C114.571 157.478 114.268 158.232 114.268 159.22C114.268 160.087 114.58 160.797 115.204 161.352C115.845 161.889 116.66 162.158 117.648 162.158C118.636 162.158 119.45 161.881 120.092 161.326C120.733 160.771 121.054 160.061 121.054 159.194ZM117.648 164.394C116.504 164.394 115.568 164.68 114.84 165.252C114.129 165.807 113.774 166.613 113.774 167.67C113.774 168.658 114.12 169.464 114.814 170.088C115.507 170.695 116.452 170.998 117.648 170.998C118.826 170.998 119.754 170.686 120.43 170.062C121.123 169.438 121.47 168.641 121.47 167.67C121.47 166.63 121.114 165.824 120.404 165.252C119.71 164.68 118.792 164.394 117.648 164.394ZM131.134 169.438L127.988 176.614H126.064L127.91 169.438H131.134ZM133.333 163.276C133.333 160.277 133.836 157.937 134.841 156.256C135.864 154.557 137.615 153.708 140.093 153.708C142.572 153.708 144.314 154.557 145.319 156.256C146.342 157.937 146.853 160.277 146.853 163.276C146.853 166.309 146.342 168.684 145.319 170.4C144.314 172.099 142.572 172.948 140.093 172.948C137.615 172.948 135.864 172.099 134.841 170.4C133.836 168.684 133.333 166.309 133.333 163.276ZM143.941 163.276C143.941 161.872 143.846 160.685 143.655 159.714C143.482 158.743 143.118 157.955 142.563 157.348C142.009 156.724 141.185 156.412 140.093 156.412C139.001 156.412 138.178 156.724 137.623 157.348C137.069 157.955 136.696 158.743 136.505 159.714C136.332 160.685 136.245 161.872 136.245 163.276C136.245 164.732 136.332 165.954 136.505 166.942C136.679 167.93 137.043 168.727 137.597 169.334C138.169 169.941 139.001 170.244 140.093 170.244C141.185 170.244 142.009 169.941 142.563 169.334C143.135 168.727 143.508 167.93 143.681 166.942C143.855 165.954 143.941 164.732 143.941 163.276ZM153.682 167.852C153.855 168.719 154.228 169.377 154.8 169.828C155.372 170.279 156.143 170.504 157.114 170.504C158.344 170.504 159.246 170.019 159.818 169.048C160.39 168.077 160.676 166.422 160.676 164.082C160.26 164.671 159.67 165.131 158.908 165.46C158.162 165.772 157.348 165.928 156.464 165.928C155.337 165.928 154.314 165.703 153.396 165.252C152.477 164.784 151.749 164.099 151.212 163.198C150.692 162.279 150.432 161.17 150.432 159.87C150.432 157.963 150.986 156.447 152.096 155.32C153.222 154.176 154.765 153.604 156.724 153.604C159.081 153.604 160.754 154.393 161.742 155.97C162.747 157.53 163.25 159.931 163.25 163.172C163.25 165.408 163.059 167.237 162.678 168.658C162.314 170.079 161.672 171.154 160.754 171.882C159.835 172.61 158.561 172.974 156.932 172.974C155.077 172.974 153.647 172.489 152.642 171.518C151.636 170.547 151.073 169.325 150.952 167.852H153.682ZM156.984 163.432C158.024 163.432 158.838 163.111 159.428 162.47C160.034 161.811 160.338 160.945 160.338 159.87C160.338 158.674 160.017 157.747 159.376 157.088C158.752 156.412 157.894 156.074 156.802 156.074C155.71 156.074 154.843 156.421 154.202 157.114C153.578 157.79 153.266 158.683 153.266 159.792C153.266 160.849 153.569 161.725 154.176 162.418C154.8 163.094 155.736 163.432 156.984 163.432ZM169.692 163.094C167.889 162.193 166.988 160.771 166.988 158.83C166.988 157.894 167.222 157.036 167.69 156.256C168.158 155.476 168.86 154.861 169.796 154.41C170.732 153.942 171.876 153.708 173.228 153.708C174.562 153.708 175.698 153.942 176.634 154.41C177.587 154.861 178.298 155.476 178.766 156.256C179.234 157.036 179.468 157.894 179.468 158.83C179.468 159.801 179.216 160.659 178.714 161.404C178.228 162.132 177.578 162.695 176.764 163.094C177.752 163.458 178.532 164.056 179.104 164.888C179.676 165.703 179.962 166.665 179.962 167.774C179.962 168.901 179.676 169.897 179.104 170.764C178.532 171.631 177.734 172.298 176.712 172.766C175.689 173.234 174.528 173.468 173.228 173.468C171.928 173.468 170.766 173.234 169.744 172.766C168.738 172.298 167.95 171.631 167.378 170.764C166.806 169.897 166.52 168.901 166.52 167.774C166.52 166.647 166.806 165.677 167.378 164.862C167.95 164.047 168.721 163.458 169.692 163.094ZM176.634 159.194C176.634 158.223 176.33 157.478 175.724 156.958C175.117 156.438 174.285 156.178 173.228 156.178C172.188 156.178 171.364 156.438 170.758 156.958C170.151 157.478 169.848 158.232 169.848 159.22C169.848 160.087 170.16 160.797 170.784 161.352C171.425 161.889 172.24 162.158 173.228 162.158C174.216 162.158 175.03 161.881 175.672 161.326C176.313 160.771 176.634 160.061 176.634 159.194ZM173.228 164.394C172.084 164.394 171.148 164.68 170.42 165.252C169.709 165.807 169.354 166.613 169.354 167.67C169.354 168.658 169.7 169.464 170.394 170.088C171.087 170.695 172.032 170.998 173.228 170.998C174.406 170.998 175.334 170.686 176.01 170.062C176.703 169.438 177.05 168.641 177.05 167.67C177.05 166.63 176.694 165.824 175.984 165.252C175.29 164.68 174.372 164.394 173.228 164.394Z" fill="#141414"/>
</svg>
