<svg width="347" height="127" viewBox="0 0 347 127" fill="none" xmlns="http://www.w3.org/2000/svg">
<rect width="161" height="127" rx="6" fill="#D8FCEC"/>
<rect x="39.5" y="19" width="89" height="36" rx="18" fill="#146BEB" fill-opacity="0.1"/>
<path d="M71.214 32.7142L64.014 39.9142L61.2711 35.7999L55.7854 41.2856" stroke="#163D2A" stroke-width="1.5" stroke-linecap="round" stroke-linejoin="round"/>
<path d="M67.7856 32.714H71.2142V36.1426" stroke="#163D2A" stroke-width="1.5" stroke-linecap="round" stroke-linejoin="round"/>
<path d="M81.62 34.724V32.228H85.688V41H82.892V34.724H81.62ZM86.629 38.876C87.701 38.076 88.549 37.352 89.173 36.704C89.797 36.048 90.109 35.436 90.109 34.868C90.109 34.676 90.065 34.528 89.977 34.424C89.897 34.32 89.789 34.268 89.653 34.268C89.493 34.268 89.365 34.352 89.269 34.52C89.181 34.68 89.149 34.928 89.173 35.264H86.593C86.617 34.52 86.777 33.908 87.073 33.428C87.377 32.948 87.769 32.596 88.249 32.372C88.729 32.148 89.257 32.036 89.833 32.036C90.857 32.036 91.605 32.284 92.077 32.78C92.557 33.268 92.797 33.896 92.797 34.664C92.797 35.472 92.537 36.232 92.017 36.944C91.505 37.648 90.861 38.244 90.085 38.732H92.833V40.88H86.629V38.876ZM96.5458 38.876L95.3098 42.44H93.6298L94.1938 38.876H96.5458ZM100.239 38.264C100.279 38.496 100.351 38.672 100.455 38.792C100.567 38.904 100.719 38.96 100.911 38.96C101.207 38.96 101.399 38.812 101.487 38.516C101.583 38.212 101.631 37.728 101.631 37.064C101.487 37.288 101.279 37.464 101.007 37.592C100.735 37.72 100.427 37.784 100.083 37.784C99.3234 37.784 98.7114 37.544 98.2474 37.064C97.7834 36.584 97.5514 35.892 97.5514 34.988C97.5514 34.388 97.6754 33.868 97.9234 33.428C98.1794 32.98 98.5394 32.636 99.0034 32.396C99.4754 32.156 100.023 32.036 100.647 32.036C101.911 32.036 102.787 32.408 103.275 33.152C103.771 33.896 104.019 34.956 104.019 36.332C104.019 37.916 103.775 39.104 103.287 39.896C102.807 40.688 101.995 41.084 100.851 41.084C100.219 41.084 99.6754 40.952 99.2194 40.688C98.7634 40.424 98.4114 40.08 98.1634 39.656C97.9234 39.224 97.7874 38.76 97.7554 38.264H100.239ZM100.743 35.744C100.959 35.744 101.131 35.684 101.259 35.564C101.387 35.444 101.451 35.276 101.451 35.06C101.451 34.82 101.387 34.644 101.259 34.532C101.139 34.412 100.967 34.352 100.743 34.352C100.519 34.352 100.343 34.412 100.215 34.532C100.095 34.644 100.035 34.82 100.035 35.06C100.035 35.276 100.099 35.444 100.227 35.564C100.355 35.684 100.527 35.744 100.743 35.744ZM104.604 34.52C104.604 33.816 104.804 33.28 105.204 32.912C105.604 32.536 106.128 32.348 106.776 32.348C107.416 32.348 107.932 32.536 108.324 32.912C108.724 33.28 108.924 33.816 108.924 34.52C108.924 35.224 108.724 35.76 108.324 36.128C107.932 36.496 107.416 36.68 106.776 36.68C106.128 36.68 105.604 36.496 105.204 36.128C104.804 35.76 104.604 35.224 104.604 34.52ZM113.496 32.468L109.02 41H106.476L110.952 32.468H113.496ZM106.752 33.896C106.48 33.896 106.344 34.104 106.344 34.52C106.344 34.928 106.48 35.132 106.752 35.132C106.896 35.132 107.004 35.08 107.076 34.976C107.156 34.872 107.196 34.72 107.196 34.52C107.196 34.312 107.156 34.156 107.076 34.052C107.004 33.948 106.896 33.896 106.752 33.896ZM111.048 38.948C111.048 38.244 111.248 37.708 111.648 37.34C112.048 36.964 112.568 36.776 113.208 36.776C113.856 36.776 114.376 36.964 114.768 37.34C115.16 37.708 115.356 38.244 115.356 38.948C115.356 39.652 115.16 40.192 114.768 40.568C114.376 40.936 113.856 41.12 113.208 41.12C112.568 41.12 112.048 40.936 111.648 40.568C111.248 40.192 111.048 39.652 111.048 38.948ZM113.196 38.324C112.916 38.324 112.776 38.532 112.776 38.948C112.776 39.364 112.916 39.572 113.196 39.572C113.332 39.572 113.436 39.52 113.508 39.416C113.588 39.312 113.628 39.156 113.628 38.948C113.628 38.748 113.588 38.596 113.508 38.492C113.436 38.38 113.332 38.324 113.196 38.324Z" fill="#163D2A"/>
<path d="M56.516 77.812C56.516 76.996 56.7 76.264 57.068 75.616C57.436 74.96 57.936 74.448 58.568 74.08C59.208 73.712 59.916 73.528 60.692 73.528C61.604 73.528 62.4 73.748 63.08 74.188C63.76 74.628 64.256 75.252 64.568 76.06H63.26C63.028 75.556 62.692 75.168 62.252 74.896C61.82 74.624 61.3 74.488 60.692 74.488C60.108 74.488 59.584 74.624 59.12 74.896C58.656 75.168 58.292 75.556 58.028 76.06C57.764 76.556 57.632 77.14 57.632 77.812C57.632 78.476 57.764 79.06 58.028 79.564C58.292 80.06 58.656 80.444 59.12 80.716C59.584 80.988 60.108 81.124 60.692 81.124C61.3 81.124 61.82 80.992 62.252 80.728C62.692 80.456 63.028 80.068 63.26 79.564H64.568C64.256 80.364 63.76 80.984 63.08 81.424C62.4 81.856 61.604 82.072 60.692 82.072C59.916 82.072 59.208 81.892 58.568 81.532C57.936 81.164 57.436 80.656 57.068 80.008C56.7 79.36 56.516 78.628 56.516 77.812ZM72.0255 75.424V82H70.9335V81.028C70.7255 81.364 70.4335 81.628 70.0575 81.82C69.6895 82.004 69.2815 82.096 68.8335 82.096C68.3215 82.096 67.8615 81.992 67.4535 81.784C67.0455 81.568 66.7215 81.248 66.4815 80.824C66.2495 80.4 66.1335 79.884 66.1335 79.276V75.424H67.2135V79.132C67.2135 79.78 67.3775 80.28 67.7055 80.632C68.0335 80.976 68.4815 81.148 69.0495 81.148C69.6335 81.148 70.0935 80.968 70.4295 80.608C70.7655 80.248 70.9335 79.724 70.9335 79.036V75.424H72.0255ZM74.9613 76.492C75.1533 76.116 75.4253 75.824 75.7773 75.616C76.1373 75.408 76.5733 75.304 77.0853 75.304V76.432H76.7973C75.5733 76.432 74.9613 77.096 74.9613 78.424V82H73.8693V75.424H74.9613V76.492ZM79.4379 76.492C79.6299 76.116 79.9019 75.824 80.2539 75.616C80.6139 75.408 81.0499 75.304 81.5619 75.304V76.432H81.2739C80.0499 76.432 79.4379 77.096 79.4379 78.424V82H78.3459V75.424H79.4379V76.492ZM88.8224 78.46C88.8224 78.668 88.8104 78.888 88.7864 79.12H83.5304C83.5704 79.768 83.7904 80.276 84.1904 80.644C84.5984 81.004 85.0904 81.184 85.6664 81.184C86.1384 81.184 86.5304 81.076 86.8424 80.86C87.1624 80.636 87.3864 80.34 87.5144 79.972H88.6904C88.5144 80.604 88.1624 81.12 87.6344 81.52C87.1064 81.912 86.4504 82.108 85.6664 82.108C85.0424 82.108 84.4824 81.968 83.9864 81.688C83.4984 81.408 83.1144 81.012 82.8344 80.5C82.5544 79.98 82.4144 79.38 82.4144 78.7C82.4144 78.02 82.5504 77.424 82.8224 76.912C83.0944 76.4 83.4744 76.008 83.9624 75.736C84.4584 75.456 85.0264 75.316 85.6664 75.316C86.2904 75.316 86.8424 75.452 87.3224 75.724C87.8024 75.996 88.1704 76.372 88.4264 76.852C88.6904 77.324 88.8224 77.86 88.8224 78.46ZM87.6944 78.232C87.6944 77.816 87.6024 77.46 87.4184 77.164C87.2344 76.86 86.9824 76.632 86.6624 76.48C86.3504 76.32 86.0024 76.24 85.6184 76.24C85.0664 76.24 84.5944 76.416 84.2024 76.768C83.8184 77.12 83.5984 77.608 83.5424 78.232H87.6944ZM93.4678 75.304C94.2678 75.304 94.9158 75.548 95.4118 76.036C95.9078 76.516 96.1558 77.212 96.1558 78.124V82H95.0758V78.28C95.0758 77.624 94.9118 77.124 94.5838 76.78C94.2558 76.428 93.8078 76.252 93.2398 76.252C92.6638 76.252 92.2038 76.432 91.8598 76.792C91.5238 77.152 91.3558 77.676 91.3558 78.364V82H90.2638V75.424H91.3558V76.36C91.5718 76.024 91.8638 75.764 92.2318 75.58C92.6078 75.396 93.0198 75.304 93.4678 75.304ZM97.5316 78.7C97.5316 78.02 97.6676 77.428 97.9396 76.924C98.2116 76.412 98.5876 76.016 99.0676 75.736C99.5556 75.456 100.112 75.316 100.736 75.316C101.544 75.316 102.208 75.512 102.728 75.904C103.256 76.296 103.604 76.84 103.772 77.536H102.596C102.484 77.136 102.264 76.82 101.936 76.588C101.616 76.356 101.216 76.24 100.736 76.24C100.112 76.24 99.6076 76.456 99.2236 76.888C98.8396 77.312 98.6476 77.916 98.6476 78.7C98.6476 79.492 98.8396 80.104 99.2236 80.536C99.6076 80.968 100.112 81.184 100.736 81.184C101.216 81.184 101.616 81.072 101.936 80.848C102.256 80.624 102.476 80.304 102.596 79.888H103.772C103.596 80.56 103.244 81.1 102.716 81.508C102.188 81.908 101.528 82.108 100.736 82.108C100.112 82.108 99.5556 81.968 99.0676 81.688C98.5876 81.408 98.2116 81.012 97.9396 80.5C97.6676 79.988 97.5316 79.388 97.5316 78.7ZM110.893 75.424L106.933 85.096H105.805L107.101 81.928L104.449 75.424H105.661L107.725 80.752L109.765 75.424H110.893Z" fill="#828282"/>
<path d="M34.738 101.088V106.674C34.738 107.131 34.836 107.495 35.032 107.766C35.2373 108.027 35.564 108.158 36.012 108.158C36.46 108.158 36.7913 108.027 37.006 107.766C37.2207 107.495 37.328 107.131 37.328 106.674V101.088H40.422V106.674C40.422 107.617 40.226 108.424 39.834 109.096C39.442 109.759 38.9053 110.258 38.224 110.594C37.5427 110.93 36.782 111.098 35.942 111.098C35.102 111.098 34.3553 110.93 33.702 110.594C33.058 110.258 32.554 109.759 32.19 109.096C31.826 108.433 31.644 107.626 31.644 106.674V101.088H34.738ZM45.6405 111.098C44.4552 111.098 43.4752 110.823 42.7005 110.272C41.9352 109.712 41.5198 108.895 41.4545 107.822H44.7585C44.8052 108.391 45.0572 108.676 45.5145 108.676C45.6825 108.676 45.8225 108.639 45.9345 108.564C46.0558 108.48 46.1165 108.354 46.1165 108.186C46.1165 107.953 45.9905 107.766 45.7385 107.626C45.4865 107.477 45.0945 107.309 44.5625 107.122C43.9278 106.898 43.4005 106.679 42.9805 106.464C42.5698 106.249 42.2152 105.937 41.9165 105.526C41.6178 105.115 41.4732 104.588 41.4825 103.944C41.4825 103.3 41.6458 102.754 41.9725 102.306C42.3085 101.849 42.7612 101.503 43.3305 101.27C43.9092 101.037 44.5578 100.92 45.2765 100.92C46.4898 100.92 47.4512 101.2 48.1605 101.76C48.8792 102.32 49.2572 103.109 49.2945 104.126H45.9485C45.9392 103.846 45.8692 103.645 45.7385 103.524C45.6078 103.403 45.4492 103.342 45.2625 103.342C45.1318 103.342 45.0245 103.389 44.9405 103.482C44.8565 103.566 44.8145 103.687 44.8145 103.846C44.8145 104.07 44.9358 104.257 45.1785 104.406C45.4305 104.546 45.8272 104.719 46.3685 104.924C46.9938 105.157 47.5072 105.381 47.9085 105.596C48.3192 105.811 48.6738 106.109 48.9725 106.492C49.2712 106.875 49.4205 107.355 49.4205 107.934C49.4205 108.541 49.2712 109.087 48.9725 109.572C48.6738 110.048 48.2398 110.421 47.6705 110.692C47.1012 110.963 46.4245 111.098 45.6405 111.098ZM54.6425 101.088C55.6785 101.088 56.5838 101.298 57.3585 101.718C58.1425 102.138 58.7445 102.721 59.1645 103.468C59.5845 104.215 59.7945 105.064 59.7945 106.016C59.7945 106.959 59.5845 107.808 59.1645 108.564C58.7445 109.32 58.1425 109.917 57.3585 110.356C56.5838 110.785 55.6785 111 54.6425 111H50.5125V101.088H54.6425ZM54.3625 108.228C55.0625 108.228 55.6178 108.037 56.0285 107.654C56.4392 107.271 56.6445 106.725 56.6445 106.016C56.6445 105.307 56.4392 104.761 56.0285 104.378C55.6178 103.995 55.0625 103.804 54.3625 103.804H53.6205V108.228H54.3625ZM68.7837 97.63L65.0737 113.772H62.0917L65.8157 97.63H68.7837ZM74.3044 101.088V106.674C74.3044 107.131 74.4024 107.495 74.5984 107.766C74.8037 108.027 75.1304 108.158 75.5784 108.158C76.0264 108.158 76.3577 108.027 76.5724 107.766C76.7871 107.495 76.8944 107.131 76.8944 106.674V101.088H79.9884V106.674C79.9884 107.617 79.7924 108.424 79.4004 109.096C79.0084 109.759 78.4717 110.258 77.7904 110.594C77.1091 110.93 76.3484 111.098 75.5084 111.098C74.6684 111.098 73.9217 110.93 73.2684 110.594C72.6244 110.258 72.1204 109.759 71.7564 109.096C71.3924 108.433 71.2104 107.626 71.2104 106.674V101.088H74.3044ZM85.2069 111.098C84.0216 111.098 83.0416 110.823 82.2669 110.272C81.5016 109.712 81.0862 108.895 81.0209 107.822H84.3249C84.3716 108.391 84.6236 108.676 85.0809 108.676C85.2489 108.676 85.3889 108.639 85.5009 108.564C85.6222 108.48 85.6829 108.354 85.6829 108.186C85.6829 107.953 85.5569 107.766 85.3049 107.626C85.0529 107.477 84.6609 107.309 84.1289 107.122C83.4942 106.898 82.9669 106.679 82.5469 106.464C82.1362 106.249 81.7816 105.937 81.4829 105.526C81.1842 105.115 81.0396 104.588 81.0489 103.944C81.0489 103.3 81.2122 102.754 81.5389 102.306C81.8749 101.849 82.3276 101.503 82.8969 101.27C83.4756 101.037 84.1242 100.92 84.8429 100.92C86.0562 100.92 87.0176 101.2 87.7269 101.76C88.4456 102.32 88.8236 103.109 88.8609 104.126H85.5149C85.5056 103.846 85.4356 103.645 85.3049 103.524C85.1742 103.403 85.0156 103.342 84.8289 103.342C84.6982 103.342 84.5909 103.389 84.5069 103.482C84.4229 103.566 84.3809 103.687 84.3809 103.846C84.3809 104.07 84.5022 104.257 84.7449 104.406C84.9969 104.546 85.3936 104.719 85.9349 104.924C86.5602 105.157 87.0736 105.381 87.4749 105.596C87.8856 105.811 88.2402 106.109 88.5389 106.492C88.8376 106.875 88.9869 107.355 88.9869 107.934C88.9869 108.541 88.8376 109.087 88.5389 109.572C88.2402 110.048 87.8062 110.421 87.2369 110.692C86.6676 110.963 85.9909 111.098 85.2069 111.098ZM96.5878 101.088C97.6238 101.088 98.5291 101.298 99.3038 101.718C100.088 102.138 100.69 102.721 101.11 103.468C101.53 104.215 101.74 105.064 101.74 106.016C101.74 106.959 101.53 107.808 101.11 108.564C100.69 109.32 100.088 109.917 99.3038 110.356C98.5291 110.785 97.6238 111 96.5878 111H92.4578V101.088H96.5878ZM96.3078 108.228C97.0078 108.228 97.5631 108.037 97.9738 107.654C98.3845 107.271 98.5898 106.725 98.5898 106.016C98.5898 105.307 98.3845 104.761 97.9738 104.378C97.5631 103.995 97.0078 103.804 96.3078 103.804H95.5658V108.228H96.3078ZM106.614 111.098C105.821 111.098 105.107 110.935 104.472 110.608C103.837 110.281 103.338 109.815 102.974 109.208C102.619 108.592 102.442 107.873 102.442 107.052C102.442 106.231 102.619 105.517 102.974 104.91C103.338 104.294 103.837 103.823 104.472 103.496C105.107 103.169 105.821 103.006 106.614 103.006C107.407 103.006 108.121 103.169 108.756 103.496C109.391 103.823 109.885 104.294 110.24 104.91C110.604 105.517 110.786 106.231 110.786 107.052C110.786 107.873 110.604 108.592 110.24 109.208C109.885 109.815 109.391 110.281 108.756 110.608C108.121 110.935 107.407 111.098 106.614 111.098ZM106.614 108.41C106.903 108.41 107.146 108.298 107.342 108.074C107.538 107.841 107.636 107.5 107.636 107.052C107.636 106.604 107.538 106.268 107.342 106.044C107.146 105.811 106.903 105.694 106.614 105.694C106.325 105.694 106.082 105.811 105.886 106.044C105.69 106.268 105.592 106.604 105.592 107.052C105.592 107.5 105.685 107.841 105.872 108.074C106.068 108.298 106.315 108.41 106.614 108.41ZM114.87 100.64V111H111.762V100.64H114.87ZM119.382 100.64V111H116.274V100.64H119.382ZM120.366 107.052C120.366 106.221 120.506 105.503 120.786 104.896C121.075 104.28 121.467 103.813 121.962 103.496C122.457 103.169 123.012 103.006 123.628 103.006C124.141 103.006 124.585 103.113 124.958 103.328C125.331 103.533 125.616 103.818 125.812 104.182V103.104H128.906V111H125.812V109.922C125.616 110.286 125.331 110.575 124.958 110.79C124.585 110.995 124.141 111.098 123.628 111.098C123.012 111.098 122.457 110.939 121.962 110.622C121.467 110.295 121.075 109.829 120.786 109.222C120.506 108.606 120.366 107.883 120.366 107.052ZM125.812 107.052C125.812 106.632 125.705 106.305 125.49 106.072C125.275 105.839 125 105.722 124.664 105.722C124.328 105.722 124.053 105.839 123.838 106.072C123.623 106.305 123.516 106.632 123.516 107.052C123.516 107.472 123.623 107.799 123.838 108.032C124.053 108.265 124.328 108.382 124.664 108.382C125 108.382 125.275 108.265 125.49 108.032C125.705 107.799 125.812 107.472 125.812 107.052ZM133.41 104.56C133.727 104.103 134.114 103.739 134.572 103.468C135.029 103.188 135.505 103.048 136 103.048V106.366H135.118C134.53 106.366 134.096 106.469 133.816 106.674C133.545 106.879 133.41 107.243 133.41 107.766V111H130.302V103.104H133.41V104.56Z" fill="#262626"/>
<rect x="186" width="161" height="127" rx="6" fill="#D8FCEC"/>
<rect x="223" y="19" width="89" height="36" rx="18" fill="#F15769" fill-opacity="0.1"/>
<path d="M254.714 41.2858L247.514 34.0858L244.771 38.2001L239.285 32.7144" stroke="#EA85A3" stroke-width="1.5" stroke-linecap="round" stroke-linejoin="round"/>
<path d="M251.285 41.286H254.714V37.8574" stroke="#EA85A3" stroke-width="1.5" stroke-linecap="round" stroke-linejoin="round"/>
<path d="M265.12 34.724V32.228H269.188V41H266.392V34.724H265.12ZM270.129 38.876C271.201 38.076 272.049 37.352 272.673 36.704C273.297 36.048 273.609 35.436 273.609 34.868C273.609 34.676 273.565 34.528 273.477 34.424C273.397 34.32 273.289 34.268 273.153 34.268C272.993 34.268 272.865 34.352 272.769 34.52C272.681 34.68 272.649 34.928 272.673 35.264H270.093C270.117 34.52 270.277 33.908 270.573 33.428C270.877 32.948 271.269 32.596 271.749 32.372C272.229 32.148 272.757 32.036 273.333 32.036C274.357 32.036 275.105 32.284 275.577 32.78C276.057 33.268 276.297 33.896 276.297 34.664C276.297 35.472 276.037 36.232 275.517 36.944C275.005 37.648 274.361 38.244 273.585 38.732H276.333V40.88H270.129V38.876ZM280.046 38.876L278.81 42.44H277.13L277.694 38.876H280.046ZM283.739 38.264C283.779 38.496 283.851 38.672 283.955 38.792C284.067 38.904 284.219 38.96 284.411 38.96C284.707 38.96 284.899 38.812 284.987 38.516C285.083 38.212 285.131 37.728 285.131 37.064C284.987 37.288 284.779 37.464 284.507 37.592C284.235 37.72 283.927 37.784 283.583 37.784C282.823 37.784 282.211 37.544 281.747 37.064C281.283 36.584 281.051 35.892 281.051 34.988C281.051 34.388 281.175 33.868 281.423 33.428C281.679 32.98 282.039 32.636 282.503 32.396C282.975 32.156 283.523 32.036 284.147 32.036C285.411 32.036 286.287 32.408 286.775 33.152C287.271 33.896 287.519 34.956 287.519 36.332C287.519 37.916 287.275 39.104 286.787 39.896C286.307 40.688 285.495 41.084 284.351 41.084C283.719 41.084 283.175 40.952 282.719 40.688C282.263 40.424 281.911 40.08 281.663 39.656C281.423 39.224 281.287 38.76 281.255 38.264H283.739ZM284.243 35.744C284.459 35.744 284.631 35.684 284.759 35.564C284.887 35.444 284.951 35.276 284.951 35.06C284.951 34.82 284.887 34.644 284.759 34.532C284.639 34.412 284.467 34.352 284.243 34.352C284.019 34.352 283.843 34.412 283.715 34.532C283.595 34.644 283.535 34.82 283.535 35.06C283.535 35.276 283.599 35.444 283.727 35.564C283.855 35.684 284.027 35.744 284.243 35.744ZM288.104 34.52C288.104 33.816 288.304 33.28 288.704 32.912C289.104 32.536 289.628 32.348 290.276 32.348C290.916 32.348 291.432 32.536 291.824 32.912C292.224 33.28 292.424 33.816 292.424 34.52C292.424 35.224 292.224 35.76 291.824 36.128C291.432 36.496 290.916 36.68 290.276 36.68C289.628 36.68 289.104 36.496 288.704 36.128C288.304 35.76 288.104 35.224 288.104 34.52ZM296.996 32.468L292.52 41H289.976L294.452 32.468H296.996ZM290.252 33.896C289.98 33.896 289.844 34.104 289.844 34.52C289.844 34.928 289.98 35.132 290.252 35.132C290.396 35.132 290.504 35.08 290.576 34.976C290.656 34.872 290.696 34.72 290.696 34.52C290.696 34.312 290.656 34.156 290.576 34.052C290.504 33.948 290.396 33.896 290.252 33.896ZM294.548 38.948C294.548 38.244 294.748 37.708 295.148 37.34C295.548 36.964 296.068 36.776 296.708 36.776C297.356 36.776 297.876 36.964 298.268 37.34C298.66 37.708 298.856 38.244 298.856 38.948C298.856 39.652 298.66 40.192 298.268 40.568C297.876 40.936 297.356 41.12 296.708 41.12C296.068 41.12 295.548 40.936 295.148 40.568C294.748 40.192 294.548 39.652 294.548 38.948ZM296.696 38.324C296.416 38.324 296.276 38.532 296.276 38.948C296.276 39.364 296.416 39.572 296.696 39.572C296.832 39.572 296.936 39.52 297.008 39.416C297.088 39.312 297.128 39.156 297.128 38.948C297.128 38.748 297.088 38.596 297.008 38.492C296.936 38.38 296.832 38.324 296.696 38.324Z" fill="#EA85A3"/>
<path d="M234.78 73.636L232.056 78.844V82H230.964V78.844L228.228 73.636H229.44L231.504 77.872L233.568 73.636H234.78ZM238.8 82.108C238.184 82.108 237.624 81.968 237.12 81.688C236.624 81.408 236.232 81.012 235.944 80.5C235.664 79.98 235.524 79.38 235.524 78.7C235.524 78.028 235.668 77.436 235.956 76.924C236.252 76.404 236.652 76.008 237.156 75.736C237.66 75.456 238.224 75.316 238.848 75.316C239.472 75.316 240.036 75.456 240.54 75.736C241.044 76.008 241.44 76.4 241.728 76.912C242.024 77.424 242.172 78.02 242.172 78.7C242.172 79.38 242.02 79.98 241.716 80.5C241.42 81.012 241.016 81.408 240.504 81.688C239.992 81.968 239.424 82.108 238.8 82.108ZM238.8 81.148C239.192 81.148 239.56 81.056 239.904 80.872C240.248 80.688 240.524 80.412 240.732 80.044C240.948 79.676 241.056 79.228 241.056 78.7C241.056 78.172 240.952 77.724 240.744 77.356C240.536 76.988 240.264 76.716 239.928 76.54C239.592 76.356 239.228 76.264 238.836 76.264C238.436 76.264 238.068 76.356 237.732 76.54C237.404 76.716 237.14 76.988 236.94 77.356C236.74 77.724 236.64 78.172 236.64 78.7C236.64 79.236 236.736 79.688 236.928 80.056C237.128 80.424 237.392 80.7 237.72 80.884C238.048 81.06 238.408 81.148 238.8 81.148ZM249.44 75.424V82H248.348V81.028C248.14 81.364 247.848 81.628 247.472 81.82C247.104 82.004 246.696 82.096 246.248 82.096C245.736 82.096 245.276 81.992 244.868 81.784C244.46 81.568 244.136 81.248 243.896 80.824C243.664 80.4 243.548 79.884 243.548 79.276V75.424H244.628V79.132C244.628 79.78 244.792 80.28 245.12 80.632C245.448 80.976 245.896 81.148 246.464 81.148C247.048 81.148 247.508 80.968 247.844 80.608C248.18 80.248 248.348 79.724 248.348 79.036V75.424H249.44ZM252.375 76.492C252.567 76.116 252.839 75.824 253.191 75.616C253.551 75.408 253.987 75.304 254.499 75.304V76.432H254.211C252.987 76.432 252.375 77.096 252.375 78.424V82H251.283V75.424H252.375V76.492ZM263.147 77.692C263.451 77.74 263.727 77.864 263.975 78.064C264.231 78.264 264.431 78.512 264.575 78.808C264.727 79.104 264.803 79.42 264.803 79.756C264.803 80.18 264.695 80.564 264.479 80.908C264.263 81.244 263.947 81.512 263.531 81.712C263.123 81.904 262.639 82 262.079 82H258.959V73.636H261.959C262.527 73.636 263.011 73.732 263.411 73.924C263.811 74.108 264.111 74.36 264.311 74.68C264.511 75 264.611 75.36 264.611 75.76C264.611 76.256 264.475 76.668 264.203 76.996C263.939 77.316 263.587 77.548 263.147 77.692ZM260.051 77.248H261.887C262.399 77.248 262.795 77.128 263.075 76.888C263.355 76.648 263.495 76.316 263.495 75.892C263.495 75.468 263.355 75.136 263.075 74.896C262.795 74.656 262.391 74.536 261.863 74.536H260.051V77.248ZM261.983 81.1C262.527 81.1 262.951 80.972 263.255 80.716C263.559 80.46 263.711 80.104 263.711 79.648C263.711 79.184 263.551 78.82 263.231 78.556C262.911 78.284 262.483 78.148 261.947 78.148H260.051V81.1H261.983ZM265.911 78.688C265.911 78.016 266.047 77.428 266.319 76.924C266.591 76.412 266.963 76.016 267.435 75.736C267.915 75.456 268.447 75.316 269.031 75.316C269.607 75.316 270.107 75.44 270.531 75.688C270.955 75.936 271.271 76.248 271.479 76.624V75.424H272.583V82H271.479V80.776C271.263 81.16 270.939 81.48 270.507 81.736C270.083 81.984 269.587 82.108 269.019 82.108C268.435 82.108 267.907 81.964 267.435 81.676C266.963 81.388 266.591 80.984 266.319 80.464C266.047 79.944 265.911 79.352 265.911 78.688ZM271.479 78.7C271.479 78.204 271.379 77.772 271.179 77.404C270.979 77.036 270.707 76.756 270.363 76.564C270.027 76.364 269.655 76.264 269.247 76.264C268.839 76.264 268.467 76.36 268.131 76.552C267.795 76.744 267.527 77.024 267.327 77.392C267.127 77.76 267.027 78.192 267.027 78.688C267.027 79.192 267.127 79.632 267.327 80.008C267.527 80.376 267.795 80.66 268.131 80.86C268.467 81.052 268.839 81.148 269.247 81.148C269.655 81.148 270.027 81.052 270.363 80.86C270.707 80.66 270.979 80.376 271.179 80.008C271.379 79.632 271.479 79.196 271.479 78.7ZM275.52 73.12V82H274.428V73.12H275.52ZM276.973 78.688C276.973 78.016 277.109 77.428 277.381 76.924C277.653 76.412 278.025 76.016 278.497 75.736C278.977 75.456 279.509 75.316 280.093 75.316C280.669 75.316 281.169 75.44 281.593 75.688C282.017 75.936 282.333 76.248 282.541 76.624V75.424H283.645V82H282.541V80.776C282.325 81.16 282.001 81.48 281.569 81.736C281.145 81.984 280.649 82.108 280.081 82.108C279.497 82.108 278.969 81.964 278.497 81.676C278.025 81.388 277.653 80.984 277.381 80.464C277.109 79.944 276.973 79.352 276.973 78.688ZM282.541 78.7C282.541 78.204 282.441 77.772 282.241 77.404C282.041 77.036 281.769 76.756 281.425 76.564C281.089 76.364 280.717 76.264 280.309 76.264C279.901 76.264 279.529 76.36 279.193 76.552C278.857 76.744 278.589 77.024 278.389 77.392C278.189 77.76 278.089 78.192 278.089 78.688C278.089 79.192 278.189 79.632 278.389 80.008C278.589 80.376 278.857 80.66 279.193 80.86C279.529 81.052 279.901 81.148 280.309 81.148C280.717 81.148 281.089 81.052 281.425 80.86C281.769 80.66 282.041 80.376 282.241 80.008C282.441 79.632 282.541 79.196 282.541 78.7ZM288.694 75.304C289.494 75.304 290.142 75.548 290.638 76.036C291.134 76.516 291.382 77.212 291.382 78.124V82H290.302V78.28C290.302 77.624 290.138 77.124 289.81 76.78C289.482 76.428 289.034 76.252 288.466 76.252C287.89 76.252 287.43 76.432 287.086 76.792C286.75 77.152 286.582 77.676 286.582 78.364V82H285.49V75.424H286.582V76.36C286.798 76.024 287.09 75.764 287.458 75.58C287.834 75.396 288.246 75.304 288.694 75.304ZM292.758 78.7C292.758 78.02 292.894 77.428 293.166 76.924C293.438 76.412 293.814 76.016 294.294 75.736C294.782 75.456 295.338 75.316 295.962 75.316C296.77 75.316 297.434 75.512 297.954 75.904C298.482 76.296 298.83 76.84 298.998 77.536H297.822C297.71 77.136 297.49 76.82 297.162 76.588C296.842 76.356 296.442 76.24 295.962 76.24C295.338 76.24 294.834 76.456 294.45 76.888C294.066 77.312 293.874 77.916 293.874 78.7C293.874 79.492 294.066 80.104 294.45 80.536C294.834 80.968 295.338 81.184 295.962 81.184C296.442 81.184 296.842 81.072 297.162 80.848C297.482 80.624 297.702 80.304 297.822 79.888H298.998C298.822 80.56 298.47 81.1 297.942 81.508C297.414 81.908 296.754 82.108 295.962 82.108C295.338 82.108 294.782 81.968 294.294 81.688C293.814 81.408 293.438 81.012 293.166 80.5C292.894 79.988 292.758 79.388 292.758 78.7ZM306.455 78.46C306.455 78.668 306.443 78.888 306.419 79.12H301.163C301.203 79.768 301.423 80.276 301.823 80.644C302.231 81.004 302.723 81.184 303.299 81.184C303.771 81.184 304.163 81.076 304.475 80.86C304.795 80.636 305.019 80.34 305.147 79.972H306.323C306.147 80.604 305.795 81.12 305.267 81.52C304.739 81.912 304.083 82.108 303.299 82.108C302.675 82.108 302.115 81.968 301.619 81.688C301.131 81.408 300.747 81.012 300.467 80.5C300.187 79.98 300.047 79.38 300.047 78.7C300.047 78.02 300.183 77.424 300.455 76.912C300.727 76.4 301.107 76.008 301.595 75.736C302.091 75.456 302.659 75.316 303.299 75.316C303.923 75.316 304.475 75.452 304.955 75.724C305.435 75.996 305.803 76.372 306.059 76.852C306.323 77.324 306.455 77.86 306.455 78.46ZM305.327 78.232C305.327 77.816 305.235 77.46 305.051 77.164C304.867 76.86 304.615 76.632 304.295 76.48C303.983 76.32 303.635 76.24 303.251 76.24C302.699 76.24 302.227 76.416 301.835 76.768C301.451 77.12 301.231 77.608 301.175 78.232H305.327Z" fill="#828282"/>
<path d="M234.302 108.144C234.302 108.657 234.167 109.133 233.896 109.572C233.635 110.001 233.243 110.356 232.72 110.636C232.207 110.907 231.595 111.056 230.886 111.084V112.218H229.99V111.07C229.001 110.986 228.203 110.692 227.596 110.188C226.989 109.675 226.667 108.979 226.63 108.102H229.178C229.234 108.662 229.505 109.021 229.99 109.18V106.968C229.262 106.781 228.679 106.599 228.24 106.422C227.811 106.245 227.433 105.96 227.106 105.568C226.779 105.176 226.616 104.639 226.616 103.958C226.616 103.109 226.929 102.427 227.554 101.914C228.189 101.401 229.001 101.111 229.99 101.046V99.912H230.886V101.046C231.866 101.121 232.641 101.405 233.21 101.9C233.779 102.395 234.097 103.081 234.162 103.958H231.6C231.544 103.454 231.306 103.127 230.886 102.978V105.148C231.661 105.363 232.258 105.554 232.678 105.722C233.098 105.89 233.471 106.17 233.798 106.562C234.134 106.945 234.302 107.472 234.302 108.144ZM229.15 103.846C229.15 104.079 229.22 104.275 229.36 104.434C229.509 104.593 229.719 104.733 229.99 104.854V102.908C229.729 102.955 229.523 103.057 229.374 103.216C229.225 103.365 229.15 103.575 229.15 103.846ZM230.886 109.222C231.166 109.175 231.385 109.063 231.544 108.886C231.712 108.709 231.796 108.489 231.796 108.228C231.796 107.985 231.717 107.789 231.558 107.64C231.409 107.481 231.185 107.346 230.886 107.234V109.222ZM235.761 109.082C236.078 108.83 236.223 108.713 236.195 108.732C237.11 107.976 237.828 107.355 238.351 106.87C238.883 106.385 239.331 105.876 239.695 105.344C240.059 104.812 240.241 104.294 240.241 103.79C240.241 103.407 240.152 103.109 239.975 102.894C239.798 102.679 239.532 102.572 239.177 102.572C238.822 102.572 238.542 102.707 238.337 102.978C238.141 103.239 238.043 103.613 238.043 104.098H235.733C235.752 103.305 235.92 102.642 236.237 102.11C236.564 101.578 236.988 101.186 237.511 100.934C238.043 100.682 238.631 100.556 239.275 100.556C240.386 100.556 241.221 100.841 241.781 101.41C242.35 101.979 242.635 102.721 242.635 103.636C242.635 104.635 242.294 105.563 241.613 106.422C240.932 107.271 240.064 108.102 239.009 108.914H242.789V110.86H235.761V109.082ZM246.419 108.004C246.559 108.741 246.988 109.11 247.707 109.11C248.202 109.11 248.552 108.891 248.757 108.452C248.962 108.013 249.065 107.299 249.065 106.31C248.86 106.599 248.58 106.823 248.225 106.982C247.87 107.141 247.474 107.22 247.035 107.22C246.438 107.22 245.906 107.099 245.439 106.856C244.972 106.604 244.604 106.235 244.333 105.75C244.072 105.255 243.941 104.658 243.941 103.958C243.941 103.267 244.081 102.665 244.361 102.152C244.65 101.639 245.056 101.242 245.579 100.962C246.111 100.682 246.736 100.542 247.455 100.542C248.836 100.542 249.802 100.971 250.353 101.83C250.904 102.689 251.179 103.953 251.179 105.624C251.179 106.837 251.067 107.841 250.843 108.634C250.628 109.418 250.26 110.015 249.737 110.426C249.224 110.837 248.519 111.042 247.623 111.042C246.914 111.042 246.307 110.902 245.803 110.622C245.308 110.342 244.926 109.973 244.655 109.516C244.394 109.059 244.244 108.555 244.207 108.004H246.419ZM247.581 105.33C247.973 105.33 248.286 105.213 248.519 104.98C248.752 104.737 248.869 104.411 248.869 104C248.869 103.552 248.748 103.207 248.505 102.964C248.262 102.721 247.936 102.6 247.525 102.6C247.114 102.6 246.788 102.726 246.545 102.978C246.312 103.221 246.195 103.557 246.195 103.986C246.195 104.387 246.312 104.714 246.545 104.966C246.788 105.209 247.133 105.33 247.581 105.33ZM254.136 105.512C253.259 105.045 252.82 104.313 252.82 103.314C252.82 102.81 252.951 102.353 253.212 101.942C253.474 101.522 253.87 101.191 254.402 100.948C254.934 100.696 255.588 100.57 256.362 100.57C257.137 100.57 257.786 100.696 258.308 100.948C258.84 101.191 259.237 101.522 259.498 101.942C259.76 102.353 259.89 102.81 259.89 103.314C259.89 103.818 259.769 104.257 259.526 104.63C259.293 105.003 258.976 105.297 258.574 105.512C259.078 105.755 259.466 106.091 259.736 106.52C260.007 106.94 260.142 107.435 260.142 108.004C260.142 108.667 259.974 109.241 259.638 109.726C259.302 110.202 258.845 110.566 258.266 110.818C257.697 111.07 257.062 111.196 256.362 111.196C255.662 111.196 255.023 111.07 254.444 110.818C253.875 110.566 253.422 110.202 253.086 109.726C252.75 109.241 252.582 108.667 252.582 108.004C252.582 107.425 252.718 106.926 252.988 106.506C253.259 106.077 253.642 105.745 254.136 105.512ZM257.566 103.678C257.566 103.295 257.454 103.001 257.23 102.796C257.016 102.581 256.726 102.474 256.362 102.474C255.998 102.474 255.704 102.581 255.48 102.796C255.266 103.011 255.158 103.309 255.158 103.692C255.158 104.056 255.27 104.345 255.494 104.56C255.718 104.765 256.008 104.868 256.362 104.868C256.717 104.868 257.006 104.761 257.23 104.546C257.454 104.331 257.566 104.042 257.566 103.678ZM256.362 106.548C255.924 106.548 255.569 106.669 255.298 106.912C255.028 107.145 254.892 107.472 254.892 107.892C254.892 108.284 255.023 108.606 255.284 108.858C255.555 109.11 255.914 109.236 256.362 109.236C256.81 109.236 257.16 109.11 257.412 108.858C257.674 108.606 257.804 108.284 257.804 107.892C257.804 107.481 257.669 107.155 257.398 106.912C257.137 106.669 256.792 106.548 256.362 106.548ZM264.348 108.788L262.794 112.806H261.268L262.08 108.788H264.348ZM265.554 105.75C265.554 104.145 265.862 102.88 266.478 101.956C267.103 101.032 268.106 100.57 269.488 100.57C270.869 100.57 271.868 101.032 272.484 101.956C273.109 102.88 273.422 104.145 273.422 105.75C273.422 107.374 273.109 108.648 272.484 109.572C271.868 110.496 270.869 110.958 269.488 110.958C268.106 110.958 267.103 110.496 266.478 109.572C265.862 108.648 265.554 107.374 265.554 105.75ZM271.07 105.75C271.07 104.807 270.967 104.084 270.762 103.58C270.556 103.067 270.132 102.81 269.488 102.81C268.844 102.81 268.419 103.067 268.214 103.58C268.008 104.084 267.906 104.807 267.906 105.75C267.906 106.385 267.943 106.912 268.018 107.332C268.092 107.743 268.242 108.079 268.466 108.34C268.699 108.592 269.04 108.718 269.488 108.718C269.936 108.718 270.272 108.592 270.496 108.34C270.729 108.079 270.883 107.743 270.958 107.332C271.032 106.912 271.07 106.385 271.07 105.75ZM277.263 108.004C277.403 108.741 277.832 109.11 278.551 109.11C279.045 109.11 279.395 108.891 279.601 108.452C279.806 108.013 279.909 107.299 279.909 106.31C279.703 106.599 279.423 106.823 279.069 106.982C278.714 107.141 278.317 107.22 277.879 107.22C277.281 107.22 276.749 107.099 276.283 106.856C275.816 106.604 275.447 106.235 275.177 105.75C274.915 105.255 274.785 104.658 274.785 103.958C274.785 103.267 274.925 102.665 275.205 102.152C275.494 101.639 275.9 101.242 276.423 100.962C276.955 100.682 277.58 100.542 278.299 100.542C279.68 100.542 280.646 100.971 281.197 101.83C281.747 102.689 282.023 103.953 282.023 105.624C282.023 106.837 281.911 107.841 281.687 108.634C281.472 109.418 281.103 110.015 280.581 110.426C280.067 110.837 279.363 111.042 278.467 111.042C277.757 111.042 277.151 110.902 276.647 110.622C276.152 110.342 275.769 109.973 275.499 109.516C275.237 109.059 275.088 108.555 275.051 108.004H277.263ZM278.425 105.33C278.817 105.33 279.129 105.213 279.363 104.98C279.596 104.737 279.713 104.411 279.713 104C279.713 103.552 279.591 103.207 279.349 102.964C279.106 102.721 278.779 102.6 278.369 102.6C277.958 102.6 277.631 102.726 277.389 102.978C277.155 103.221 277.039 103.557 277.039 103.986C277.039 104.387 277.155 104.714 277.389 104.966C277.631 105.209 277.977 105.33 278.425 105.33ZM284.98 105.512C284.103 105.045 283.664 104.313 283.664 103.314C283.664 102.81 283.795 102.353 284.056 101.942C284.317 101.522 284.714 101.191 285.246 100.948C285.778 100.696 286.431 100.57 287.206 100.57C287.981 100.57 288.629 100.696 289.152 100.948C289.684 101.191 290.081 101.522 290.342 101.942C290.603 102.353 290.734 102.81 290.734 103.314C290.734 103.818 290.613 104.257 290.37 104.63C290.137 105.003 289.819 105.297 289.418 105.512C289.922 105.755 290.309 106.091 290.58 106.52C290.851 106.94 290.986 107.435 290.986 108.004C290.986 108.667 290.818 109.241 290.482 109.726C290.146 110.202 289.689 110.566 289.11 110.818C288.541 111.07 287.906 111.196 287.206 111.196C286.506 111.196 285.867 111.07 285.288 110.818C284.719 110.566 284.266 110.202 283.93 109.726C283.594 109.241 283.426 108.667 283.426 108.004C283.426 107.425 283.561 106.926 283.832 106.506C284.103 106.077 284.485 105.745 284.98 105.512ZM288.41 103.678C288.41 103.295 288.298 103.001 288.074 102.796C287.859 102.581 287.57 102.474 287.206 102.474C286.842 102.474 286.548 102.581 286.324 102.796C286.109 103.011 286.002 103.309 286.002 103.692C286.002 104.056 286.114 104.345 286.338 104.56C286.562 104.765 286.851 104.868 287.206 104.868C287.561 104.868 287.85 104.761 288.074 104.546C288.298 104.331 288.41 104.042 288.41 103.678ZM287.206 106.548C286.767 106.548 286.413 106.669 286.142 106.912C285.871 107.145 285.736 107.472 285.736 107.892C285.736 108.284 285.867 108.606 286.128 108.858C286.399 109.11 286.758 109.236 287.206 109.236C287.654 109.236 288.004 109.11 288.256 108.858C288.517 108.606 288.648 108.284 288.648 107.892C288.648 107.481 288.513 107.155 288.242 106.912C287.981 106.669 287.635 106.548 287.206 106.548ZM293.348 111.08C292.961 111.08 292.651 110.977 292.418 110.77C292.185 110.563 292.068 110.303 292.068 109.99C292.068 109.67 292.185 109.407 292.418 109.2C292.651 108.987 292.961 108.88 293.348 108.88C293.728 108.88 294.035 108.987 294.268 109.2C294.501 109.407 294.618 109.67 294.618 109.99C294.618 110.303 294.501 110.563 294.268 110.77C294.035 110.977 293.728 111.08 293.348 111.08ZM295.261 107.24C295.261 106.087 295.505 105.18 295.991 104.52C296.485 103.86 297.241 103.53 298.261 103.53C299.275 103.53 300.028 103.863 300.521 104.53C301.015 105.19 301.261 106.093 301.261 107.24C301.261 108.393 301.015 109.303 300.521 109.97C300.028 110.63 299.275 110.96 298.261 110.96C297.241 110.96 296.485 110.63 295.991 109.97C295.505 109.303 295.261 108.393 295.261 107.24ZM299.071 107.24C299.071 106.707 299.018 106.307 298.911 106.04C298.805 105.767 298.588 105.63 298.261 105.63C297.928 105.63 297.708 105.767 297.601 106.04C297.495 106.307 297.441 106.707 297.441 107.24C297.441 107.78 297.495 108.187 297.601 108.46C297.708 108.727 297.928 108.86 298.261 108.86C298.588 108.86 298.805 108.727 298.911 108.46C299.018 108.187 299.071 107.78 299.071 107.24ZM301.882 107.24C301.882 106.087 302.126 105.18 302.612 104.52C303.106 103.86 303.862 103.53 304.882 103.53C305.896 103.53 306.649 103.863 307.142 104.53C307.636 105.19 307.882 106.093 307.882 107.24C307.882 108.393 307.636 109.303 307.142 109.97C306.649 110.63 305.896 110.96 304.882 110.96C303.862 110.96 303.106 110.63 302.612 109.97C302.126 109.303 301.882 108.393 301.882 107.24ZM305.692 107.24C305.692 106.707 305.639 106.307 305.532 106.04C305.426 105.767 305.209 105.63 304.882 105.63C304.549 105.63 304.329 105.767 304.222 106.04C304.116 106.307 304.062 106.707 304.062 107.24C304.062 107.78 304.116 108.187 304.222 108.46C304.329 108.727 304.549 108.86 304.882 108.86C305.209 108.86 305.426 108.727 305.532 108.46C305.639 108.187 305.692 107.78 305.692 107.24Z" fill="#262626"/>
</svg>
