<svg width="347" height="220" viewBox="0 0 347 220" fill="none" xmlns="http://www.w3.org/2000/svg">
<g clip-path="url(#clip0_1_440)">
<rect width="347" height="220" rx="6" fill="#D8FCEC"/>
<path d="M18.7282 28.2422V19.864H24.3736V21.3245H20.4995V23.3208H24.0832V24.7813H20.4995V26.7817H24.39V28.2422H18.7282ZM27.2056 21.9586L28.3592 24.1554L29.5415 21.9586H31.3292L29.5088 25.1004L31.3783 28.2422H29.5988L28.3592 26.0699L27.1401 28.2422H25.3401L27.2056 25.1004L25.4056 21.9586H27.2056ZM32.3642 30.5986V21.9586H34.0824V23.014H34.1601C34.2365 22.8449 34.3469 22.6731 34.4915 22.4986C34.6388 22.3213 34.8297 22.174 35.0642 22.0567C35.3015 21.9367 35.596 21.8767 35.9478 21.8767C36.406 21.8767 36.8288 21.9967 37.216 22.2367C37.6033 22.474 37.9128 22.8326 38.1447 23.3126C38.3765 23.7899 38.4924 24.3886 38.4924 25.1086C38.4924 25.8095 38.3792 26.4013 38.1528 26.884C37.9292 27.364 37.6238 27.7281 37.2365 27.9763C36.8519 28.2217 36.421 28.3445 35.9438 28.3445C35.6056 28.3445 35.3178 28.2886 35.0806 28.1767C34.846 28.0649 34.6538 27.9245 34.5038 27.7554C34.3538 27.5836 34.2392 27.4104 34.1601 27.2358H34.1069V30.5986H32.3642ZM34.0701 25.1004C34.0701 25.474 34.1219 25.7999 34.2256 26.0781C34.3292 26.3563 34.4792 26.5731 34.6756 26.7286C34.8719 26.8813 35.1106 26.9576 35.3915 26.9576C35.6751 26.9576 35.9151 26.8799 36.1115 26.7245C36.3078 26.5663 36.4565 26.3481 36.5574 26.0699C36.661 25.789 36.7128 25.4658 36.7128 25.1004C36.7128 24.7376 36.6624 24.4186 36.5615 24.1431C36.4606 23.8676 36.3119 23.6522 36.1156 23.4967C35.9192 23.3413 35.6778 23.2636 35.3915 23.2636C35.1078 23.2636 34.8678 23.3386 34.6715 23.4886C34.4778 23.6386 34.3292 23.8513 34.2256 24.1267C34.1219 24.4022 34.0701 24.7267 34.0701 25.1004ZM42.5178 28.3649C41.8715 28.3649 41.3151 28.234 40.8488 27.9722C40.3851 27.7076 40.0278 27.334 39.7769 26.8513C39.526 26.3658 39.4006 25.7917 39.4006 25.129C39.4006 24.4826 39.526 23.9154 39.7769 23.4272C40.0278 22.939 40.381 22.5586 40.8365 22.2858C41.2947 22.0131 41.8319 21.8767 42.4483 21.8767C42.8628 21.8767 43.2488 21.9436 43.606 22.0772C43.966 22.2081 44.2797 22.4058 44.5469 22.6704C44.8169 22.9349 45.0269 23.2676 45.1769 23.6686C45.3269 24.0667 45.4019 24.5331 45.4019 25.0676V25.5463H40.096V24.4663H43.7615C43.7615 24.2154 43.7069 23.9931 43.5978 23.7995C43.4888 23.6058 43.3374 23.4545 43.1438 23.3454C42.9528 23.2336 42.7306 23.1776 42.4769 23.1776C42.2124 23.1776 41.9778 23.239 41.7733 23.3617C41.5715 23.4817 41.4133 23.644 41.2988 23.8486C41.1842 24.0504 41.1256 24.2754 41.1228 24.5236V25.5504C41.1228 25.8613 41.1801 26.1299 41.2947 26.3563C41.4119 26.5826 41.5769 26.7572 41.7897 26.8799C42.0024 27.0026 42.2547 27.064 42.5465 27.064C42.7401 27.064 42.9174 27.0367 43.0783 26.9822C43.2392 26.9276 43.3769 26.8458 43.4915 26.7367C43.606 26.6276 43.6933 26.494 43.7533 26.3358L45.3651 26.4422C45.2833 26.8295 45.1156 27.1676 44.8619 27.4567C44.611 27.7431 44.2865 27.9667 43.8883 28.1276C43.4928 28.2858 43.036 28.3649 42.5178 28.3649ZM48.2819 24.6095V28.2422H46.5392V21.9586H48.2001V23.0672H48.2738C48.4128 22.7017 48.646 22.4126 48.9733 22.1999C49.3006 21.9845 49.6974 21.8767 50.1638 21.8767C50.6001 21.8767 50.9806 21.9722 51.3051 22.1631C51.6297 22.354 51.8819 22.6267 52.0619 22.9813C52.2419 23.3331 52.3319 23.7531 52.3319 24.2413V28.2422H50.5892V24.5522C50.5919 24.1676 50.4938 23.8676 50.2947 23.6522C50.0956 23.434 49.8215 23.3249 49.4724 23.3249C49.2378 23.3249 49.0306 23.3754 48.8506 23.4763C48.6733 23.5772 48.5342 23.7245 48.4333 23.9181C48.3351 24.109 48.2847 24.3395 48.2819 24.6095ZM58.9336 23.7504L57.3382 23.8486C57.3109 23.7122 57.2523 23.5895 57.1623 23.4804C57.0723 23.3686 56.9536 23.2799 56.8064 23.2145C56.6618 23.1463 56.4886 23.1122 56.2868 23.1122C56.0168 23.1122 55.7891 23.1695 55.6036 23.284C55.4182 23.3958 55.3255 23.5458 55.3255 23.734C55.3255 23.884 55.3855 24.0108 55.5055 24.1145C55.6255 24.2181 55.8314 24.3013 56.1232 24.364L57.2605 24.5931C57.8714 24.7186 58.3268 24.9204 58.6268 25.1986C58.9268 25.4767 59.0768 25.8422 59.0768 26.2949C59.0768 26.7067 58.9555 27.0681 58.7127 27.379C58.4727 27.6899 58.1427 27.9326 57.7227 28.1072C57.3055 28.279 56.8241 28.3649 56.2786 28.3649C55.4468 28.3649 54.7841 28.1917 54.2905 27.8454C53.7995 27.4963 53.5118 27.0217 53.4273 26.4217L55.1414 26.3317C55.1932 26.5854 55.3186 26.779 55.5177 26.9126C55.7168 27.0436 55.9718 27.109 56.2827 27.109C56.5882 27.109 56.8336 27.0504 57.0191 26.9331C57.2073 26.8131 57.3027 26.659 57.3055 26.4708C57.3027 26.3126 57.2359 26.1831 57.105 26.0822C56.9741 25.9786 56.7723 25.8995 56.4995 25.8449L55.4114 25.6281C54.7977 25.5054 54.3409 25.2926 54.0409 24.9899C53.7436 24.6872 53.595 24.3013 53.595 23.8322C53.595 23.4286 53.7041 23.0808 53.9223 22.789C54.1432 22.4972 54.4527 22.2722 54.8509 22.114C55.2518 21.9558 55.7209 21.8767 56.2582 21.8767C57.0518 21.8767 57.6764 22.0445 58.1318 22.3799C58.59 22.7154 58.8573 23.1722 58.9336 23.7504ZM63.0378 28.3649C62.3915 28.3649 61.8351 28.234 61.3688 27.9722C60.9051 27.7076 60.5478 27.334 60.2969 26.8513C60.046 26.3658 59.9206 25.7917 59.9206 25.129C59.9206 24.4826 60.046 23.9154 60.2969 23.4272C60.5478 22.939 60.901 22.5586 61.3565 22.2858C61.8147 22.0131 62.3519 21.8767 62.9683 21.8767C63.3828 21.8767 63.7688 21.9436 64.126 22.0772C64.486 22.2081 64.7997 22.4058 65.0669 22.6704C65.3369 22.9349 65.5469 23.2676 65.6969 23.6686C65.8469 24.0667 65.9219 24.5331 65.9219 25.0676V25.5463H60.616V24.4663H64.2815C64.2815 24.2154 64.2269 23.9931 64.1178 23.7995C64.0088 23.6058 63.8574 23.4545 63.6638 23.3454C63.4728 23.2336 63.2506 23.1776 62.9969 23.1776C62.7324 23.1776 62.4978 23.239 62.2933 23.3617C62.0915 23.4817 61.9333 23.644 61.8188 23.8486C61.7042 24.0504 61.6456 24.2754 61.6428 24.5236V25.5504C61.6428 25.8613 61.7001 26.1299 61.8147 26.3563C61.9319 26.5826 62.0969 26.7572 62.3097 26.8799C62.5224 27.0026 62.7747 27.064 63.0665 27.064C63.2601 27.064 63.4374 27.0367 63.5983 26.9822C63.7592 26.9276 63.8969 26.8458 64.0115 26.7367C64.126 26.6276 64.2133 26.494 64.2733 26.3358L65.8851 26.4422C65.8033 26.8295 65.6356 27.1676 65.3819 27.4567C65.131 27.7431 64.8065 27.9667 64.4083 28.1276C64.0128 28.2858 63.556 28.3649 63.0378 28.3649ZM72.2874 23.7504L70.6919 23.8486C70.6647 23.7122 70.606 23.5895 70.516 23.4804C70.426 23.3686 70.3074 23.2799 70.1601 23.2145C70.0156 23.1463 69.8424 23.1122 69.6406 23.1122C69.3706 23.1122 69.1428 23.1695 68.9574 23.284C68.7719 23.3958 68.6792 23.5458 68.6792 23.734C68.6792 23.884 68.7392 24.0108 68.8592 24.1145C68.9792 24.2181 69.1851 24.3013 69.4769 24.364L70.6142 24.5931C71.2251 24.7186 71.6806 24.9204 71.9806 25.1986C72.2806 25.4767 72.4306 25.8422 72.4306 26.2949C72.4306 26.7067 72.3092 27.0681 72.0665 27.379C71.8265 27.6899 71.4965 27.9326 71.0765 28.1072C70.6592 28.279 70.1778 28.3649 69.6324 28.3649C68.8006 28.3649 68.1378 28.1917 67.6442 27.8454C67.1533 27.4963 66.8656 27.0217 66.781 26.4217L68.4951 26.3317C68.5469 26.5854 68.6724 26.779 68.8715 26.9126C69.0706 27.0436 69.3256 27.109 69.6365 27.109C69.9419 27.109 70.1874 27.0504 70.3728 26.9331C70.561 26.8131 70.6565 26.659 70.6592 26.4708C70.6565 26.3126 70.5897 26.1831 70.4588 26.0822C70.3278 25.9786 70.126 25.8995 69.8533 25.8449L68.7651 25.6281C68.1515 25.5054 67.6947 25.2926 67.3947 24.9899C67.0974 24.6872 66.9488 24.3013 66.9488 23.8322C66.9488 23.4286 67.0578 23.0808 67.276 22.789C67.4969 22.4972 67.8065 22.2722 68.2047 22.114C68.6056 21.9558 69.0747 21.8767 69.6119 21.8767C70.4056 21.8767 71.0301 22.0445 71.4856 22.3799C71.9438 22.7154 72.211 23.1722 72.2874 23.7504Z" fill="#262626"/>
<path d="M294.414 21.8881V22.4566H292.087V24.2617H293.976V24.8302H292.087V27.2422H291.388V21.8881H294.414ZM295.619 22.349C295.486 22.349 295.374 22.3029 295.281 22.2107C295.189 22.1186 295.143 22.0059 295.143 21.8728C295.143 21.7396 295.189 21.6269 295.281 21.5348C295.374 21.4426 295.486 21.3965 295.619 21.3965C295.747 21.3965 295.855 21.4426 295.942 21.5348C296.034 21.6269 296.08 21.7396 296.08 21.8728C296.08 22.0059 296.034 22.1186 295.942 22.2107C295.855 22.3029 295.747 22.349 295.619 22.349ZM295.957 23.0327V27.2422H295.258V23.0327H295.957ZM297.848 21.5578V27.2422H297.149V21.5578H297.848ZM299.892 23.6088V26.0899C299.892 26.2948 299.935 26.4407 300.022 26.5278C300.109 26.6097 300.26 26.6507 300.476 26.6507H300.99V27.2422H300.36C299.971 27.2422 299.679 27.1526 299.485 26.9733C299.29 26.7941 299.193 26.4996 299.193 26.0899V23.6088H298.647V23.0327H299.193V21.9726H299.892V23.0327H300.99V23.6088H299.892ZM305.678 24.9761C305.678 25.1093 305.67 25.2501 305.655 25.3986H302.29C302.316 25.8134 302.457 26.1386 302.713 26.3742C302.974 26.6046 303.289 26.7198 303.658 26.7198C303.96 26.7198 304.211 26.6507 304.411 26.5124C304.615 26.369 304.759 26.1796 304.841 25.944H305.593C305.481 26.3486 305.255 26.6789 304.917 26.9349C304.58 27.1859 304.16 27.3113 303.658 27.3113C303.258 27.3113 302.9 27.2217 302.582 27.0425C302.27 26.8632 302.024 26.6097 301.845 26.282C301.666 25.9491 301.576 25.565 301.576 25.1297C301.576 24.6945 301.663 24.3129 301.837 23.9852C302.011 23.6574 302.255 23.4065 302.567 23.2324C302.884 23.0532 303.248 22.9635 303.658 22.9635C304.057 22.9635 304.411 23.0506 304.718 23.2247C305.025 23.3988 305.261 23.6395 305.424 23.9468C305.593 24.2489 305.678 24.592 305.678 24.9761ZM304.956 24.8302C304.956 24.5639 304.897 24.336 304.779 24.1465C304.661 23.9519 304.5 23.806 304.295 23.7087C304.096 23.6062 303.873 23.555 303.627 23.555C303.274 23.555 302.971 23.6677 302.721 23.893C302.475 24.1183 302.334 24.4307 302.298 24.8302H304.956ZM307.3 23.7163C307.423 23.4756 307.597 23.2887 307.822 23.1556C308.052 23.0224 308.332 22.9559 308.659 22.9559V23.6779H308.475C307.691 23.6779 307.3 24.103 307.3 24.9531V27.2422H306.601V23.0327H307.3V23.7163Z" fill="#262626"/>
<path d="M320.013 23.2661L317.926 25.3529C317.679 25.5994 317.276 25.5994 317.03 25.3529L314.943 23.2661" stroke="#828282" stroke-width="0.768159" stroke-miterlimit="10" stroke-linecap="round" stroke-linejoin="round"/>
<rect x="283.435" y="14.3201" width="45.2454" height="19.8441" rx="4.16086" stroke="#D9D9D9" stroke-width="0.640133"/>
<rect y="49" width="347" height="24" fill="#F5F7F9"/>
<path d="M20.5 64H18.7045V58.1818H20.5795C21.1439 58.1818 21.6269 58.2983 22.0284 58.5312C22.4299 58.7623 22.7377 59.0947 22.9517 59.5284C23.1657 59.9602 23.2727 60.4773 23.2727 61.0795C23.2727 61.6856 23.1648 62.2074 22.9489 62.6449C22.733 63.0805 22.4186 63.4157 22.0057 63.6506C21.5928 63.8835 21.0909 64 20.5 64ZM19.4091 63.375H20.4545C20.9356 63.375 21.3343 63.2822 21.6506 63.0966C21.9669 62.911 22.2027 62.6468 22.358 62.304C22.5133 61.9612 22.5909 61.553 22.5909 61.0795C22.5909 60.6098 22.5142 60.2055 22.3608 59.8665C22.2074 59.5256 21.9782 59.2642 21.6733 59.0824C21.3684 58.8987 20.9886 58.8068 20.5341 58.8068H19.4091V63.375ZM24.4197 64H23.6811L25.8175 58.1818H26.5447L28.6811 64H27.9425L26.2038 59.1023H26.1584L24.4197 64ZM24.6925 61.7273H27.6697V62.3523H24.6925V61.7273ZM28.5895 58.8068V58.1818H32.9531V58.8068H31.1236V64H30.419V58.8068H28.5895ZM34.0405 64V58.1818H37.5518V58.8068H34.745V60.7727H37.37V61.3977H34.745V63.375H37.5973V64H34.0405Z" fill="#BDBDBD"/>
<path d="M75.3864 58.8068V58.1818H79.75V58.8068H77.9205V64H77.2159V58.8068H75.3864ZM80.3374 58.1818H81.1442L82.7578 60.8977H82.826L84.4396 58.1818H85.2464L83.1442 61.6023V64H82.4396V61.6023L80.3374 58.1818ZM86.1577 64V58.1818H88.1236C88.58 58.1818 88.9531 58.2642 89.2429 58.429C89.5346 58.5919 89.7505 58.8125 89.8906 59.0909C90.0308 59.3693 90.1009 59.6799 90.1009 60.0227C90.1009 60.3655 90.0308 60.6771 89.8906 60.9574C89.7524 61.2377 89.5384 61.4612 89.2486 61.6278C88.9588 61.7926 88.5876 61.875 88.1349 61.875H86.7259V61.25H88.1122C88.4247 61.25 88.6757 61.196 88.8651 61.0881C89.0545 60.9801 89.1918 60.8343 89.277 60.6506C89.3641 60.465 89.4077 60.2557 89.4077 60.0227C89.4077 59.7898 89.3641 59.5814 89.277 59.3977C89.1918 59.214 89.0535 59.0701 88.8622 58.9659C88.6709 58.8598 88.4171 58.8068 88.1009 58.8068H86.8622V64H86.1577ZM91.2358 64V58.1818H94.7472V58.8068H91.9403V60.7727H94.5653V61.3977H91.9403V63.375H94.7926V64H91.2358ZM103.176 61.0909C103.176 61.7045 103.065 62.2348 102.844 62.6818C102.622 63.1288 102.318 63.4735 101.932 63.7159C101.545 63.9583 101.104 64.0795 100.608 64.0795C100.112 64.0795 99.6705 63.9583 99.2841 63.7159C98.8977 63.4735 98.5938 63.1288 98.3722 62.6818C98.1506 62.2348 98.0398 61.7045 98.0398 61.0909C98.0398 60.4773 98.1506 59.947 98.3722 59.5C98.5938 59.053 98.8977 58.7083 99.2841 58.4659C99.6705 58.2235 100.112 58.1023 100.608 58.1023C101.104 58.1023 101.545 58.2235 101.932 58.4659C102.318 58.7083 102.622 59.053 102.844 59.5C103.065 59.947 103.176 60.4773 103.176 61.0909ZM102.494 61.0909C102.494 60.5871 102.41 60.1619 102.241 59.8153C102.075 59.4688 101.848 59.2064 101.562 59.0284C101.278 58.8504 100.96 58.7614 100.608 58.7614C100.256 58.7614 99.9366 58.8504 99.6506 59.0284C99.3665 59.2064 99.1402 59.4688 98.9716 59.8153C98.8049 60.1619 98.7216 60.5871 98.7216 61.0909C98.7216 61.5947 98.8049 62.0199 98.9716 62.3665C99.1402 62.7131 99.3665 62.9754 99.6506 63.1534C99.9366 63.3314 100.256 63.4205 100.608 63.4205C100.96 63.4205 101.278 63.3314 101.562 63.1534C101.848 62.9754 102.075 62.7131 102.241 62.3665C102.41 62.0199 102.494 61.5947 102.494 61.0909ZM104.361 64V58.1818H107.849V58.8068H105.065V60.7727H107.588V61.3977H105.065V64H104.361ZM110.988 58.8068V58.1818H115.352V58.8068H113.522V64H112.817V58.8068H110.988ZM116.439 64V58.1818H118.405C118.859 58.1818 119.232 58.2595 119.524 58.4148C119.816 58.5682 120.032 58.7794 120.172 59.0483C120.312 59.3172 120.382 59.6231 120.382 59.9659C120.382 60.3087 120.312 60.6127 120.172 60.8778C120.032 61.143 119.817 61.3513 119.527 61.5028C119.237 61.6525 118.867 61.7273 118.416 61.7273H116.825V61.0909H118.393C118.704 61.0909 118.954 61.0455 119.143 60.9545C119.335 60.8636 119.473 60.7348 119.558 60.5682C119.645 60.3996 119.689 60.1989 119.689 59.9659C119.689 59.733 119.645 59.5294 119.558 59.3551C119.471 59.1809 119.332 59.0464 119.141 58.9517C118.949 58.8551 118.696 58.8068 118.382 58.8068H117.143V64H116.439ZM119.178 61.3864L120.609 64H119.791L118.382 61.3864H119.178ZM121.795 64H121.056L123.192 58.1818H123.92L126.056 64H125.317L123.579 59.1023H123.533L121.795 64ZM122.067 61.7273H125.045V62.3523H122.067V61.7273ZM131.576 58.1818V64H130.894L127.724 59.4318H127.667V64H126.962V58.1818H127.644L130.826 62.7614H130.883V58.1818H131.576ZM136.168 59.6364C136.134 59.3485 135.995 59.125 135.753 58.9659C135.51 58.8068 135.213 58.7273 134.861 58.7273C134.603 58.7273 134.378 58.7689 134.185 58.8523C133.993 58.9356 133.844 59.0502 133.736 59.196C133.63 59.3419 133.577 59.5076 133.577 59.6932C133.577 59.8485 133.614 59.982 133.688 60.0938C133.763 60.2036 133.86 60.2955 133.977 60.3693C134.095 60.4413 134.218 60.5009 134.347 60.5483C134.475 60.5937 134.594 60.6307 134.702 60.6591L135.293 60.8182C135.444 60.858 135.613 60.9129 135.798 60.983C135.986 61.053 136.165 61.1487 136.335 61.2699C136.508 61.3892 136.65 61.5426 136.761 61.7301C136.873 61.9176 136.929 62.1477 136.929 62.4205C136.929 62.7348 136.847 63.0189 136.682 63.2727C136.519 63.5265 136.28 63.7282 135.966 63.8778C135.653 64.0275 135.274 64.1023 134.827 64.1023C134.41 64.1023 134.049 64.035 133.744 63.9006C133.441 63.7661 133.203 63.5786 133.028 63.3381C132.856 63.0975 132.759 62.8182 132.736 62.5H133.463C133.482 62.7197 133.556 62.9015 133.685 63.0455C133.815 63.1875 133.98 63.2936 134.179 63.3636C134.38 63.4318 134.596 63.4659 134.827 63.4659C135.096 63.4659 135.337 63.4223 135.551 63.3352C135.765 63.2462 135.935 63.1231 136.06 62.9659C136.185 62.8068 136.247 62.6212 136.247 62.4091C136.247 62.2159 136.193 62.0587 136.085 61.9375C135.977 61.8163 135.835 61.7178 135.659 61.642C135.483 61.5663 135.293 61.5 135.088 61.4432L134.372 61.2386C133.918 61.108 133.558 60.9214 133.293 60.679C133.027 60.4366 132.895 60.1193 132.895 59.7273C132.895 59.4015 132.983 59.1174 133.159 58.875C133.337 58.6307 133.576 58.4413 133.875 58.3068C134.176 58.1705 134.512 58.1023 134.884 58.1023C135.259 58.1023 135.592 58.1695 135.884 58.304C136.175 58.4366 136.406 58.6184 136.577 58.8494C136.749 59.0805 136.84 59.3428 136.849 59.6364H136.168ZM138.326 64H137.587L139.724 58.1818H140.451L142.587 64H141.849L140.11 59.1023H140.065L138.326 64ZM138.599 61.7273H141.576V62.3523H138.599V61.7273ZM147.902 60H147.197C147.156 59.7973 147.083 59.6193 146.979 59.4659C146.876 59.3125 146.751 59.1837 146.604 59.0795C146.458 58.9735 146.296 58.8939 146.118 58.8409C145.94 58.7879 145.754 58.7614 145.561 58.7614C145.209 58.7614 144.89 58.8504 144.604 59.0284C144.32 59.2064 144.093 59.4688 143.925 59.8153C143.758 60.1619 143.675 60.5871 143.675 61.0909C143.675 61.5947 143.758 62.0199 143.925 62.3665C144.093 62.7131 144.32 62.9754 144.604 63.1534C144.89 63.3314 145.209 63.4205 145.561 63.4205C145.754 63.4205 145.94 63.3939 146.118 63.3409C146.296 63.2879 146.458 63.2093 146.604 63.1051C146.751 62.9991 146.876 62.8693 146.979 62.7159C147.083 62.5606 147.156 62.3826 147.197 62.1818H147.902C147.849 62.4792 147.752 62.7453 147.612 62.9801C147.472 63.215 147.298 63.4148 147.089 63.5795C146.881 63.7424 146.647 63.8665 146.388 63.9517C146.13 64.0369 145.855 64.0795 145.561 64.0795C145.065 64.0795 144.624 63.9583 144.237 63.7159C143.851 63.4735 143.547 63.1288 143.325 62.6818C143.104 62.2348 142.993 61.7045 142.993 61.0909C142.993 60.4773 143.104 59.947 143.325 59.5C143.547 59.053 143.851 58.7083 144.237 58.4659C144.624 58.2235 145.065 58.1023 145.561 58.1023C145.855 58.1023 146.13 58.1449 146.388 58.2301C146.647 58.3153 146.881 58.4403 147.089 58.6051C147.298 58.768 147.472 58.9669 147.612 59.2017C147.752 59.4347 147.849 59.7008 147.902 60ZM148.722 58.8068V58.1818H153.086V58.8068H151.256V64H150.552V58.8068H148.722ZM154.878 58.1818V64H154.173V58.1818H154.878ZM161.2 61.0909C161.2 61.7045 161.089 62.2348 160.867 62.6818C160.646 63.1288 160.342 63.4735 159.955 63.7159C159.569 63.9583 159.128 64.0795 158.631 64.0795C158.135 64.0795 157.694 63.9583 157.308 63.7159C156.921 63.4735 156.617 63.1288 156.396 62.6818C156.174 62.2348 156.063 61.7045 156.063 61.0909C156.063 60.4773 156.174 59.947 156.396 59.5C156.617 59.053 156.921 58.7083 157.308 58.4659C157.694 58.2235 158.135 58.1023 158.631 58.1023C159.128 58.1023 159.569 58.2235 159.955 58.4659C160.342 58.7083 160.646 59.053 160.867 59.5C161.089 59.947 161.2 60.4773 161.2 61.0909ZM160.518 61.0909C160.518 60.5871 160.433 60.1619 160.265 59.8153C160.098 59.4688 159.872 59.2064 159.586 59.0284C159.302 58.8504 158.984 58.7614 158.631 58.7614C158.279 58.7614 157.96 58.8504 157.674 59.0284C157.39 59.2064 157.164 59.4688 156.995 59.8153C156.828 60.1619 156.745 60.5871 156.745 61.0909C156.745 61.5947 156.828 62.0199 156.995 62.3665C157.164 62.7131 157.39 62.9754 157.674 63.1534C157.96 63.3314 158.279 63.4205 158.631 63.4205C158.984 63.4205 159.302 63.3314 159.586 63.1534C159.872 62.9754 160.098 62.7131 160.265 62.3665C160.433 62.0199 160.518 61.5947 160.518 61.0909ZM166.998 58.1818V64H166.316L163.146 59.4318H163.089V64H162.384V58.1818H163.066L166.248 62.7614H166.305V58.1818H166.998Z" fill="#BDBDBD"/>
<path d="M293.943 64H293.205L295.341 58.1818H296.068L298.205 64H297.466L295.727 59.1023H295.682L293.943 64ZM294.216 61.7273H297.193V62.3523H294.216V61.7273ZM299.111 58.1818H299.952L301.929 63.0114H301.997L303.974 58.1818H304.815V64H304.156V59.5795H304.099L302.281 64H301.645L299.827 59.5795H299.77V64H299.111V58.1818ZM311.137 61.0909C311.137 61.7045 311.026 62.2348 310.805 62.6818C310.583 63.1288 310.279 63.4735 309.893 63.7159C309.506 63.9583 309.065 64.0795 308.569 64.0795C308.073 64.0795 307.631 63.9583 307.245 63.7159C306.859 63.4735 306.555 63.1288 306.333 62.6818C306.112 62.2348 306.001 61.7045 306.001 61.0909C306.001 60.4773 306.112 59.947 306.333 59.5C306.555 59.053 306.859 58.7083 307.245 58.4659C307.631 58.2235 308.073 58.1023 308.569 58.1023C309.065 58.1023 309.506 58.2235 309.893 58.4659C310.279 58.7083 310.583 59.053 310.805 59.5C311.026 59.947 311.137 60.4773 311.137 61.0909ZM310.455 61.0909C310.455 60.5871 310.371 60.1619 310.202 59.8153C310.036 59.4688 309.809 59.2064 309.523 59.0284C309.239 58.8504 308.921 58.7614 308.569 58.7614C308.217 58.7614 307.897 58.8504 307.612 59.0284C307.327 59.2064 307.101 59.4688 306.933 59.8153C306.766 60.1619 306.683 60.5871 306.683 61.0909C306.683 61.5947 306.766 62.0199 306.933 62.3665C307.101 62.7131 307.327 62.9754 307.612 63.1534C307.897 63.3314 308.217 63.4205 308.569 63.4205C308.921 63.4205 309.239 63.3314 309.523 63.1534C309.809 62.9754 310.036 62.7131 310.202 62.3665C310.371 62.0199 310.455 61.5947 310.455 61.0909ZM316.14 58.1818H316.844V62.0341C316.844 62.4318 316.751 62.7869 316.563 63.0994C316.378 63.41 316.115 63.6553 315.776 63.8352C315.437 64.0133 315.04 64.1023 314.583 64.1023C314.127 64.1023 313.729 64.0133 313.39 63.8352C313.051 63.6553 312.788 63.41 312.6 63.0994C312.415 62.7869 312.322 62.4318 312.322 62.0341V58.1818H313.026V61.9773C313.026 62.2614 313.089 62.5142 313.214 62.7358C313.339 62.9555 313.517 63.1288 313.748 63.2557C313.981 63.3807 314.259 63.4432 314.583 63.4432C314.907 63.4432 315.185 63.3807 315.418 63.2557C315.651 63.1288 315.829 62.9555 315.952 62.7358C316.077 62.5142 316.14 62.2614 316.14 61.9773V58.1818ZM322.865 58.1818V64H322.183L319.013 59.4318H318.956V64H318.251V58.1818H318.933L322.115 62.7614H322.172V58.1818H322.865ZM323.957 58.8068V58.1818H328.32V58.8068H326.491V64H325.786V58.8068H323.957Z" fill="#BDBDBD"/>
<path d="M20.5 100H18.7045V94.1818H20.5795C21.1439 94.1818 21.6269 94.2983 22.0284 94.5312C22.4299 94.7623 22.7377 95.0947 22.9517 95.5284C23.1657 95.9602 23.2727 96.4773 23.2727 97.0795C23.2727 97.6856 23.1648 98.2074 22.9489 98.6449C22.733 99.0805 22.4186 99.4157 22.0057 99.6506C21.5928 99.8835 21.0909 100 20.5 100ZM19.4091 99.375H20.4545C20.9356 99.375 21.3343 99.2822 21.6506 99.0966C21.9669 98.911 22.2027 98.6468 22.358 98.304C22.5133 97.9612 22.5909 97.553 22.5909 97.0795C22.5909 96.6098 22.5142 96.2055 22.3608 95.8665C22.2074 95.5256 21.9782 95.2642 21.6733 95.0824C21.3684 94.8987 20.9886 94.8068 20.5341 94.8068H19.4091V99.375ZM26.1932 100.091C25.7727 100.091 25.41 99.9981 25.1051 99.8125C24.8021 99.625 24.5682 99.3636 24.4034 99.0284C24.2405 98.6913 24.1591 98.2992 24.1591 97.8523C24.1591 97.4053 24.2405 97.0114 24.4034 96.6705C24.5682 96.3277 24.7973 96.0606 25.0909 95.8693C25.3864 95.6761 25.7311 95.5795 26.125 95.5795C26.3523 95.5795 26.5767 95.6174 26.7983 95.6932C27.0199 95.7689 27.2216 95.892 27.4034 96.0625C27.5852 96.2311 27.7301 96.4545 27.8381 96.733C27.946 97.0114 28 97.3542 28 97.7614V98.0455H24.6364V97.4659H27.3182C27.3182 97.2197 27.2689 97 27.1705 96.8068C27.0739 96.6136 26.9356 96.4612 26.7557 96.3494C26.5777 96.2377 26.3674 96.1818 26.125 96.1818C25.858 96.1818 25.6269 96.2481 25.4318 96.3807C25.2386 96.5114 25.09 96.6818 24.9858 96.892C24.8816 97.1023 24.8295 97.3277 24.8295 97.5682V97.9545C24.8295 98.2841 24.8864 98.5634 25 98.7926C25.1155 99.0199 25.2756 99.1932 25.4801 99.3125C25.6847 99.4299 25.9223 99.4886 26.1932 99.4886C26.3693 99.4886 26.5284 99.464 26.6705 99.4148C26.8144 99.3636 26.9384 99.2879 27.0426 99.1875C27.1468 99.0852 27.2273 98.9583 27.2841 98.8068L27.9318 98.9886C27.8636 99.2083 27.7491 99.4015 27.5881 99.5682C27.4271 99.733 27.2282 99.8617 26.9915 99.9545C26.7547 100.045 26.4886 100.091 26.1932 100.091ZM30.7926 100.091C30.3835 100.091 30.0313 99.9943 29.7358 99.8011C29.4403 99.608 29.2131 99.3419 29.054 99.0028C28.8949 98.6638 28.8153 98.2765 28.8153 97.8409C28.8153 97.3977 28.8968 97.0066 29.0597 96.6676C29.2244 96.3267 29.4536 96.0606 29.7472 95.8693C30.0426 95.6761 30.3873 95.5795 30.7812 95.5795C31.0881 95.5795 31.3646 95.6364 31.6108 95.75C31.857 95.8636 32.0587 96.0227 32.2159 96.2273C32.3731 96.4318 32.4706 96.6705 32.5085 96.9432H31.8381C31.7869 96.7443 31.6733 96.5682 31.4972 96.4148C31.3229 96.2595 31.0881 96.1818 30.7926 96.1818C30.5313 96.1818 30.3021 96.25 30.1051 96.3864C29.91 96.5208 29.7576 96.7112 29.6477 96.9574C29.5398 97.2017 29.4858 97.4886 29.4858 97.8182C29.4858 98.1553 29.5388 98.4489 29.6449 98.6989C29.7528 98.9489 29.9044 99.143 30.0994 99.2812C30.2964 99.4195 30.5275 99.4886 30.7926 99.4886C30.9669 99.4886 31.125 99.4583 31.267 99.3977C31.4091 99.3371 31.5294 99.25 31.6278 99.1364C31.7263 99.0227 31.7964 98.8864 31.8381 98.7273H32.5085C32.4706 98.9848 32.3769 99.2169 32.2273 99.4233C32.0795 99.6278 31.8835 99.7907 31.6392 99.9119C31.3968 100.031 31.1146 100.091 30.7926 100.091ZM34.4886 99.2045L34.4432 99.5114C34.411 99.7273 34.3617 99.9583 34.2955 100.205C34.2311 100.451 34.1638 100.683 34.0938 100.901C34.0237 101.118 33.9659 101.292 33.9205 101.42H33.4091C33.4337 101.299 33.4659 101.139 33.5057 100.94C33.5455 100.741 33.5852 100.519 33.625 100.273C33.6667 100.028 33.7008 99.7784 33.7273 99.5227L33.7614 99.2045H34.4886ZM37.9695 100V99.4886L39.8899 97.3864C40.1153 97.1402 40.3009 96.9261 40.4467 96.7443C40.5926 96.5606 40.7005 96.3883 40.7706 96.2273C40.8426 96.0644 40.8786 95.8939 40.8786 95.7159C40.8786 95.5114 40.8293 95.3343 40.7308 95.1847C40.6342 95.035 40.5017 94.9195 40.3331 94.8381C40.1645 94.7566 39.9751 94.7159 39.7649 94.7159C39.5414 94.7159 39.3464 94.7623 39.1797 94.8551C39.0149 94.946 38.8871 95.0739 38.7962 95.2386C38.7071 95.4034 38.6626 95.5966 38.6626 95.8182H37.9922C37.9922 95.4773 38.0708 95.178 38.228 94.9205C38.3852 94.6629 38.5992 94.4621 38.87 94.3182C39.1428 94.1742 39.4486 94.1023 39.7876 94.1023C40.1286 94.1023 40.4306 94.1742 40.6939 94.3182C40.9571 94.4621 41.1636 94.6562 41.3132 94.9006C41.4628 95.1449 41.5376 95.4167 41.5376 95.7159C41.5376 95.9299 41.4988 96.1392 41.4212 96.3438C41.3454 96.5464 41.2128 96.7727 41.0234 97.0227C40.8359 97.2708 40.5755 97.5739 40.2422 97.9318L38.9354 99.3295V99.375H41.6399V100H37.9695ZM42.8132 100V99.4886L44.7337 97.3864C44.959 97.1402 45.1446 96.9261 45.2905 96.7443C45.4363 96.5606 45.5443 96.3883 45.6143 96.2273C45.6863 96.0644 45.7223 95.8939 45.7223 95.7159C45.7223 95.5114 45.6731 95.3343 45.5746 95.1847C45.478 95.035 45.3454 94.9195 45.1768 94.8381C45.0083 94.7566 44.8189 94.7159 44.6087 94.7159C44.3852 94.7159 44.1901 94.7623 44.0234 94.8551C43.8587 94.946 43.7308 95.0739 43.6399 95.2386C43.5509 95.4034 43.5064 95.5966 43.5064 95.8182H42.8359C42.8359 95.4773 42.9145 95.178 43.0717 94.9205C43.2289 94.6629 43.4429 94.4621 43.7138 94.3182C43.9865 94.1742 44.2924 94.1023 44.6314 94.1023C44.9723 94.1023 45.2744 94.1742 45.5376 94.3182C45.8009 94.4621 46.0073 94.6562 46.157 94.9006C46.3066 95.1449 46.3814 95.4167 46.3814 95.7159C46.3814 95.9299 46.3426 96.1392 46.2649 96.3438C46.1892 96.5464 46.0566 96.7727 45.8672 97.0227C45.6797 97.2708 45.4193 97.5739 45.0859 97.9318L43.7791 99.3295V99.375H46.4837V100H42.8132Z" fill="#828282"/>
<path d="M81.0195 103.46L82.5728 102.154C82.8062 101.954 83.1928 101.954 83.4262 102.154L84.9795 103.46C85.3395 103.64 85.7795 103.46 85.9128 103.074L86.2062 102.187C86.2795 101.974 86.2062 101.66 86.0462 101.5L84.5328 99.9803C84.4195 99.8737 84.3328 99.6603 84.3328 99.507V97.607C84.3328 97.327 84.5395 97.1937 84.7995 97.3003L88.0728 98.7137C88.5862 98.9337 89.0062 98.6603 89.0062 98.1003V97.2403C89.0062 96.7937 88.6728 96.2803 88.2595 96.107L84.5328 94.5003C84.4262 94.4537 84.3328 94.3137 84.3328 94.1937V92.1937C84.3328 91.567 83.8728 90.827 83.3128 90.5403C83.1128 90.4403 82.8795 90.4403 82.6795 90.5403C82.1195 90.827 81.6595 91.5737 81.6595 92.2003V94.2003C81.6595 94.3203 81.5662 94.4603 81.4595 94.507L77.7395 96.1137C77.3262 96.2803 76.9928 96.7937 76.9928 97.2403V98.1003C76.9928 98.6603 77.4128 98.9337 77.9262 98.7137L81.1995 97.3003C81.4528 97.187 81.6662 97.327 81.6662 97.607V99.507C81.6662 99.6603 81.5795 99.8737 81.4728 99.9803L79.9595 101.5C79.7995 101.66 79.7262 101.967 79.7995 102.187L80.0928 103.074C80.2128 103.46 80.6528 103.647 81.0195 103.46Z" stroke="#163D2A" stroke-linecap="round" stroke-linejoin="round"/>
<path d="M98.1477 94.1818L99.767 98.9205H99.8324L101.452 94.1818H102.401L100.307 100H99.2926L97.1989 94.1818H98.1477ZM104.013 100.097C103.736 100.097 103.486 100.045 103.263 99.9432C103.039 99.839 102.862 99.6884 102.732 99.4915C102.603 99.2945 102.538 99.053 102.538 98.767C102.538 98.5208 102.586 98.3182 102.68 98.1591C102.775 98 102.903 97.8741 103.064 97.7812C103.225 97.6884 103.405 97.6184 103.604 97.571C103.803 97.5237 104.005 97.4877 104.212 97.4631C104.473 97.4328 104.685 97.4081 104.848 97.3892C105.011 97.3684 105.129 97.3352 105.203 97.2898C105.277 97.2443 105.314 97.1705 105.314 97.0682V97.0483C105.314 96.8002 105.244 96.608 105.104 96.4716C104.965 96.3352 104.759 96.267 104.484 96.267C104.198 96.267 103.973 96.3305 103.808 96.4574C103.645 96.5824 103.533 96.7216 103.47 96.875L102.672 96.6932C102.767 96.428 102.905 96.214 103.087 96.0511C103.27 95.8864 103.482 95.767 103.72 95.6932C103.959 95.6174 104.21 95.5795 104.473 95.5795C104.647 95.5795 104.832 95.6004 105.027 95.642C105.224 95.6818 105.408 95.7557 105.578 95.8636C105.75 95.9716 105.892 96.1259 106.001 96.3267C106.111 96.5256 106.166 96.7841 106.166 97.1023V100H105.337V99.4034H105.303C105.248 99.5133 105.165 99.6212 105.055 99.7273C104.946 99.8333 104.804 99.9214 104.632 99.9915C104.46 100.062 104.253 100.097 104.013 100.097ZM104.197 99.4148C104.432 99.4148 104.633 99.3684 104.8 99.2756C104.968 99.1828 105.096 99.0616 105.183 98.9119C105.272 98.7604 105.317 98.5985 105.317 98.4261V97.8636C105.286 97.8939 105.228 97.9223 105.141 97.9489C105.055 97.9735 104.958 97.9953 104.848 98.0142C104.738 98.0312 104.631 98.0473 104.527 98.0625C104.423 98.0758 104.336 98.0871 104.266 98.0966C104.101 98.1174 103.95 98.1525 103.814 98.2017C103.679 98.2509 103.571 98.322 103.49 98.4148C103.411 98.5057 103.371 98.6269 103.371 98.7784C103.371 98.9886 103.448 99.1477 103.604 99.2557C103.759 99.3617 103.957 99.4148 104.197 99.4148ZM109.136 100.088C108.713 100.088 108.35 99.9924 108.045 99.8011C107.742 99.608 107.509 99.3419 107.346 99.0028C107.183 98.6638 107.102 98.2756 107.102 97.8381C107.102 97.3949 107.185 97.0038 107.352 96.6648C107.518 96.3239 107.753 96.0578 108.056 95.8665C108.359 95.6752 108.716 95.5795 109.127 95.5795C109.459 95.5795 109.754 95.6411 110.013 95.7642C110.273 95.8854 110.482 96.0559 110.641 96.2756C110.802 96.4953 110.898 96.7519 110.928 97.0455H110.102C110.056 96.8409 109.952 96.6648 109.789 96.517C109.628 96.3693 109.412 96.2955 109.141 96.2955C108.905 96.2955 108.697 96.358 108.519 96.483C108.343 96.6061 108.206 96.7822 108.107 97.0114C108.009 97.2386 107.96 97.5076 107.96 97.8182C107.96 98.1364 108.008 98.411 108.104 98.642C108.201 98.8731 108.337 99.0521 108.513 99.179C108.692 99.3059 108.901 99.3693 109.141 99.3693C109.302 99.3693 109.448 99.34 109.579 99.2812C109.711 99.2206 109.822 99.1345 109.911 99.0227C110.002 98.911 110.066 98.7765 110.102 98.6193H110.928C110.898 98.9015 110.806 99.1534 110.653 99.375C110.499 99.5966 110.294 99.7708 110.036 99.8977C109.781 100.025 109.48 100.088 109.136 100.088ZM113.107 100.097C112.83 100.097 112.58 100.045 112.357 99.9432C112.133 99.839 111.956 99.6884 111.825 99.4915C111.696 99.2945 111.632 99.053 111.632 98.767C111.632 98.5208 111.679 98.3182 111.774 98.1591C111.869 98 111.997 97.8741 112.158 97.7812C112.319 97.6884 112.499 97.6184 112.697 97.571C112.896 97.5237 113.099 97.4877 113.305 97.4631C113.567 97.4328 113.779 97.4081 113.942 97.3892C114.105 97.3684 114.223 97.3352 114.297 97.2898C114.371 97.2443 114.408 97.1705 114.408 97.0682V97.0483C114.408 96.8002 114.338 96.608 114.197 96.4716C114.059 96.3352 113.853 96.267 113.578 96.267C113.292 96.267 113.067 96.3305 112.902 96.4574C112.739 96.5824 112.626 96.7216 112.564 96.875L111.766 96.6932C111.86 96.428 111.999 96.214 112.18 96.0511C112.364 95.8864 112.575 95.767 112.814 95.6932C113.053 95.6174 113.304 95.5795 113.567 95.5795C113.741 95.5795 113.926 95.6004 114.121 95.642C114.318 95.6818 114.501 95.7557 114.672 95.8636C114.844 95.9716 114.985 96.1259 115.095 96.3267C115.205 96.5256 115.26 96.7841 115.26 97.1023V100H114.43V99.4034H114.396C114.341 99.5133 114.259 99.6212 114.149 99.7273C114.039 99.8333 113.898 99.9214 113.726 99.9915C113.554 100.062 113.347 100.097 113.107 100.097ZM113.291 99.4148C113.526 99.4148 113.727 99.3684 113.893 99.2756C114.062 99.1828 114.19 99.0616 114.277 98.9119C114.366 98.7604 114.411 98.5985 114.411 98.4261V97.8636C114.38 97.8939 114.321 97.9223 114.234 97.9489C114.149 97.9735 114.052 97.9953 113.942 98.0142C113.832 98.0312 113.725 98.0473 113.621 98.0625C113.517 98.0758 113.429 98.0871 113.359 98.0966C113.195 98.1174 113.044 98.1525 112.908 98.2017C112.773 98.2509 112.665 98.322 112.584 98.4148C112.504 98.5057 112.464 98.6269 112.464 98.7784C112.464 98.9886 112.542 99.1477 112.697 99.2557C112.853 99.3617 113.051 99.4148 113.291 99.4148ZM118.428 95.6364V96.3182H116.045V95.6364H118.428ZM116.684 94.5909H117.533V98.7188C117.533 98.8835 117.558 99.0076 117.607 99.0909C117.656 99.1723 117.72 99.2282 117.798 99.2585C117.877 99.2869 117.963 99.3011 118.056 99.3011C118.124 99.3011 118.184 99.2964 118.235 99.2869C118.286 99.2775 118.326 99.2699 118.354 99.2642L118.508 99.9659C118.459 99.9848 118.388 100.004 118.298 100.023C118.207 100.044 118.093 100.055 117.957 100.057C117.733 100.061 117.525 100.021 117.332 99.9375C117.138 99.8542 116.982 99.7254 116.863 99.5511C116.744 99.3769 116.684 99.1581 116.684 98.8949V94.5909ZM119.368 100V95.6364H120.217V100H119.368ZM119.797 94.9631C119.649 94.9631 119.522 94.9138 119.416 94.8153C119.312 94.715 119.26 94.5956 119.26 94.4574C119.26 94.3172 119.312 94.1979 119.416 94.0994C119.522 93.9991 119.649 93.9489 119.797 93.9489C119.945 93.9489 120.071 93.9991 120.175 94.0994C120.281 94.1979 120.334 94.3172 120.334 94.4574C120.334 94.5956 120.281 94.715 120.175 94.8153C120.071 94.9138 119.945 94.9631 119.797 94.9631ZM123.198 100.088C122.789 100.088 122.432 99.9943 122.127 99.8068C121.822 99.6193 121.585 99.357 121.417 99.0199C121.248 98.6828 121.164 98.2888 121.164 97.8381C121.164 97.3854 121.248 96.9896 121.417 96.6506C121.585 96.3116 121.822 96.0483 122.127 95.8608C122.432 95.6733 122.789 95.5795 123.198 95.5795C123.607 95.5795 123.964 95.6733 124.269 95.8608C124.574 96.0483 124.811 96.3116 124.979 96.6506C125.148 96.9896 125.232 97.3854 125.232 97.8381C125.232 98.2888 125.148 98.6828 124.979 99.0199C124.811 99.357 124.574 99.6193 124.269 99.8068C123.964 99.9943 123.607 100.088 123.198 100.088ZM123.201 99.375C123.466 99.375 123.686 99.3049 123.86 99.1648C124.034 99.0246 124.163 98.8381 124.246 98.6051C124.332 98.3722 124.374 98.1155 124.374 97.8352C124.374 97.5568 124.332 97.3011 124.246 97.0682C124.163 96.8333 124.034 96.6449 123.86 96.5028C123.686 96.3608 123.466 96.2898 123.201 96.2898C122.934 96.2898 122.712 96.3608 122.536 96.5028C122.362 96.6449 122.232 96.8333 122.147 97.0682C122.064 97.3011 122.022 97.5568 122.022 97.8352C122.022 98.1155 122.064 98.3722 122.147 98.6051C122.232 98.8381 122.362 99.0246 122.536 99.1648C122.712 99.3049 122.934 99.375 123.201 99.375ZM127.03 97.4091V100H126.18V95.6364H126.996V96.3466H127.05C127.15 96.1155 127.307 95.9299 127.521 95.7898C127.737 95.6496 128.009 95.5795 128.337 95.5795C128.634 95.5795 128.894 95.642 129.118 95.767C129.341 95.8902 129.515 96.0739 129.638 96.3182C129.761 96.5625 129.822 96.8646 129.822 97.2244V100H128.973V97.3267C128.973 97.0104 128.891 96.7633 128.726 96.5852C128.561 96.4053 128.335 96.3153 128.047 96.3153C127.85 96.3153 127.675 96.358 127.521 96.4432C127.37 96.5284 127.25 96.6534 127.161 96.8182C127.073 96.9811 127.03 97.178 127.03 97.4091ZM135.116 95.6364V96.3182H132.732V95.6364H135.116ZM133.371 94.5909H134.221V98.7188C134.221 98.8835 134.246 99.0076 134.295 99.0909C134.344 99.1723 134.407 99.2282 134.485 99.2585C134.565 99.2869 134.651 99.3011 134.744 99.3011C134.812 99.3011 134.871 99.2964 134.923 99.2869C134.974 99.2775 135.013 99.2699 135.042 99.2642L135.195 99.9659C135.146 99.9848 135.076 100.004 134.985 100.023C134.894 100.044 134.781 100.055 134.644 100.057C134.421 100.061 134.212 100.021 134.019 99.9375C133.826 99.8542 133.67 99.7254 133.55 99.5511C133.431 99.3769 133.371 99.1581 133.371 98.8949V94.5909ZM137.847 100.088C137.438 100.088 137.08 99.9943 136.776 99.8068C136.471 99.6193 136.234 99.357 136.065 99.0199C135.897 98.6828 135.812 98.2888 135.812 97.8381C135.812 97.3854 135.897 96.9896 136.065 96.6506C136.234 96.3116 136.471 96.0483 136.776 95.8608C137.08 95.6733 137.438 95.5795 137.847 95.5795C138.256 95.5795 138.613 95.6733 138.918 95.8608C139.223 96.0483 139.459 96.3116 139.628 96.6506C139.796 96.9896 139.881 97.3854 139.881 97.8381C139.881 98.2888 139.796 98.6828 139.628 99.0199C139.459 99.357 139.223 99.6193 138.918 99.8068C138.613 99.9943 138.256 100.088 137.847 100.088ZM137.849 99.375C138.115 99.375 138.334 99.3049 138.509 99.1648C138.683 99.0246 138.812 98.8381 138.895 98.6051C138.98 98.3722 139.023 98.1155 139.023 97.8352C139.023 97.5568 138.98 97.3011 138.895 97.0682C138.812 96.8333 138.683 96.6449 138.509 96.5028C138.334 96.3608 138.115 96.2898 137.849 96.2898C137.582 96.2898 137.361 96.3608 137.185 96.5028C137.01 96.6449 136.881 96.8333 136.795 97.0682C136.712 97.3011 136.67 97.5568 136.67 97.8352C136.67 98.1155 136.712 98.3722 136.795 98.6051C136.881 98.8381 137.01 99.0246 137.185 99.1648C137.361 99.3049 137.582 99.375 137.849 99.375ZM143.014 100V94.1818H145.145C145.558 94.1818 145.9 94.25 146.17 94.3864C146.441 94.5208 146.644 94.7036 146.778 94.9347C146.913 95.1638 146.98 95.4223 146.98 95.7102C146.98 95.9527 146.936 96.1572 146.847 96.3239C146.758 96.4886 146.638 96.6212 146.489 96.7216C146.341 96.8201 146.178 96.892 146 96.9375V96.9943C146.193 97.0038 146.382 97.0663 146.565 97.1818C146.751 97.2955 146.904 97.4574 147.026 97.6676C147.147 97.8778 147.207 98.1335 147.207 98.4347C147.207 98.732 147.137 98.9991 146.997 99.2358C146.859 99.4706 146.645 99.6572 146.355 99.7955C146.065 99.9318 145.695 100 145.244 100H143.014ZM143.892 99.2472H145.159C145.58 99.2472 145.881 99.1657 146.062 99.0028C146.244 98.84 146.335 98.6364 146.335 98.392C146.335 98.2083 146.289 98.0398 146.196 97.8864C146.103 97.733 145.971 97.6108 145.798 97.5199C145.628 97.429 145.425 97.3835 145.19 97.3835H143.892V99.2472ZM143.892 96.6989H145.068C145.265 96.6989 145.442 96.661 145.599 96.5852C145.759 96.5095 145.884 96.4034 145.977 96.267C146.072 96.1288 146.119 95.9659 146.119 95.7784C146.119 95.5379 146.035 95.3362 145.866 95.1733C145.698 95.0104 145.439 94.929 145.091 94.929H143.892V96.6989ZM149.45 100.097C149.174 100.097 148.924 100.045 148.7 99.9432C148.477 99.839 148.3 99.6884 148.169 99.4915C148.04 99.2945 147.976 99.053 147.976 98.767C147.976 98.5208 148.023 98.3182 148.118 98.1591C148.213 98 148.34 97.8741 148.501 97.7812C148.662 97.6884 148.842 97.6184 149.041 97.571C149.24 97.5237 149.443 97.4877 149.649 97.4631C149.911 97.4328 150.123 97.4081 150.286 97.3892C150.448 97.3684 150.567 97.3352 150.641 97.2898C150.714 97.2443 150.751 97.1705 150.751 97.0682V97.0483C150.751 96.8002 150.681 96.608 150.541 96.4716C150.403 96.3352 150.196 96.267 149.922 96.267C149.636 96.267 149.411 96.3305 149.246 96.4574C149.083 96.5824 148.97 96.7216 148.908 96.875L148.109 96.6932C148.204 96.428 148.342 96.214 148.524 96.0511C148.708 95.8864 148.919 95.767 149.158 95.6932C149.396 95.6174 149.647 95.5795 149.911 95.5795C150.085 95.5795 150.269 95.6004 150.464 95.642C150.661 95.6818 150.845 95.7557 151.016 95.8636C151.188 95.9716 151.329 96.1259 151.439 96.3267C151.549 96.5256 151.604 96.7841 151.604 97.1023V100H150.774V99.4034H150.74C150.685 99.5133 150.603 99.6212 150.493 99.7273C150.383 99.8333 150.242 99.9214 150.07 99.9915C149.897 100.062 149.691 100.097 149.45 100.097ZM149.635 99.4148C149.87 99.4148 150.071 99.3684 150.237 99.2756C150.406 99.1828 150.534 99.0616 150.621 98.9119C150.71 98.7604 150.754 98.5985 150.754 98.4261V97.8636C150.724 97.8939 150.665 97.9223 150.578 97.9489C150.493 97.9735 150.395 97.9953 150.286 98.0142C150.176 98.0312 150.069 98.0473 149.964 98.0625C149.86 98.0758 149.773 98.0871 149.703 98.0966C149.538 98.1174 149.388 98.1525 149.251 98.2017C149.117 98.2509 149.009 98.322 148.928 98.4148C148.848 98.5057 148.808 98.6269 148.808 98.7784C148.808 98.9886 148.886 99.1477 149.041 99.2557C149.196 99.3617 149.394 99.4148 149.635 99.4148ZM153.585 94.1818V100H152.735V94.1818H153.585ZM154.727 100V95.6364H155.577V100H154.727ZM155.156 94.9631C155.009 94.9631 154.882 94.9138 154.776 94.8153C154.671 94.715 154.619 94.5956 154.619 94.4574C154.619 94.3172 154.671 94.1979 154.776 94.0994C154.882 93.9991 155.009 93.9489 155.156 93.9489C155.304 93.9489 155.43 93.9991 155.534 94.0994C155.64 94.1979 155.693 94.3172 155.693 94.4574C155.693 94.5956 155.64 94.715 155.534 94.8153C155.43 94.9138 155.304 94.9631 155.156 94.9631Z" fill="#262626"/>
<path d="M297.362 97.0014V98.2713H293.433V97.0014H297.362ZM301.779 103.091V92.1818H302.478V103.091H301.779ZM303.795 95.6719C303.755 95.2997 303.588 95.0099 303.292 94.8026C303 94.5952 302.619 94.4915 302.15 94.4915C301.821 94.4915 301.538 94.5412 301.302 94.6406C301.066 94.7401 300.886 94.875 300.761 95.0455C300.636 95.2159 300.572 95.4105 300.569 95.6293C300.569 95.8111 300.61 95.9687 300.693 96.1023C300.778 96.2358 300.893 96.3494 301.038 96.4432C301.183 96.5341 301.343 96.6108 301.52 96.6733C301.696 96.7358 301.873 96.7884 302.052 96.831L302.87 97.0355C303.2 97.1122 303.517 97.2159 303.821 97.3466C304.127 97.4773 304.402 97.642 304.643 97.8409C304.887 98.0398 305.081 98.2798 305.223 98.5611C305.365 98.8423 305.436 99.1719 305.436 99.5497C305.436 100.061 305.305 100.511 305.044 100.901C304.782 101.287 304.404 101.589 303.91 101.808C303.419 102.024 302.824 102.132 302.125 102.132C301.446 102.132 300.856 102.027 300.356 101.817C299.859 101.607 299.47 101.3 299.189 100.896C298.91 100.493 298.76 100.001 298.737 99.4219H300.292C300.315 99.7259 300.409 99.9787 300.574 100.18C300.738 100.382 300.953 100.533 301.217 100.632C301.484 100.732 301.782 100.781 302.112 100.781C302.456 100.781 302.757 100.73 303.015 100.628C303.277 100.523 303.481 100.378 303.629 100.193C303.777 100.006 303.852 99.7869 303.855 99.5369C303.852 99.3097 303.785 99.1222 303.654 98.9744C303.524 98.8239 303.341 98.6989 303.105 98.5994C302.872 98.4972 302.599 98.4062 302.287 98.3267L301.294 98.071C300.575 97.8864 300.007 97.6065 299.589 97.2315C299.174 96.8537 298.967 96.3523 298.967 95.7273C298.967 95.2131 299.106 94.7628 299.385 94.3764C299.666 93.9901 300.048 93.6903 300.531 93.4773C301.014 93.2614 301.561 93.1534 302.172 93.1534C302.791 93.1534 303.333 93.2614 303.799 93.4773C304.268 93.6903 304.636 93.9872 304.903 94.3679C305.17 94.7457 305.308 95.1804 305.316 95.6719H303.795ZM306.76 102V100.858L309.79 97.8878C310.08 97.5952 310.321 97.3352 310.514 97.108C310.707 96.8807 310.852 96.6605 310.949 96.4474C311.045 96.2344 311.094 96.0071 311.094 95.7656C311.094 95.4901 311.031 95.2543 310.906 95.0582C310.781 94.8594 310.609 94.706 310.391 94.598C310.172 94.4901 309.923 94.4361 309.645 94.4361C309.358 94.4361 309.107 94.4957 308.891 94.6151C308.675 94.7315 308.507 94.8977 308.388 95.1136C308.271 95.3295 308.213 95.5866 308.213 95.8849H306.709C306.709 95.331 306.835 94.8494 307.088 94.4403C307.341 94.0312 307.689 93.7145 308.132 93.4901C308.578 93.2656 309.089 93.1534 309.666 93.1534C310.251 93.1534 310.766 93.2628 311.209 93.4815C311.652 93.7003 311.996 94 312.24 94.3807C312.487 94.7614 312.611 95.196 312.611 95.6847C312.611 96.0114 312.548 96.3324 312.423 96.6477C312.298 96.9631 312.078 97.3125 311.763 97.696C311.45 98.0795 311.011 98.544 310.446 99.0895L308.942 100.619V100.679H312.743V102H306.76ZM317.345 102.119C316.732 102.119 316.186 102.014 315.709 101.804C315.234 101.594 314.859 101.301 314.584 100.926C314.308 100.551 314.162 100.118 314.145 99.6264H315.747C315.761 99.8622 315.839 100.068 315.982 100.244C316.124 100.418 316.313 100.553 316.548 100.649C316.784 100.746 317.048 100.794 317.341 100.794C317.653 100.794 317.93 100.74 318.172 100.632C318.413 100.521 318.602 100.368 318.739 100.172C318.875 99.9759 318.942 99.75 318.939 99.4943C318.942 99.2301 318.874 98.9972 318.734 98.7955C318.595 98.5937 318.393 98.4361 318.129 98.3224C317.868 98.2088 317.553 98.152 317.183 98.152H316.412V96.9332H317.183C317.487 96.9332 317.753 96.8807 317.98 96.7756C318.21 96.6705 318.391 96.5227 318.521 96.3324C318.652 96.1392 318.716 95.9162 318.713 95.6634C318.716 95.4162 318.661 95.2017 318.547 95.0199C318.436 94.8352 318.278 94.6918 318.074 94.5895C317.872 94.4872 317.635 94.4361 317.362 94.4361C317.095 94.4361 316.848 94.4844 316.621 94.581C316.393 94.6776 316.21 94.8153 316.071 94.9943C315.932 95.1705 315.858 95.3807 315.849 95.625H314.328C314.339 95.1364 314.48 94.7074 314.75 94.3381C315.023 93.9659 315.386 93.6761 315.841 93.4688C316.295 93.2585 316.805 93.1534 317.371 93.1534C317.953 93.1534 318.459 93.2628 318.888 93.4815C319.32 93.6974 319.653 93.9886 319.889 94.3551C320.125 94.7216 320.243 95.1264 320.243 95.5696C320.246 96.0611 320.101 96.473 319.808 96.8054C319.518 97.1378 319.138 97.3551 318.666 97.4574V97.5256C319.28 97.6108 319.75 97.8381 320.077 98.2074C320.406 98.5739 320.57 99.0298 320.567 99.5753C320.567 100.064 320.428 100.501 320.149 100.888C319.874 101.271 319.493 101.572 319.007 101.791C318.524 102.01 317.97 102.119 317.345 102.119ZM325.132 102.119C324.498 102.119 323.936 102.013 323.444 101.8C322.956 101.587 322.572 101.295 322.294 100.926C322.018 100.554 321.882 100.132 321.885 99.6605C321.882 99.294 321.961 98.9574 322.123 98.6506C322.285 98.3438 322.504 98.0881 322.779 97.8835C323.058 97.6761 323.368 97.544 323.708 97.4872V97.4276C323.26 97.3281 322.896 97.0994 322.618 96.7415C322.342 96.3807 322.206 95.9645 322.208 95.4929C322.206 95.044 322.331 94.6435 322.583 94.2912C322.836 93.9389 323.183 93.6619 323.623 93.4602C324.064 93.2557 324.566 93.1534 325.132 93.1534C325.691 93.1534 326.19 93.2557 326.627 93.4602C327.068 93.6619 327.414 93.9389 327.667 94.2912C327.923 94.6435 328.051 95.044 328.051 95.4929C328.051 95.9645 327.91 96.3807 327.629 96.7415C327.35 97.0994 326.991 97.3281 326.551 97.4276V97.4872C326.892 97.544 327.199 97.6761 327.471 97.8835C327.747 98.0881 327.966 98.3438 328.127 98.6506C328.292 98.9574 328.375 99.294 328.375 99.6605C328.375 100.132 328.235 100.554 327.957 100.926C327.679 101.295 327.295 101.587 326.806 101.8C326.321 102.013 325.762 102.119 325.132 102.119ZM325.132 100.901C325.458 100.901 325.743 100.845 325.984 100.734C326.225 100.621 326.413 100.462 326.547 100.257C326.68 100.053 326.748 99.8168 326.751 99.5497C326.748 99.2713 326.676 99.0256 326.534 98.8125C326.395 98.5966 326.203 98.4276 325.958 98.3054C325.717 98.1832 325.441 98.1222 325.132 98.1222C324.819 98.1222 324.541 98.1832 324.297 98.3054C324.052 98.4276 323.859 98.5966 323.717 98.8125C323.578 99.0256 323.51 99.2713 323.512 99.5497C323.51 99.8168 323.575 100.053 323.708 100.257C323.842 100.459 324.029 100.616 324.271 100.73C324.515 100.844 324.802 100.901 325.132 100.901ZM325.132 96.9247C325.399 96.9247 325.635 96.8707 325.839 96.7628C326.047 96.6548 326.21 96.5043 326.329 96.3111C326.449 96.1179 326.51 95.8949 326.512 95.642C326.51 95.392 326.45 95.1733 326.333 94.9858C326.217 94.7955 326.055 94.6491 325.848 94.5469C325.64 94.4418 325.402 94.3892 325.132 94.3892C324.856 94.3892 324.613 94.4418 324.403 94.5469C324.196 94.6491 324.034 94.7955 323.917 94.9858C323.804 95.1733 323.748 95.392 323.751 95.642C323.748 95.8949 323.805 96.1179 323.922 96.3111C324.041 96.5014 324.204 96.652 324.412 96.7628C324.622 96.8707 324.862 96.9247 325.132 96.9247Z" fill="#262626"/>
<path d="M0 121H347" stroke="#D9D9D9"/>
<path d="M20.5 148H18.7045V142.182H20.5795C21.1439 142.182 21.6269 142.298 22.0284 142.531C22.4299 142.762 22.7377 143.095 22.9517 143.528C23.1657 143.96 23.2727 144.477 23.2727 145.08C23.2727 145.686 23.1648 146.207 22.9489 146.645C22.733 147.08 22.4186 147.416 22.0057 147.651C21.5928 147.884 21.0909 148 20.5 148ZM19.4091 147.375H20.4545C20.9356 147.375 21.3343 147.282 21.6506 147.097C21.9669 146.911 22.2027 146.647 22.358 146.304C22.5133 145.961 22.5909 145.553 22.5909 145.08C22.5909 144.61 22.5142 144.205 22.3608 143.866C22.2074 143.526 21.9782 143.264 21.6733 143.082C21.3684 142.899 20.9886 142.807 20.5341 142.807H19.4091V147.375ZM26.1932 148.091C25.7727 148.091 25.41 147.998 25.1051 147.812C24.8021 147.625 24.5682 147.364 24.4034 147.028C24.2405 146.691 24.1591 146.299 24.1591 145.852C24.1591 145.405 24.2405 145.011 24.4034 144.67C24.5682 144.328 24.7973 144.061 25.0909 143.869C25.3864 143.676 25.7311 143.58 26.125 143.58C26.3523 143.58 26.5767 143.617 26.7983 143.693C27.0199 143.769 27.2216 143.892 27.4034 144.062C27.5852 144.231 27.7301 144.455 27.8381 144.733C27.946 145.011 28 145.354 28 145.761V146.045H24.6364V145.466H27.3182C27.3182 145.22 27.2689 145 27.1705 144.807C27.0739 144.614 26.9356 144.461 26.7557 144.349C26.5777 144.238 26.3674 144.182 26.125 144.182C25.858 144.182 25.6269 144.248 25.4318 144.381C25.2386 144.511 25.09 144.682 24.9858 144.892C24.8816 145.102 24.8295 145.328 24.8295 145.568V145.955C24.8295 146.284 24.8864 146.563 25 146.793C25.1155 147.02 25.2756 147.193 25.4801 147.312C25.6847 147.43 25.9223 147.489 26.1932 147.489C26.3693 147.489 26.5284 147.464 26.6705 147.415C26.8144 147.364 26.9384 147.288 27.0426 147.188C27.1468 147.085 27.2273 146.958 27.2841 146.807L27.9318 146.989C27.8636 147.208 27.7491 147.402 27.5881 147.568C27.4271 147.733 27.2282 147.862 26.9915 147.955C26.7547 148.045 26.4886 148.091 26.1932 148.091ZM30.7926 148.091C30.3835 148.091 30.0313 147.994 29.7358 147.801C29.4403 147.608 29.2131 147.342 29.054 147.003C28.8949 146.664 28.8153 146.277 28.8153 145.841C28.8153 145.398 28.8968 145.007 29.0597 144.668C29.2244 144.327 29.4536 144.061 29.7472 143.869C30.0426 143.676 30.3873 143.58 30.7812 143.58C31.0881 143.58 31.3646 143.636 31.6108 143.75C31.857 143.864 32.0587 144.023 32.2159 144.227C32.3731 144.432 32.4706 144.67 32.5085 144.943H31.8381C31.7869 144.744 31.6733 144.568 31.4972 144.415C31.3229 144.259 31.0881 144.182 30.7926 144.182C30.5313 144.182 30.3021 144.25 30.1051 144.386C29.91 144.521 29.7576 144.711 29.6477 144.957C29.5398 145.202 29.4858 145.489 29.4858 145.818C29.4858 146.155 29.5388 146.449 29.6449 146.699C29.7528 146.949 29.9044 147.143 30.0994 147.281C30.2964 147.42 30.5275 147.489 30.7926 147.489C30.9669 147.489 31.125 147.458 31.267 147.398C31.4091 147.337 31.5294 147.25 31.6278 147.136C31.7263 147.023 31.7964 146.886 31.8381 146.727H32.5085C32.4706 146.985 32.3769 147.217 32.2273 147.423C32.0795 147.628 31.8835 147.791 31.6392 147.912C31.3968 148.031 31.1146 148.091 30.7926 148.091ZM34.4886 147.205L34.4432 147.511C34.411 147.727 34.3617 147.958 34.2955 148.205C34.2311 148.451 34.1638 148.683 34.0938 148.901C34.0237 149.118 33.9659 149.292 33.9205 149.42H33.4091C33.4337 149.299 33.4659 149.139 33.5057 148.94C33.5455 148.741 33.5852 148.519 33.625 148.273C33.6667 148.028 33.7008 147.778 33.7273 147.523L33.7614 147.205H34.4886ZM37.9695 148V147.489L39.8899 145.386C40.1153 145.14 40.3009 144.926 40.4467 144.744C40.5926 144.561 40.7005 144.388 40.7706 144.227C40.8426 144.064 40.8786 143.894 40.8786 143.716C40.8786 143.511 40.8293 143.334 40.7308 143.185C40.6342 143.035 40.5017 142.92 40.3331 142.838C40.1645 142.757 39.9751 142.716 39.7649 142.716C39.5414 142.716 39.3464 142.762 39.1797 142.855C39.0149 142.946 38.8871 143.074 38.7962 143.239C38.7071 143.403 38.6626 143.597 38.6626 143.818H37.9922C37.9922 143.477 38.0708 143.178 38.228 142.92C38.3852 142.663 38.5992 142.462 38.87 142.318C39.1428 142.174 39.4486 142.102 39.7876 142.102C40.1286 142.102 40.4306 142.174 40.6939 142.318C40.9571 142.462 41.1636 142.656 41.3132 142.901C41.4628 143.145 41.5376 143.417 41.5376 143.716C41.5376 143.93 41.4988 144.139 41.4212 144.344C41.3454 144.546 41.2128 144.773 41.0234 145.023C40.8359 145.271 40.5755 145.574 40.2422 145.932L38.9354 147.33V147.375H41.6399V148H37.9695ZM42.8132 148V147.489L44.7337 145.386C44.959 145.14 45.1446 144.926 45.2905 144.744C45.4363 144.561 45.5443 144.388 45.6143 144.227C45.6863 144.064 45.7223 143.894 45.7223 143.716C45.7223 143.511 45.6731 143.334 45.5746 143.185C45.478 143.035 45.3454 142.92 45.1768 142.838C45.0083 142.757 44.8189 142.716 44.6087 142.716C44.3852 142.716 44.1901 142.762 44.0234 142.855C43.8587 142.946 43.7308 143.074 43.6399 143.239C43.5509 143.403 43.5064 143.597 43.5064 143.818H42.8359C42.8359 143.477 42.9145 143.178 43.0717 142.92C43.2289 142.663 43.4429 142.462 43.7138 142.318C43.9865 142.174 44.2924 142.102 44.6314 142.102C44.9723 142.102 45.2744 142.174 45.5376 142.318C45.8009 142.462 46.0073 142.656 46.157 142.901C46.3066 143.145 46.3814 143.417 46.3814 143.716C46.3814 143.93 46.3426 144.139 46.2649 144.344C46.1892 144.546 46.0566 144.773 45.8672 145.023C45.6797 145.271 45.4193 145.574 45.0859 145.932L43.7791 147.33V147.375H46.4837V148H42.8132Z" fill="#828282"/>
<path d="M83.6667 151.666H78.3334C77 151.666 76.3334 151 76.3334 149.666V144.333C76.3334 143 77 142.333 78.3334 142.333H81.6667V149.666C81.6667 151 82.3334 151.666 83.6667 151.666Z" stroke="#163D2A" stroke-miterlimit="10" stroke-linecap="round" stroke-linejoin="round"/>
<path d="M81.74 139.667C81.6866 139.867 81.6666 140.087 81.6666 140.334V142.334H78.3333V141C78.3333 140.267 78.9333 139.667 79.6666 139.667H81.74Z" stroke="#163D2A" stroke-miterlimit="10" stroke-linecap="round" stroke-linejoin="round"/>
<path d="M84.3332 142.333V145.666" stroke="#163D2A" stroke-miterlimit="10" stroke-linecap="round" stroke-linejoin="round"/>
<path d="M87 142.333V145.666" stroke="#163D2A" stroke-miterlimit="10" stroke-linecap="round" stroke-linejoin="round"/>
<path d="M86.3332 148.333H84.9998C84.6332 148.333 84.3332 148.633 84.3332 149V151.667H86.9998V149C86.9998 148.633 86.6998 148.333 86.3332 148.333Z" stroke="#163D2A" stroke-miterlimit="10" stroke-linecap="round" stroke-linejoin="round"/>
<path d="M79 145.667V148.333" stroke="#163D2A" stroke-miterlimit="10" stroke-linecap="round" stroke-linejoin="round"/>
<path d="M81.6666 149.667V140.333C81.6666 139 82.3333 138.333 83.6666 138.333H87.6666C88.9999 138.333 89.6666 139 89.6666 140.333V149.667C89.6666 151 88.9999 151.667 87.6666 151.667H83.6666C82.3333 151.667 81.6666 151 81.6666 149.667Z" stroke="#163D2A" stroke-miterlimit="10" stroke-linecap="round" stroke-linejoin="round"/>
<path d="M101.577 144.02C101.522 143.848 101.448 143.693 101.355 143.557C101.264 143.419 101.155 143.301 101.028 143.205C100.902 143.106 100.757 143.031 100.594 142.98C100.433 142.929 100.256 142.903 100.062 142.903C99.7348 142.903 99.4394 142.988 99.1761 143.156C98.9129 143.325 98.7045 143.572 98.5511 143.898C98.3996 144.222 98.3239 144.618 98.3239 145.088C98.3239 145.56 98.4006 145.958 98.554 146.284C98.7074 146.61 98.9176 146.857 99.1847 147.026C99.4517 147.194 99.7557 147.278 100.097 147.278C100.413 147.278 100.688 147.214 100.923 147.085C101.16 146.956 101.343 146.775 101.472 146.54C101.602 146.303 101.668 146.025 101.668 145.705L101.895 145.747H100.23V145.023H102.517V145.685C102.517 146.173 102.413 146.598 102.205 146.957C101.998 147.315 101.712 147.592 101.347 147.787C100.983 147.982 100.566 148.08 100.097 148.08C99.5701 148.08 99.108 147.958 98.7102 147.716C98.3144 147.473 98.0057 147.13 97.7841 146.685C97.5625 146.238 97.4517 145.707 97.4517 145.094C97.4517 144.63 97.5161 144.213 97.6449 143.844C97.7737 143.474 97.9545 143.161 98.1875 142.903C98.4223 142.644 98.6979 142.446 99.0142 142.31C99.3324 142.171 99.6799 142.102 100.057 142.102C100.371 142.102 100.664 142.149 100.935 142.241C101.207 142.334 101.45 142.466 101.662 142.636C101.876 142.807 102.053 143.009 102.193 143.244C102.333 143.477 102.428 143.736 102.477 144.02H101.577ZM105.401 148.088C104.992 148.088 104.635 147.994 104.33 147.807C104.025 147.619 103.789 147.357 103.62 147.02C103.451 146.683 103.367 146.289 103.367 145.838C103.367 145.385 103.451 144.99 103.62 144.651C103.789 144.312 104.025 144.048 104.33 143.861C104.635 143.673 104.992 143.58 105.401 143.58C105.81 143.58 106.167 143.673 106.472 143.861C106.777 144.048 107.014 144.312 107.183 144.651C107.351 144.99 107.435 145.385 107.435 145.838C107.435 146.289 107.351 146.683 107.183 147.02C107.014 147.357 106.777 147.619 106.472 147.807C106.167 147.994 105.81 148.088 105.401 148.088ZM105.404 147.375C105.669 147.375 105.889 147.305 106.063 147.165C106.237 147.025 106.366 146.838 106.45 146.605C106.535 146.372 106.577 146.116 106.577 145.835C106.577 145.557 106.535 145.301 106.45 145.068C106.366 144.833 106.237 144.645 106.063 144.503C105.889 144.361 105.669 144.29 105.404 144.29C105.137 144.29 104.915 144.361 104.739 144.503C104.565 144.645 104.435 144.833 104.35 145.068C104.267 145.301 104.225 145.557 104.225 145.835C104.225 146.116 104.267 146.372 104.35 146.605C104.435 146.838 104.565 147.025 104.739 147.165C104.915 147.305 105.137 147.375 105.404 147.375ZM110.955 145.173V145.909H108.375V145.173H110.955ZM116.987 144.074H116.101C116.067 143.884 116.003 143.718 115.911 143.574C115.818 143.43 115.704 143.308 115.57 143.207C115.435 143.107 115.285 143.031 115.118 142.98C114.953 142.929 114.778 142.903 114.592 142.903C114.257 142.903 113.957 142.988 113.692 143.156C113.429 143.325 113.22 143.572 113.067 143.898C112.915 144.223 112.839 144.621 112.839 145.091C112.839 145.564 112.915 145.964 113.067 146.29C113.22 146.616 113.429 146.862 113.695 147.028C113.96 147.195 114.258 147.278 114.589 147.278C114.773 147.278 114.947 147.254 115.112 147.205C115.279 147.153 115.429 147.079 115.564 146.98C115.698 146.882 115.812 146.761 115.905 146.619C116 146.475 116.065 146.311 116.101 146.125L116.987 146.128C116.94 146.414 116.848 146.677 116.712 146.918C116.577 147.156 116.404 147.363 116.192 147.537C115.982 147.709 115.741 147.843 115.47 147.938C115.199 148.032 114.904 148.08 114.584 148.08C114.08 148.08 113.631 147.96 113.237 147.722C112.843 147.481 112.533 147.137 112.305 146.69C112.08 146.243 111.967 145.71 111.967 145.091C111.967 144.47 112.081 143.937 112.308 143.491C112.536 143.045 112.846 142.702 113.24 142.463C113.634 142.223 114.082 142.102 114.584 142.102C114.893 142.102 115.18 142.147 115.447 142.236C115.716 142.323 115.958 142.452 116.172 142.622C116.386 142.791 116.563 142.997 116.703 143.241C116.843 143.484 116.938 143.761 116.987 144.074ZM118.819 142.182V148H117.969V142.182H118.819ZM121.842 148.088C121.412 148.088 121.042 147.996 120.732 147.812C120.423 147.627 120.184 147.366 120.016 147.031C119.849 146.694 119.766 146.299 119.766 145.847C119.766 145.4 119.849 145.006 120.016 144.665C120.184 144.324 120.419 144.058 120.72 143.866C121.023 143.675 121.377 143.58 121.783 143.58C122.029 143.58 122.268 143.62 122.499 143.702C122.73 143.783 122.937 143.911 123.121 144.085C123.304 144.259 123.449 144.486 123.555 144.764C123.661 145.041 123.714 145.377 123.714 145.773V146.074H120.246V145.438H122.882C122.882 145.214 122.837 145.016 122.746 144.844C122.655 144.67 122.527 144.532 122.362 144.432C122.199 144.331 122.008 144.281 121.788 144.281C121.55 144.281 121.341 144.34 121.163 144.457C120.987 144.573 120.851 144.724 120.754 144.912C120.66 145.098 120.612 145.299 120.612 145.517V146.014C120.612 146.306 120.663 146.554 120.766 146.759C120.87 146.963 121.015 147.119 121.2 147.227C121.386 147.333 121.603 147.386 121.851 147.386C122.012 147.386 122.159 147.364 122.291 147.318C122.424 147.271 122.538 147.201 122.635 147.108C122.732 147.015 122.805 146.901 122.857 146.764L123.661 146.909C123.596 147.146 123.481 147.353 123.314 147.531C123.149 147.707 122.942 147.845 122.692 147.943C122.444 148.04 122.161 148.088 121.842 148.088ZM125.927 148.097C125.65 148.097 125.4 148.045 125.177 147.943C124.953 147.839 124.776 147.688 124.646 147.491C124.517 147.295 124.452 147.053 124.452 146.767C124.452 146.521 124.5 146.318 124.594 146.159C124.689 146 124.817 145.874 124.978 145.781C125.139 145.688 125.319 145.618 125.518 145.571C125.717 145.524 125.919 145.488 126.126 145.463C126.387 145.433 126.599 145.408 126.762 145.389C126.925 145.368 127.043 145.335 127.117 145.29C127.191 145.244 127.228 145.17 127.228 145.068V145.048C127.228 144.8 127.158 144.608 127.018 144.472C126.879 144.335 126.673 144.267 126.398 144.267C126.112 144.267 125.887 144.33 125.722 144.457C125.559 144.582 125.447 144.722 125.384 144.875L124.586 144.693C124.681 144.428 124.819 144.214 125.001 144.051C125.184 143.886 125.396 143.767 125.634 143.693C125.873 143.617 126.124 143.58 126.387 143.58C126.561 143.58 126.746 143.6 126.941 143.642C127.138 143.682 127.322 143.756 127.492 143.864C127.665 143.972 127.806 144.126 127.915 144.327C128.025 144.526 128.08 144.784 128.08 145.102V148H127.251V147.403H127.217C127.162 147.513 127.079 147.621 126.969 147.727C126.86 147.833 126.719 147.921 126.546 147.991C126.374 148.062 126.167 148.097 125.927 148.097ZM126.112 147.415C126.346 147.415 126.547 147.368 126.714 147.276C126.882 147.183 127.01 147.062 127.097 146.912C127.186 146.76 127.231 146.598 127.231 146.426V145.864C127.201 145.894 127.142 145.922 127.055 145.949C126.969 145.973 126.872 145.995 126.762 146.014C126.652 146.031 126.545 146.047 126.441 146.062C126.337 146.076 126.25 146.087 126.18 146.097C126.015 146.117 125.864 146.152 125.728 146.202C125.594 146.251 125.486 146.322 125.404 146.415C125.325 146.506 125.285 146.627 125.285 146.778C125.285 146.989 125.362 147.148 125.518 147.256C125.673 147.362 125.871 147.415 126.112 147.415ZM130.061 145.409V148H129.212V143.636H130.027V144.347H130.081C130.181 144.116 130.339 143.93 130.553 143.79C130.768 143.65 131.04 143.58 131.368 143.58C131.665 143.58 131.926 143.642 132.149 143.767C132.373 143.89 132.546 144.074 132.669 144.318C132.792 144.562 132.854 144.865 132.854 145.224V148H132.004V145.327C132.004 145.01 131.922 144.763 131.757 144.585C131.592 144.405 131.366 144.315 131.078 144.315C130.881 144.315 130.706 144.358 130.553 144.443C130.401 144.528 130.281 144.653 130.192 144.818C130.105 144.981 130.061 145.178 130.061 145.409Z" fill="#262626"/>
<path d="M297.362 145.001V146.271H293.433V145.001H297.362ZM301.779 151.091V140.182H302.478V151.091H301.779ZM303.795 143.672C303.755 143.3 303.588 143.01 303.292 142.803C303 142.595 302.619 142.491 302.15 142.491C301.821 142.491 301.538 142.541 301.302 142.641C301.066 142.74 300.886 142.875 300.761 143.045C300.636 143.216 300.572 143.411 300.569 143.629C300.569 143.811 300.61 143.969 300.693 144.102C300.778 144.236 300.893 144.349 301.038 144.443C301.183 144.534 301.343 144.611 301.52 144.673C301.696 144.736 301.873 144.788 302.052 144.831L302.87 145.036C303.2 145.112 303.517 145.216 303.821 145.347C304.127 145.477 304.402 145.642 304.643 145.841C304.887 146.04 305.081 146.28 305.223 146.561C305.365 146.842 305.436 147.172 305.436 147.55C305.436 148.061 305.305 148.511 305.044 148.901C304.782 149.287 304.404 149.589 303.91 149.808C303.419 150.024 302.824 150.132 302.125 150.132C301.446 150.132 300.856 150.027 300.356 149.817C299.859 149.607 299.47 149.3 299.189 148.896C298.91 148.493 298.76 148.001 298.737 147.422H300.292C300.315 147.726 300.409 147.979 300.574 148.18C300.738 148.382 300.953 148.533 301.217 148.632C301.484 148.732 301.782 148.781 302.112 148.781C302.456 148.781 302.757 148.73 303.015 148.628C303.277 148.523 303.481 148.378 303.629 148.193C303.777 148.006 303.852 147.787 303.855 147.537C303.852 147.31 303.785 147.122 303.654 146.974C303.524 146.824 303.341 146.699 303.105 146.599C302.872 146.497 302.599 146.406 302.287 146.327L301.294 146.071C300.575 145.886 300.007 145.607 299.589 145.232C299.174 144.854 298.967 144.352 298.967 143.727C298.967 143.213 299.106 142.763 299.385 142.376C299.666 141.99 300.048 141.69 300.531 141.477C301.014 141.261 301.561 141.153 302.172 141.153C302.791 141.153 303.333 141.261 303.799 141.477C304.268 141.69 304.636 141.987 304.903 142.368C305.17 142.746 305.308 143.18 305.316 143.672H303.795ZM306.76 150V148.858L309.79 145.888C310.08 145.595 310.321 145.335 310.514 145.108C310.707 144.881 310.852 144.661 310.949 144.447C311.045 144.234 311.094 144.007 311.094 143.766C311.094 143.49 311.031 143.254 310.906 143.058C310.781 142.859 310.609 142.706 310.391 142.598C310.172 142.49 309.923 142.436 309.645 142.436C309.358 142.436 309.107 142.496 308.891 142.615C308.675 142.732 308.507 142.898 308.388 143.114C308.271 143.33 308.213 143.587 308.213 143.885H306.709C306.709 143.331 306.835 142.849 307.088 142.44C307.341 142.031 307.689 141.714 308.132 141.49C308.578 141.266 309.089 141.153 309.666 141.153C310.251 141.153 310.766 141.263 311.209 141.482C311.652 141.7 311.996 142 312.24 142.381C312.487 142.761 312.611 143.196 312.611 143.685C312.611 144.011 312.548 144.332 312.423 144.648C312.298 144.963 312.078 145.312 311.763 145.696C311.45 146.08 311.011 146.544 310.446 147.089L308.942 148.619V148.679H312.743V150H306.76ZM317.345 150.119C316.732 150.119 316.186 150.014 315.709 149.804C315.234 149.594 314.859 149.301 314.584 148.926C314.308 148.551 314.162 148.118 314.145 147.626H315.747C315.761 147.862 315.839 148.068 315.982 148.244C316.124 148.418 316.313 148.553 316.548 148.649C316.784 148.746 317.048 148.794 317.341 148.794C317.653 148.794 317.93 148.74 318.172 148.632C318.413 148.521 318.602 148.368 318.739 148.172C318.875 147.976 318.942 147.75 318.939 147.494C318.942 147.23 318.874 146.997 318.734 146.795C318.595 146.594 318.393 146.436 318.129 146.322C317.868 146.209 317.553 146.152 317.183 146.152H316.412V144.933H317.183C317.487 144.933 317.753 144.881 317.98 144.776C318.21 144.67 318.391 144.523 318.521 144.332C318.652 144.139 318.716 143.916 318.713 143.663C318.716 143.416 318.661 143.202 318.547 143.02C318.436 142.835 318.278 142.692 318.074 142.589C317.872 142.487 317.635 142.436 317.362 142.436C317.095 142.436 316.848 142.484 316.621 142.581C316.393 142.678 316.21 142.815 316.071 142.994C315.932 143.17 315.858 143.381 315.849 143.625H314.328C314.339 143.136 314.48 142.707 314.75 142.338C315.023 141.966 315.386 141.676 315.841 141.469C316.295 141.259 316.805 141.153 317.371 141.153C317.953 141.153 318.459 141.263 318.888 141.482C319.32 141.697 319.653 141.989 319.889 142.355C320.125 142.722 320.243 143.126 320.243 143.57C320.246 144.061 320.101 144.473 319.808 144.805C319.518 145.138 319.138 145.355 318.666 145.457V145.526C319.28 145.611 319.75 145.838 320.077 146.207C320.406 146.574 320.57 147.03 320.567 147.575C320.567 148.064 320.428 148.501 320.149 148.888C319.874 149.271 319.493 149.572 319.007 149.791C318.524 150.01 317.97 150.119 317.345 150.119ZM325.132 150.119C324.498 150.119 323.936 150.013 323.444 149.8C322.956 149.587 322.572 149.295 322.294 148.926C322.018 148.554 321.882 148.132 321.885 147.661C321.882 147.294 321.961 146.957 322.123 146.651C322.285 146.344 322.504 146.088 322.779 145.884C323.058 145.676 323.368 145.544 323.708 145.487V145.428C323.26 145.328 322.896 145.099 322.618 144.741C322.342 144.381 322.206 143.964 322.208 143.493C322.206 143.044 322.331 142.643 322.583 142.291C322.836 141.939 323.183 141.662 323.623 141.46C324.064 141.256 324.566 141.153 325.132 141.153C325.691 141.153 326.19 141.256 326.627 141.46C327.068 141.662 327.414 141.939 327.667 142.291C327.923 142.643 328.051 143.044 328.051 143.493C328.051 143.964 327.91 144.381 327.629 144.741C327.35 145.099 326.991 145.328 326.551 145.428V145.487C326.892 145.544 327.199 145.676 327.471 145.884C327.747 146.088 327.966 146.344 328.127 146.651C328.292 146.957 328.375 147.294 328.375 147.661C328.375 148.132 328.235 148.554 327.957 148.926C327.679 149.295 327.295 149.587 326.806 149.8C326.321 150.013 325.762 150.119 325.132 150.119ZM325.132 148.901C325.458 148.901 325.743 148.845 325.984 148.734C326.225 148.621 326.413 148.462 326.547 148.257C326.68 148.053 326.748 147.817 326.751 147.55C326.748 147.271 326.676 147.026 326.534 146.812C326.395 146.597 326.203 146.428 325.958 146.305C325.717 146.183 325.441 146.122 325.132 146.122C324.819 146.122 324.541 146.183 324.297 146.305C324.052 146.428 323.859 146.597 323.717 146.812C323.578 147.026 323.51 147.271 323.512 147.55C323.51 147.817 323.575 148.053 323.708 148.257C323.842 148.459 324.029 148.616 324.271 148.73C324.515 148.844 324.802 148.901 325.132 148.901ZM325.132 144.925C325.399 144.925 325.635 144.871 325.839 144.763C326.047 144.655 326.21 144.504 326.329 144.311C326.449 144.118 326.51 143.895 326.512 143.642C326.51 143.392 326.45 143.173 326.333 142.986C326.217 142.795 326.055 142.649 325.848 142.547C325.64 142.442 325.402 142.389 325.132 142.389C324.856 142.389 324.613 142.442 324.403 142.547C324.196 142.649 324.034 142.795 323.917 142.986C323.804 143.173 323.748 143.392 323.751 143.642C323.748 143.895 323.805 144.118 323.922 144.311C324.041 144.501 324.204 144.652 324.412 144.763C324.622 144.871 324.862 144.925 325.132 144.925Z" fill="#262626"/>
<path d="M0 169H347" stroke="#D9D9D9"/>
<path d="M20.5 196H18.7045V190.182H20.5795C21.1439 190.182 21.6269 190.298 22.0284 190.531C22.4299 190.762 22.7377 191.095 22.9517 191.528C23.1657 191.96 23.2727 192.477 23.2727 193.08C23.2727 193.686 23.1648 194.207 22.9489 194.645C22.733 195.08 22.4186 195.416 22.0057 195.651C21.5928 195.884 21.0909 196 20.5 196ZM19.4091 195.375H20.4545C20.9356 195.375 21.3343 195.282 21.6506 195.097C21.9669 194.911 22.2027 194.647 22.358 194.304C22.5133 193.961 22.5909 193.553 22.5909 193.08C22.5909 192.61 22.5142 192.205 22.3608 191.866C22.2074 191.526 21.9782 191.264 21.6733 191.082C21.3684 190.899 20.9886 190.807 20.5341 190.807H19.4091V195.375ZM26.1932 196.091C25.7727 196.091 25.41 195.998 25.1051 195.812C24.8021 195.625 24.5682 195.364 24.4034 195.028C24.2405 194.691 24.1591 194.299 24.1591 193.852C24.1591 193.405 24.2405 193.011 24.4034 192.67C24.5682 192.328 24.7973 192.061 25.0909 191.869C25.3864 191.676 25.7311 191.58 26.125 191.58C26.3523 191.58 26.5767 191.617 26.7983 191.693C27.0199 191.769 27.2216 191.892 27.4034 192.062C27.5852 192.231 27.7301 192.455 27.8381 192.733C27.946 193.011 28 193.354 28 193.761V194.045H24.6364V193.466H27.3182C27.3182 193.22 27.2689 193 27.1705 192.807C27.0739 192.614 26.9356 192.461 26.7557 192.349C26.5777 192.238 26.3674 192.182 26.125 192.182C25.858 192.182 25.6269 192.248 25.4318 192.381C25.2386 192.511 25.09 192.682 24.9858 192.892C24.8816 193.102 24.8295 193.328 24.8295 193.568V193.955C24.8295 194.284 24.8864 194.563 25 194.793C25.1155 195.02 25.2756 195.193 25.4801 195.312C25.6847 195.43 25.9223 195.489 26.1932 195.489C26.3693 195.489 26.5284 195.464 26.6705 195.415C26.8144 195.364 26.9384 195.288 27.0426 195.188C27.1468 195.085 27.2273 194.958 27.2841 194.807L27.9318 194.989C27.8636 195.208 27.7491 195.402 27.5881 195.568C27.4271 195.733 27.2282 195.862 26.9915 195.955C26.7547 196.045 26.4886 196.091 26.1932 196.091ZM30.7926 196.091C30.3835 196.091 30.0313 195.994 29.7358 195.801C29.4403 195.608 29.2131 195.342 29.054 195.003C28.8949 194.664 28.8153 194.277 28.8153 193.841C28.8153 193.398 28.8968 193.007 29.0597 192.668C29.2244 192.327 29.4536 192.061 29.7472 191.869C30.0426 191.676 30.3873 191.58 30.7812 191.58C31.0881 191.58 31.3646 191.636 31.6108 191.75C31.857 191.864 32.0587 192.023 32.2159 192.227C32.3731 192.432 32.4706 192.67 32.5085 192.943H31.8381C31.7869 192.744 31.6733 192.568 31.4972 192.415C31.3229 192.259 31.0881 192.182 30.7926 192.182C30.5313 192.182 30.3021 192.25 30.1051 192.386C29.91 192.521 29.7576 192.711 29.6477 192.957C29.5398 193.202 29.4858 193.489 29.4858 193.818C29.4858 194.155 29.5388 194.449 29.6449 194.699C29.7528 194.949 29.9044 195.143 30.0994 195.281C30.2964 195.42 30.5275 195.489 30.7926 195.489C30.9669 195.489 31.125 195.458 31.267 195.398C31.4091 195.337 31.5294 195.25 31.6278 195.136C31.7263 195.023 31.7964 194.886 31.8381 194.727H32.5085C32.4706 194.985 32.3769 195.217 32.2273 195.423C32.0795 195.628 31.8835 195.791 31.6392 195.912C31.3968 196.031 31.1146 196.091 30.7926 196.091ZM34.4886 195.205L34.4432 195.511C34.411 195.727 34.3617 195.958 34.2955 196.205C34.2311 196.451 34.1638 196.683 34.0938 196.901C34.0237 197.118 33.9659 197.292 33.9205 197.42H33.4091C33.4337 197.299 33.4659 197.139 33.5057 196.94C33.5455 196.741 33.5852 196.519 33.625 196.273C33.6667 196.028 33.7008 195.778 33.7273 195.523L33.7614 195.205H34.4886ZM37.9695 196V195.489L39.8899 193.386C40.1153 193.14 40.3009 192.926 40.4467 192.744C40.5926 192.561 40.7005 192.388 40.7706 192.227C40.8426 192.064 40.8786 191.894 40.8786 191.716C40.8786 191.511 40.8293 191.334 40.7308 191.185C40.6342 191.035 40.5017 190.92 40.3331 190.838C40.1645 190.757 39.9751 190.716 39.7649 190.716C39.5414 190.716 39.3464 190.762 39.1797 190.855C39.0149 190.946 38.8871 191.074 38.7962 191.239C38.7071 191.403 38.6626 191.597 38.6626 191.818H37.9922C37.9922 191.477 38.0708 191.178 38.228 190.92C38.3852 190.663 38.5992 190.462 38.87 190.318C39.1428 190.174 39.4486 190.102 39.7876 190.102C40.1286 190.102 40.4306 190.174 40.6939 190.318C40.9571 190.462 41.1636 190.656 41.3132 190.901C41.4628 191.145 41.5376 191.417 41.5376 191.716C41.5376 191.93 41.4988 192.139 41.4212 192.344C41.3454 192.546 41.2128 192.773 41.0234 193.023C40.8359 193.271 40.5755 193.574 40.2422 193.932L38.9354 195.33V195.375H41.6399V196H37.9695ZM42.8132 196V195.489L44.7337 193.386C44.959 193.14 45.1446 192.926 45.2905 192.744C45.4363 192.561 45.5443 192.388 45.6143 192.227C45.6863 192.064 45.7223 191.894 45.7223 191.716C45.7223 191.511 45.6731 191.334 45.5746 191.185C45.478 191.035 45.3454 190.92 45.1768 190.838C45.0083 190.757 44.8189 190.716 44.6087 190.716C44.3852 190.716 44.1901 190.762 44.0234 190.855C43.8587 190.946 43.7308 191.074 43.6399 191.239C43.5509 191.403 43.5064 191.597 43.5064 191.818H42.8359C42.8359 191.477 42.9145 191.178 43.0717 190.92C43.2289 190.663 43.4429 190.462 43.7138 190.318C43.9865 190.174 44.2924 190.102 44.6314 190.102C44.9723 190.102 45.2744 190.174 45.5376 190.318C45.8009 190.462 46.0073 190.656 46.157 190.901C46.3066 191.145 46.3814 191.417 46.3814 191.716C46.3814 191.93 46.3426 192.139 46.2649 192.344C46.1892 192.546 46.0566 192.773 45.8672 193.023C45.6797 193.271 45.4193 193.574 45.0859 193.932L43.7791 195.33V195.375H46.4837V196H42.8132Z" fill="#828282"/>
<path d="M85.3396 186.887H80.6596C78.9996 186.887 78.633 187.713 78.4196 188.727L77.6663 192.333H88.333L87.5796 188.727C87.3663 187.713 86.9996 186.887 85.3396 186.887Z" stroke="#163D2A" stroke-linecap="round" stroke-linejoin="round"/>
<path d="M89.6599 198.213C89.7332 198.993 89.1066 199.667 88.3066 199.667H87.0532C86.3332 199.667 86.2332 199.36 86.1066 198.98L85.9732 198.58C85.7866 198.033 85.6666 197.667 84.7066 197.667H81.2932C80.3332 197.667 80.1932 198.08 80.0266 198.58L79.8932 198.98C79.7666 199.36 79.6666 199.667 78.9466 199.667H77.6932C76.8932 199.667 76.2666 198.993 76.3399 198.213L76.7132 194.153C76.8066 193.153 76.9999 192.333 78.7466 192.333H87.2532C88.9999 192.333 89.1932 193.153 89.2866 194.153L89.6599 198.213Z" stroke="#163D2A" stroke-linecap="round" stroke-linejoin="round"/>
<path d="M77.6659 190.333H76.9997" stroke="#163D2A" stroke-linecap="round" stroke-linejoin="round"/>
<path d="M88.9995 190.333H88.3333" stroke="#163D2A" stroke-linecap="round" stroke-linejoin="round"/>
<path d="M82.9996 187V188.333" stroke="#163D2A" stroke-linecap="round" stroke-linejoin="round"/>
<path d="M81.9998 188.333H83.9998" stroke="#163D2A" stroke-linecap="round" stroke-linejoin="round"/>
<path d="M78.9998 195H80.9998" stroke="#163D2A" stroke-linecap="round" stroke-linejoin="round"/>
<path d="M84.9998 195H86.9998" stroke="#163D2A" stroke-linecap="round" stroke-linejoin="round"/>
<path d="M102.472 192.074H101.585C101.551 191.884 101.488 191.718 101.395 191.574C101.302 191.43 101.188 191.308 101.054 191.207C100.92 191.107 100.769 191.031 100.602 190.98C100.438 190.929 100.262 190.903 100.077 190.903C99.7415 190.903 99.4413 190.988 99.1761 191.156C98.9129 191.325 98.7045 191.572 98.5511 191.898C98.3996 192.223 98.3239 192.621 98.3239 193.091C98.3239 193.564 98.3996 193.964 98.5511 194.29C98.7045 194.616 98.9138 194.862 99.179 195.028C99.4441 195.195 99.7424 195.278 100.074 195.278C100.258 195.278 100.432 195.254 100.597 195.205C100.763 195.153 100.914 195.079 101.048 194.98C101.183 194.882 101.296 194.761 101.389 194.619C101.484 194.475 101.549 194.311 101.585 194.125L102.472 194.128C102.424 194.414 102.332 194.677 102.196 194.918C102.062 195.156 101.888 195.363 101.676 195.537C101.466 195.709 101.225 195.843 100.955 195.938C100.684 196.032 100.388 196.08 100.068 196.08C99.5644 196.08 99.1155 195.96 98.7216 195.722C98.3277 195.481 98.017 195.137 97.7898 194.69C97.5644 194.243 97.4517 193.71 97.4517 193.091C97.4517 192.47 97.5653 191.937 97.7926 191.491C98.0199 191.045 98.3305 190.702 98.7244 190.463C99.1184 190.223 99.5663 190.102 100.068 190.102C100.377 190.102 100.665 190.147 100.932 190.236C101.201 190.323 101.442 190.452 101.656 190.622C101.87 190.791 102.047 190.997 102.188 191.241C102.328 191.484 102.422 191.761 102.472 192.074ZM104.724 196.097C104.447 196.097 104.197 196.045 103.974 195.943C103.75 195.839 103.573 195.688 103.442 195.491C103.314 195.295 103.249 195.053 103.249 194.767C103.249 194.521 103.297 194.318 103.391 194.159C103.486 194 103.614 193.874 103.775 193.781C103.936 193.688 104.116 193.618 104.315 193.571C104.513 193.524 104.716 193.488 104.923 193.463C105.184 193.433 105.396 193.408 105.559 193.389C105.722 193.368 105.84 193.335 105.914 193.29C105.988 193.244 106.025 193.17 106.025 193.068V193.048C106.025 192.8 105.955 192.608 105.815 192.472C105.676 192.335 105.47 192.267 105.195 192.267C104.909 192.267 104.684 192.33 104.519 192.457C104.356 192.582 104.244 192.722 104.181 192.875L103.383 192.693C103.478 192.428 103.616 192.214 103.798 192.051C103.981 191.886 104.192 191.767 104.431 191.693C104.67 191.617 104.921 191.58 105.184 191.58C105.358 191.58 105.543 191.6 105.738 191.642C105.935 191.682 106.119 191.756 106.289 191.864C106.461 191.972 106.603 192.126 106.712 192.327C106.822 192.526 106.877 192.784 106.877 193.102V196H106.048V195.403H106.013C105.959 195.513 105.876 195.621 105.766 195.727C105.656 195.833 105.515 195.921 105.343 195.991C105.171 196.062 104.964 196.097 104.724 196.097ZM104.908 195.415C105.143 195.415 105.344 195.368 105.511 195.276C105.679 195.183 105.807 195.062 105.894 194.912C105.983 194.76 106.028 194.598 106.028 194.426V193.864C105.997 193.894 105.939 193.922 105.852 193.949C105.766 193.973 105.669 193.995 105.559 194.014C105.449 194.031 105.342 194.047 105.238 194.062C105.134 194.076 105.047 194.087 104.977 194.097C104.812 194.117 104.661 194.152 104.525 194.202C104.39 194.251 104.282 194.322 104.201 194.415C104.121 194.506 104.082 194.627 104.082 194.778C104.082 194.989 104.159 195.148 104.315 195.256C104.47 195.362 104.668 195.415 104.908 195.415ZM108.009 196V191.636H108.83V192.33H108.875C108.955 192.095 109.095 191.91 109.295 191.776C109.498 191.639 109.727 191.571 109.983 191.571C110.036 191.571 110.098 191.573 110.17 191.577C110.244 191.58 110.302 191.585 110.344 191.591V192.403C110.31 192.394 110.249 192.384 110.162 192.372C110.075 192.359 109.988 192.352 109.901 192.352C109.7 192.352 109.521 192.395 109.364 192.48C109.208 192.563 109.085 192.68 108.994 192.83C108.903 192.977 108.858 193.146 108.858 193.335V196H108.009ZM113.264 196V190.182H115.338C115.789 190.182 116.163 190.259 116.46 190.415C116.759 190.57 116.983 190.785 117.131 191.06C117.278 191.332 117.352 191.648 117.352 192.006C117.352 192.362 117.277 192.675 117.128 192.946C116.98 193.215 116.757 193.424 116.457 193.574C116.16 193.723 115.786 193.798 115.335 193.798H113.764V193.043H115.256C115.54 193.043 115.771 193.002 115.949 192.92C116.129 192.839 116.26 192.721 116.344 192.565C116.427 192.41 116.469 192.223 116.469 192.006C116.469 191.786 116.426 191.596 116.341 191.435C116.258 191.274 116.126 191.151 115.946 191.065C115.768 190.978 115.534 190.935 115.244 190.935H114.142V196H113.264ZM116.136 193.375L117.574 196H116.574L115.165 193.375H116.136ZM120.178 196.088C119.748 196.088 119.378 195.996 119.067 195.812C118.759 195.627 118.52 195.366 118.352 195.031C118.185 194.694 118.102 194.299 118.102 193.847C118.102 193.4 118.185 193.006 118.352 192.665C118.52 192.324 118.755 192.058 119.056 191.866C119.359 191.675 119.713 191.58 120.119 191.58C120.365 191.58 120.603 191.62 120.835 191.702C121.066 191.783 121.273 191.911 121.457 192.085C121.64 192.259 121.785 192.486 121.891 192.764C121.997 193.041 122.05 193.377 122.05 193.773V194.074H118.582V193.438H121.218C121.218 193.214 121.173 193.016 121.082 192.844C120.991 192.67 120.863 192.532 120.698 192.432C120.535 192.331 120.344 192.281 120.124 192.281C119.886 192.281 119.677 192.34 119.499 192.457C119.323 192.573 119.187 192.724 119.09 192.912C118.996 193.098 118.948 193.299 118.948 193.517V194.014C118.948 194.306 118.999 194.554 119.102 194.759C119.206 194.963 119.351 195.119 119.536 195.227C119.722 195.333 119.939 195.386 120.187 195.386C120.348 195.386 120.495 195.364 120.627 195.318C120.76 195.271 120.874 195.201 120.971 195.108C121.067 195.015 121.141 194.901 121.192 194.764L121.996 194.909C121.932 195.146 121.817 195.353 121.65 195.531C121.485 195.707 121.278 195.845 121.028 195.943C120.78 196.04 120.496 196.088 120.178 196.088ZM122.993 197.636V191.636H123.822V192.344H123.893C123.943 192.253 124.014 192.148 124.107 192.028C124.199 191.909 124.328 191.805 124.493 191.716C124.658 191.625 124.875 191.58 125.146 191.58C125.499 191.58 125.813 191.669 126.089 191.847C126.366 192.025 126.583 192.281 126.74 192.616C126.899 192.952 126.979 193.355 126.979 193.827C126.979 194.298 126.9 194.703 126.743 195.04C126.586 195.375 126.37 195.634 126.095 195.815C125.821 195.995 125.507 196.085 125.155 196.085C124.89 196.085 124.673 196.041 124.504 195.952C124.338 195.863 124.207 195.759 124.112 195.639C124.018 195.52 123.945 195.414 123.893 195.321H123.842V197.636H122.993ZM123.825 193.818C123.825 194.125 123.87 194.394 123.959 194.625C124.048 194.856 124.177 195.037 124.345 195.168C124.514 195.296 124.72 195.361 124.964 195.361C125.218 195.361 125.43 195.294 125.601 195.159C125.771 195.023 125.9 194.838 125.987 194.605C126.076 194.372 126.121 194.11 126.121 193.818C126.121 193.53 126.077 193.272 125.99 193.043C125.905 192.813 125.776 192.633 125.604 192.5C125.433 192.367 125.22 192.301 124.964 192.301C124.718 192.301 124.51 192.365 124.339 192.491C124.171 192.618 124.043 192.795 123.956 193.023C123.869 193.25 123.825 193.515 123.825 193.818ZM129.2 196.097C128.924 196.097 128.674 196.045 128.45 195.943C128.227 195.839 128.05 195.688 127.919 195.491C127.79 195.295 127.726 195.053 127.726 194.767C127.726 194.521 127.773 194.318 127.868 194.159C127.963 194 128.09 193.874 128.251 193.781C128.412 193.688 128.592 193.618 128.791 193.571C128.99 193.524 129.193 193.488 129.399 193.463C129.661 193.433 129.873 193.408 130.036 193.389C130.198 193.368 130.317 193.335 130.391 193.29C130.464 193.244 130.501 193.17 130.501 193.068V193.048C130.501 192.8 130.431 192.608 130.291 192.472C130.153 192.335 129.946 192.267 129.672 192.267C129.386 192.267 129.161 192.33 128.996 192.457C128.833 192.582 128.72 192.722 128.658 192.875L127.859 192.693C127.954 192.428 128.092 192.214 128.274 192.051C128.458 191.886 128.669 191.767 128.908 191.693C129.146 191.617 129.397 191.58 129.661 191.58C129.835 191.58 130.019 191.6 130.214 191.642C130.411 191.682 130.595 191.756 130.766 191.864C130.938 191.972 131.079 192.126 131.189 192.327C131.299 192.526 131.354 192.784 131.354 193.102V196H130.524V195.403H130.49C130.435 195.513 130.353 195.621 130.243 195.727C130.133 195.833 129.992 195.921 129.82 195.991C129.647 196.062 129.441 196.097 129.2 196.097ZM129.385 195.415C129.62 195.415 129.821 195.368 129.987 195.276C130.156 195.183 130.284 195.062 130.371 194.912C130.46 194.76 130.504 194.598 130.504 194.426V193.864C130.474 193.894 130.415 193.922 130.328 193.949C130.243 193.973 130.145 193.995 130.036 194.014C129.926 194.031 129.819 194.047 129.714 194.062C129.61 194.076 129.523 194.087 129.453 194.097C129.288 194.117 129.138 194.152 129.001 194.202C128.867 194.251 128.759 194.322 128.678 194.415C128.598 194.506 128.558 194.627 128.558 194.778C128.558 194.989 128.636 195.148 128.791 195.256C128.946 195.362 129.144 195.415 129.385 195.415ZM132.485 196V191.636H133.335V196H132.485ZM132.914 190.963C132.766 190.963 132.639 190.914 132.533 190.815C132.429 190.715 132.377 190.596 132.377 190.457C132.377 190.317 132.429 190.198 132.533 190.099C132.639 189.999 132.766 189.949 132.914 189.949C133.062 189.949 133.188 189.999 133.292 190.099C133.398 190.198 133.451 190.317 133.451 190.457C133.451 190.596 133.398 190.715 133.292 190.815C133.188 190.914 133.062 190.963 132.914 190.963ZM134.477 196V191.636H135.298V192.33H135.344C135.423 192.095 135.563 191.91 135.764 191.776C135.967 191.639 136.196 191.571 136.452 191.571C136.505 191.571 136.567 191.573 136.639 191.577C136.713 191.58 136.771 191.585 136.812 191.591V192.403C136.778 192.394 136.718 192.384 136.631 192.372C136.544 192.359 136.456 192.352 136.369 192.352C136.169 192.352 135.99 192.395 135.832 192.48C135.677 192.563 135.554 192.68 135.463 192.83C135.372 192.977 135.327 193.146 135.327 193.335V196H134.477ZM139.272 196.088C138.842 196.088 138.472 195.996 138.161 195.812C137.853 195.627 137.614 195.366 137.445 195.031C137.279 194.694 137.195 194.299 137.195 193.847C137.195 193.4 137.279 193.006 137.445 192.665C137.614 192.324 137.849 192.058 138.15 191.866C138.453 191.675 138.807 191.58 139.212 191.58C139.459 191.58 139.697 191.62 139.928 191.702C140.159 191.783 140.367 191.911 140.55 192.085C140.734 192.259 140.879 192.486 140.985 192.764C141.091 193.041 141.144 193.377 141.144 193.773V194.074H137.675V193.438H140.312C140.312 193.214 140.266 193.016 140.175 192.844C140.085 192.67 139.957 192.532 139.792 192.432C139.629 192.331 139.438 192.281 139.218 192.281C138.979 192.281 138.771 192.34 138.593 192.457C138.417 192.573 138.281 192.724 138.184 192.912C138.089 193.098 138.042 193.299 138.042 193.517V194.014C138.042 194.306 138.093 194.554 138.195 194.759C138.299 194.963 138.444 195.119 138.63 195.227C138.816 195.333 139.032 195.386 139.281 195.386C139.442 195.386 139.588 195.364 139.721 195.318C139.853 195.271 139.968 195.201 140.065 195.108C140.161 195.015 140.235 194.901 140.286 194.764L141.09 194.909C141.026 195.146 140.91 195.353 140.744 195.531C140.579 195.707 140.371 195.845 140.121 195.943C139.873 196.04 139.59 196.088 139.272 196.088ZM142.087 196V191.636H142.902V192.347H142.956C143.047 192.106 143.196 191.919 143.402 191.784C143.608 191.648 143.856 191.58 144.143 191.58C144.435 191.58 144.679 191.648 144.876 191.784C145.075 191.92 145.222 192.108 145.317 192.347H145.362C145.466 192.114 145.632 191.928 145.859 191.79C146.087 191.65 146.357 191.58 146.672 191.58C147.068 191.58 147.391 191.704 147.641 191.952C147.893 192.2 148.018 192.574 148.018 193.074V196H147.169V193.153C147.169 192.858 147.089 192.644 146.928 192.511C146.767 192.379 146.574 192.312 146.351 192.312C146.074 192.312 145.859 192.398 145.706 192.568C145.553 192.737 145.476 192.954 145.476 193.219V196H144.629V193.099C144.629 192.863 144.555 192.672 144.408 192.528C144.26 192.384 144.068 192.312 143.831 192.312C143.67 192.312 143.521 192.355 143.385 192.44C143.25 192.524 143.142 192.64 143.058 192.79C142.977 192.939 142.936 193.113 142.936 193.31V196H142.087ZM151.038 196.088C150.608 196.088 150.237 195.996 149.927 195.812C149.618 195.627 149.379 195.366 149.211 195.031C149.044 194.694 148.961 194.299 148.961 193.847C148.961 193.4 149.044 193.006 149.211 192.665C149.379 192.324 149.614 192.058 149.915 191.866C150.219 191.675 150.573 191.58 150.978 191.58C151.224 191.58 151.463 191.62 151.694 191.702C151.925 191.783 152.132 191.911 152.316 192.085C152.5 192.259 152.645 192.486 152.751 192.764C152.857 193.041 152.91 193.377 152.91 193.773V194.074H149.441V193.438H152.077C152.077 193.214 152.032 193.016 151.941 192.844C151.85 192.67 151.722 192.532 151.558 192.432C151.395 192.331 151.203 192.281 150.984 192.281C150.745 192.281 150.537 192.34 150.359 192.457C150.183 192.573 150.046 192.724 149.95 192.912C149.855 193.098 149.808 193.299 149.808 193.517V194.014C149.808 194.306 149.859 194.554 149.961 194.759C150.065 194.963 150.21 195.119 150.396 195.227C150.581 195.333 150.798 195.386 151.046 195.386C151.207 195.386 151.354 195.364 151.487 195.318C151.619 195.271 151.734 195.201 151.83 195.108C151.927 195.015 152.001 194.901 152.052 194.764L152.856 194.909C152.791 195.146 152.676 195.353 152.509 195.531C152.344 195.707 152.137 195.845 151.887 195.943C151.639 196.04 151.356 196.088 151.038 196.088ZM154.702 193.409V196H153.852V191.636H154.668V192.347H154.722C154.822 192.116 154.979 191.93 155.193 191.79C155.409 191.65 155.681 191.58 156.009 191.58C156.306 191.58 156.566 191.642 156.79 191.767C157.013 191.89 157.187 192.074 157.31 192.318C157.433 192.562 157.494 192.865 157.494 193.224V196H156.645V193.327C156.645 193.01 156.563 192.763 156.398 192.585C156.233 192.405 156.007 192.315 155.719 192.315C155.522 192.315 155.347 192.358 155.193 192.443C155.042 192.528 154.921 192.653 154.832 192.818C154.745 192.981 154.702 193.178 154.702 193.409ZM160.67 191.636V192.318H158.287V191.636H160.67ZM158.926 190.591H159.776V194.719C159.776 194.884 159.8 195.008 159.849 195.091C159.899 195.172 159.962 195.228 160.04 195.259C160.119 195.287 160.205 195.301 160.298 195.301C160.366 195.301 160.426 195.296 160.477 195.287C160.528 195.277 160.568 195.27 160.597 195.264L160.75 195.966C160.701 195.985 160.631 196.004 160.54 196.023C160.449 196.044 160.335 196.055 160.199 196.057C159.975 196.061 159.767 196.021 159.574 195.938C159.381 195.854 159.224 195.725 159.105 195.551C158.986 195.377 158.926 195.158 158.926 194.895V190.591Z" fill="#262626"/>
<path d="M297.362 193.001V194.271H293.433V193.001H297.362ZM301.779 199.091V188.182H302.478V199.091H301.779ZM303.795 191.672C303.755 191.3 303.588 191.01 303.292 190.803C303 190.595 302.619 190.491 302.15 190.491C301.821 190.491 301.538 190.541 301.302 190.641C301.066 190.74 300.886 190.875 300.761 191.045C300.636 191.216 300.572 191.411 300.569 191.629C300.569 191.811 300.61 191.969 300.693 192.102C300.778 192.236 300.893 192.349 301.038 192.443C301.183 192.534 301.343 192.611 301.52 192.673C301.696 192.736 301.873 192.788 302.052 192.831L302.87 193.036C303.2 193.112 303.517 193.216 303.821 193.347C304.127 193.477 304.402 193.642 304.643 193.841C304.887 194.04 305.081 194.28 305.223 194.561C305.365 194.842 305.436 195.172 305.436 195.55C305.436 196.061 305.305 196.511 305.044 196.901C304.782 197.287 304.404 197.589 303.91 197.808C303.419 198.024 302.824 198.132 302.125 198.132C301.446 198.132 300.856 198.027 300.356 197.817C299.859 197.607 299.47 197.3 299.189 196.896C298.91 196.493 298.76 196.001 298.737 195.422H300.292C300.315 195.726 300.409 195.979 300.574 196.18C300.738 196.382 300.953 196.533 301.217 196.632C301.484 196.732 301.782 196.781 302.112 196.781C302.456 196.781 302.757 196.73 303.015 196.628C303.277 196.523 303.481 196.378 303.629 196.193C303.777 196.006 303.852 195.787 303.855 195.537C303.852 195.31 303.785 195.122 303.654 194.974C303.524 194.824 303.341 194.699 303.105 194.599C302.872 194.497 302.599 194.406 302.287 194.327L301.294 194.071C300.575 193.886 300.007 193.607 299.589 193.232C299.174 192.854 298.967 192.352 298.967 191.727C298.967 191.213 299.106 190.763 299.385 190.376C299.666 189.99 300.048 189.69 300.531 189.477C301.014 189.261 301.561 189.153 302.172 189.153C302.791 189.153 303.333 189.261 303.799 189.477C304.268 189.69 304.636 189.987 304.903 190.368C305.17 190.746 305.308 191.18 305.316 191.672H303.795ZM306.76 198V196.858L309.79 193.888C310.08 193.595 310.321 193.335 310.514 193.108C310.707 192.881 310.852 192.661 310.949 192.447C311.045 192.234 311.094 192.007 311.094 191.766C311.094 191.49 311.031 191.254 310.906 191.058C310.781 190.859 310.609 190.706 310.391 190.598C310.172 190.49 309.923 190.436 309.645 190.436C309.358 190.436 309.107 190.496 308.891 190.615C308.675 190.732 308.507 190.898 308.388 191.114C308.271 191.33 308.213 191.587 308.213 191.885H306.709C306.709 191.331 306.835 190.849 307.088 190.44C307.341 190.031 307.689 189.714 308.132 189.49C308.578 189.266 309.089 189.153 309.666 189.153C310.251 189.153 310.766 189.263 311.209 189.482C311.652 189.7 311.996 190 312.24 190.381C312.487 190.761 312.611 191.196 312.611 191.685C312.611 192.011 312.548 192.332 312.423 192.648C312.298 192.963 312.078 193.312 311.763 193.696C311.45 194.08 311.011 194.544 310.446 195.089L308.942 196.619V196.679H312.743V198H306.76ZM317.345 198.119C316.732 198.119 316.186 198.014 315.709 197.804C315.234 197.594 314.859 197.301 314.584 196.926C314.308 196.551 314.162 196.118 314.145 195.626H315.747C315.761 195.862 315.839 196.068 315.982 196.244C316.124 196.418 316.313 196.553 316.548 196.649C316.784 196.746 317.048 196.794 317.341 196.794C317.653 196.794 317.93 196.74 318.172 196.632C318.413 196.521 318.602 196.368 318.739 196.172C318.875 195.976 318.942 195.75 318.939 195.494C318.942 195.23 318.874 194.997 318.734 194.795C318.595 194.594 318.393 194.436 318.129 194.322C317.868 194.209 317.553 194.152 317.183 194.152H316.412V192.933H317.183C317.487 192.933 317.753 192.881 317.98 192.776C318.21 192.67 318.391 192.523 318.521 192.332C318.652 192.139 318.716 191.916 318.713 191.663C318.716 191.416 318.661 191.202 318.547 191.02C318.436 190.835 318.278 190.692 318.074 190.589C317.872 190.487 317.635 190.436 317.362 190.436C317.095 190.436 316.848 190.484 316.621 190.581C316.393 190.678 316.21 190.815 316.071 190.994C315.932 191.17 315.858 191.381 315.849 191.625H314.328C314.339 191.136 314.48 190.707 314.75 190.338C315.023 189.966 315.386 189.676 315.841 189.469C316.295 189.259 316.805 189.153 317.371 189.153C317.953 189.153 318.459 189.263 318.888 189.482C319.32 189.697 319.653 189.989 319.889 190.355C320.125 190.722 320.243 191.126 320.243 191.57C320.246 192.061 320.101 192.473 319.808 192.805C319.518 193.138 319.138 193.355 318.666 193.457V193.526C319.28 193.611 319.75 193.838 320.077 194.207C320.406 194.574 320.57 195.03 320.567 195.575C320.567 196.064 320.428 196.501 320.149 196.888C319.874 197.271 319.493 197.572 319.007 197.791C318.524 198.01 317.97 198.119 317.345 198.119ZM325.132 198.119C324.498 198.119 323.936 198.013 323.444 197.8C322.956 197.587 322.572 197.295 322.294 196.926C322.018 196.554 321.882 196.132 321.885 195.661C321.882 195.294 321.961 194.957 322.123 194.651C322.285 194.344 322.504 194.088 322.779 193.884C323.058 193.676 323.368 193.544 323.708 193.487V193.428C323.26 193.328 322.896 193.099 322.618 192.741C322.342 192.381 322.206 191.964 322.208 191.493C322.206 191.044 322.331 190.643 322.583 190.291C322.836 189.939 323.183 189.662 323.623 189.46C324.064 189.256 324.566 189.153 325.132 189.153C325.691 189.153 326.19 189.256 326.627 189.46C327.068 189.662 327.414 189.939 327.667 190.291C327.923 190.643 328.051 191.044 328.051 191.493C328.051 191.964 327.91 192.381 327.629 192.741C327.35 193.099 326.991 193.328 326.551 193.428V193.487C326.892 193.544 327.199 193.676 327.471 193.884C327.747 194.088 327.966 194.344 328.127 194.651C328.292 194.957 328.375 195.294 328.375 195.661C328.375 196.132 328.235 196.554 327.957 196.926C327.679 197.295 327.295 197.587 326.806 197.8C326.321 198.013 325.762 198.119 325.132 198.119ZM325.132 196.901C325.458 196.901 325.743 196.845 325.984 196.734C326.225 196.621 326.413 196.462 326.547 196.257C326.68 196.053 326.748 195.817 326.751 195.55C326.748 195.271 326.676 195.026 326.534 194.812C326.395 194.597 326.203 194.428 325.958 194.305C325.717 194.183 325.441 194.122 325.132 194.122C324.819 194.122 324.541 194.183 324.297 194.305C324.052 194.428 323.859 194.597 323.717 194.812C323.578 195.026 323.51 195.271 323.512 195.55C323.51 195.817 323.575 196.053 323.708 196.257C323.842 196.459 324.029 196.616 324.271 196.73C324.515 196.844 324.802 196.901 325.132 196.901ZM325.132 192.925C325.399 192.925 325.635 192.871 325.839 192.763C326.047 192.655 326.21 192.504 326.329 192.311C326.449 192.118 326.51 191.895 326.512 191.642C326.51 191.392 326.45 191.173 326.333 190.986C326.217 190.795 326.055 190.649 325.848 190.547C325.64 190.442 325.402 190.389 325.132 190.389C324.856 190.389 324.613 190.442 324.403 190.547C324.196 190.649 324.034 190.795 323.917 190.986C323.804 191.173 323.748 191.392 323.751 191.642C323.748 191.895 323.805 192.118 323.922 192.311C324.041 192.501 324.204 192.652 324.412 192.763C324.622 192.871 324.862 192.925 325.132 192.925Z" fill="#262626"/>
</g>
<defs>
<clipPath id="clip0_1_440">
<rect width="347" height="220" rx="6" fill="white"/>
</clipPath>
</defs>
</svg>
