<svg width="386" height="229" viewBox="0 0 386 229" fill="none" xmlns="http://www.w3.org/2000/svg">
<rect width="386" height="228.527" rx="6" fill="#D8FCEC"/>
<path d="M209.965 192.253L209.965 80.722" stroke="#086436" stroke-width="0.83232"/>
<path d="M35.8473 86.418H373.197" stroke="#D9D9D9" stroke-width="0.83232" stroke-dasharray="4.16 4.16"/>
<path d="M13.9633 86.1411C13.9991 85.67 14.1809 85.3013 14.5087 85.035C14.8364 84.7687 15.2615 84.6355 15.7838 84.6355C16.1321 84.6355 16.4316 84.6996 16.6826 84.8276C16.9386 84.9505 17.1307 85.1195 17.2587 85.3346C17.3918 85.5497 17.4584 85.7929 17.4584 86.0643C17.4584 86.3818 17.3662 86.6558 17.1819 86.8862C17.0026 87.1167 16.7671 87.2652 16.4752 87.3318V87.3702C16.808 87.4521 17.0718 87.6134 17.2664 87.8541C17.461 88.0948 17.5583 88.4098 17.5583 88.799C17.5583 89.0909 17.4917 89.3546 17.3586 89.5902C17.2254 89.8206 17.0257 90.0024 16.7594 90.1356C16.4931 90.2687 16.173 90.3353 15.7992 90.3353C15.2564 90.3353 14.8108 90.1945 14.4626 89.9128C14.1144 89.626 13.9198 89.2215 13.8788 88.6991H14.5548C14.5906 89.0064 14.7161 89.2573 14.9312 89.4519C15.1463 89.6465 15.433 89.7438 15.7915 89.7438C16.15 89.7438 16.4214 89.6516 16.6058 89.4673C16.7952 89.2778 16.89 89.0345 16.89 88.7375C16.89 88.3534 16.762 88.0769 16.5059 87.9079C16.2498 87.7389 15.8632 87.6544 15.346 87.6544H15.1693V87.0706H15.3537C15.8248 87.0655 16.1807 86.9887 16.4214 86.8402C16.6621 86.6865 16.7824 86.451 16.7824 86.1335C16.7824 85.862 16.6928 85.6444 16.5136 85.4805C16.3395 85.3166 16.0885 85.2347 15.7608 85.2347C15.4433 85.2347 15.1872 85.3166 14.9926 85.4805C14.798 85.6444 14.6828 85.8646 14.647 86.1411H13.9633ZM18.5021 87.4624C18.5021 86.5815 18.6455 85.8953 18.9323 85.4037C19.219 84.907 19.7209 84.6586 20.4379 84.6586C21.1497 84.6586 21.649 84.907 21.9358 85.4037C22.2225 85.8953 22.3659 86.5815 22.3659 87.4624C22.3659 88.3586 22.2225 89.055 21.9358 89.5518C21.649 90.0485 21.1497 90.2969 20.4379 90.2969C19.7209 90.2969 19.219 90.0485 18.9323 89.5518C18.6455 89.055 18.5021 88.3586 18.5021 87.4624ZM21.6746 87.4624C21.6746 87.0168 21.6439 86.6404 21.5824 86.3332C21.5261 86.0208 21.4057 85.7699 21.2214 85.5804C21.0421 85.3909 20.781 85.2962 20.4379 85.2962C20.0896 85.2962 19.8233 85.3909 19.639 85.5804C19.4597 85.7699 19.3394 86.0208 19.2779 86.3332C19.2216 86.6404 19.1934 87.0168 19.1934 87.4624C19.1934 87.9233 19.2216 88.3099 19.2779 88.6223C19.3394 88.9347 19.4597 89.1856 19.639 89.3751C19.8233 89.5646 20.0896 89.6593 20.4379 89.6593C20.781 89.6593 21.0421 89.5646 21.2214 89.3751C21.4057 89.1856 21.5261 88.9347 21.5824 88.6223C21.6439 88.3099 21.6746 87.9233 21.6746 87.4624ZM25.7914 90.2969L24.1398 88.4379V90.2969H23.4408V84.6125H24.1398V87.954L25.7607 86.0874H26.7362L24.7544 88.1844L26.7439 90.2969H25.7914Z" fill="#828282"/>
<path d="M35.8473 121.625H373.197" stroke="#D9D9D9" stroke-width="0.83232" stroke-dasharray="4.16 4.16"/>
<path d="M13.9992 124.943C14.6496 124.421 15.1591 123.993 15.5278 123.66C15.8965 123.322 16.2064 122.972 16.4573 122.608C16.7133 122.239 16.8414 121.878 16.8414 121.525C16.8414 121.192 16.7594 120.931 16.5956 120.741C16.4368 120.547 16.1782 120.449 15.8197 120.449C15.4715 120.449 15.2001 120.56 15.0055 120.78C14.816 120.995 14.7136 121.284 14.6982 121.648H14.0222C14.0427 121.074 14.2168 120.631 14.5446 120.319C14.8723 120.006 15.2948 119.85 15.812 119.85C16.3395 119.85 16.7569 119.996 17.0641 120.288C17.3765 120.58 17.5327 120.982 17.5327 121.494C17.5327 121.919 17.4047 122.334 17.1486 122.739C16.8977 123.138 16.6109 123.491 16.2883 123.799C15.9657 124.101 15.5534 124.454 15.0516 124.859H17.694V125.442H13.9992V124.943ZM18.5021 122.669C18.5021 121.789 18.6455 121.102 18.9323 120.611C19.219 120.114 19.7209 119.866 20.4379 119.866C21.1497 119.866 21.649 120.114 21.9358 120.611C22.2225 121.102 22.3659 121.789 22.3659 122.669C22.3659 123.566 22.2225 124.262 21.9358 124.759C21.649 125.256 21.1497 125.504 20.4379 125.504C19.7209 125.504 19.219 125.256 18.9323 124.759C18.6455 124.262 18.5021 123.566 18.5021 122.669ZM21.6746 122.669C21.6746 122.224 21.6439 121.847 21.5824 121.54C21.5261 121.228 21.4057 120.977 21.2214 120.787C21.0421 120.598 20.781 120.503 20.4379 120.503C20.0896 120.503 19.8233 120.598 19.639 120.787C19.4597 120.977 19.3394 121.228 19.2779 121.54C19.2216 121.847 19.1934 122.224 19.1934 122.669C19.1934 123.13 19.2216 123.517 19.2779 123.829C19.3394 124.142 19.4597 124.393 19.639 124.582C19.8233 124.772 20.0896 124.866 20.4379 124.866C20.781 124.866 21.0421 124.772 21.2214 124.582C21.4057 124.393 21.5261 124.142 21.5824 123.829C21.6439 123.517 21.6746 123.13 21.6746 122.669ZM25.7914 125.504L24.1398 123.645V125.504H23.4408V119.82H24.1398V123.161L25.7607 121.294H26.7362L24.7544 123.391L26.7439 125.504H25.7914Z" fill="#828282"/>
<path d="M35.8473 156.833H373.197" stroke="#D9D9D9" stroke-width="0.83232" stroke-dasharray="4.16 4.16"/>
<path d="M15.9401 155.796V155.158H17.3842V160.712H16.6775V155.796H15.9401ZM18.5849 157.877C18.5849 156.997 18.7283 156.31 19.0151 155.819C19.3019 155.322 19.8037 155.074 20.5207 155.074C21.2325 155.074 21.7318 155.322 22.0186 155.819C22.3054 156.31 22.4488 156.997 22.4488 157.877C22.4488 158.774 22.3054 159.47 22.0186 159.967C21.7318 160.464 21.2325 160.712 20.5207 160.712C19.8037 160.712 19.3019 160.464 19.0151 159.967C18.7283 159.47 18.5849 158.774 18.5849 157.877ZM21.7574 157.877C21.7574 157.432 21.7267 157.055 21.6652 156.748C21.6089 156.436 21.4886 156.185 21.3042 155.995C21.125 155.806 20.8638 155.711 20.5207 155.711C20.1725 155.711 19.9062 155.806 19.7218 155.995C19.5426 156.185 19.4222 156.436 19.3608 156.748C19.3044 157.055 19.2763 157.432 19.2763 157.877C19.2763 158.338 19.3044 158.725 19.3608 159.037C19.4222 159.35 19.5426 159.601 19.7218 159.79C19.9062 159.98 20.1725 160.074 20.5207 160.074C20.8638 160.074 21.125 159.98 21.3042 159.79C21.4886 159.601 21.6089 159.35 21.6652 159.037C21.7267 158.725 21.7574 158.338 21.7574 157.877ZM25.8742 160.712L24.2227 158.853V160.712H23.5237V155.028H24.2227V158.369L25.8435 156.502H26.8191L24.8372 158.599L26.8267 160.712H25.8742Z" fill="#828282"/>
<path d="M35.8473 192.04H373.197" stroke="#D9D9D9" stroke-width="0.83232" stroke-dasharray="4.16 4.16"/>
<path d="M18.585 193.084C18.585 192.204 18.7284 191.517 19.0152 191.026C19.302 190.529 19.8038 190.281 20.5208 190.281C21.2326 190.281 21.7319 190.529 22.0187 191.026C22.3055 191.517 22.4489 192.204 22.4489 193.084C22.4489 193.981 22.3055 194.677 22.0187 195.174C21.7319 195.671 21.2326 195.919 20.5208 195.919C19.8038 195.919 19.302 195.671 19.0152 195.174C18.7284 194.677 18.585 193.981 18.585 193.084ZM21.7575 193.084C21.7575 192.639 21.7268 192.263 21.6653 191.955C21.609 191.643 21.4887 191.392 21.3043 191.202C21.1251 191.013 20.8639 190.918 20.5208 190.918C20.1725 190.918 19.9062 191.013 19.7219 191.202C19.5426 191.392 19.4223 191.643 19.3609 191.955C19.3045 192.263 19.2764 192.639 19.2764 193.084C19.2764 193.545 19.3045 193.932 19.3609 194.244C19.4223 194.557 19.5426 194.808 19.7219 194.997C19.9062 195.187 20.1725 195.281 20.5208 195.281C20.8639 195.281 21.1251 195.187 21.3043 194.997C21.4887 194.808 21.609 194.557 21.6653 194.244C21.7268 193.932 21.7575 193.545 21.7575 193.084ZM25.8743 195.919L24.2228 194.06V195.919H23.5237V190.235H24.2228V193.576L25.8436 191.709H26.8191L24.8373 193.807L26.8268 195.919H25.8743Z" fill="#828282"/>
<path d="M35.8473 51.2104L373.197 51.2104" stroke="#D9D9D9" stroke-width="0.83232" stroke-dasharray="4.16 4.16"/>
<path d="M13.502 53.8526V53.3226L16.1983 49.5893H17.0355V53.2458H17.8037V53.8526H17.0355V55.0894H16.3442V53.8526H13.502ZM16.3749 50.3191L14.3086 53.2458H16.3749V50.3191ZM18.502 52.2548C18.502 51.374 18.6454 50.6878 18.9322 50.1962C19.219 49.6994 19.7208 49.4511 20.4378 49.4511C21.1496 49.4511 21.6489 49.6994 21.9357 50.1962C22.2225 50.6878 22.3659 51.374 22.3659 52.2548C22.3659 53.151 22.2225 53.8475 21.9357 54.3442C21.6489 54.841 21.1496 55.0894 20.4378 55.0894C19.7208 55.0894 19.219 54.841 18.9322 54.3442C18.6454 53.8475 18.502 53.151 18.502 52.2548ZM21.6745 52.2548C21.6745 51.8093 21.6438 51.4329 21.5823 51.1257C21.526 50.8133 21.4057 50.5623 21.2213 50.3729C21.0421 50.1834 20.7809 50.0886 20.4378 50.0886C20.0895 50.0886 19.8232 50.1834 19.6389 50.3729C19.4596 50.5623 19.3393 50.8133 19.2779 51.1257C19.2215 51.4329 19.1934 51.8093 19.1934 52.2548C19.1934 52.7157 19.2215 53.1024 19.2779 53.4148C19.3393 53.7272 19.4596 53.9781 19.6389 54.1676C19.8232 54.357 20.0895 54.4518 20.4378 54.4518C20.7809 54.4518 21.0421 54.357 21.2213 54.1676C21.4057 53.9781 21.526 53.7272 21.5823 53.4148C21.6438 53.1024 21.6745 52.7157 21.6745 52.2548ZM25.7913 55.0894L24.1398 53.2304V55.0894H23.4407V49.405H24.1398V52.7465L25.7606 50.8798H26.7361L24.7543 52.9769L26.7438 55.0894H25.7913Z" fill="#828282"/>
<path d="M35.8474 142.11C35.8474 142.11 64.1693 118.553 86.1604 116.231C108.193 113.905 118.815 132.91 140.896 131.097C159.638 129.559 166.882 113.936 185.681 113.478C198.721 113.16 205.302 121.718 218.301 120.636C234.371 119.299 239.253 101.416 255.345 102.466C274.601 103.722 273.678 133.258 292.941 134.401C305.005 135.117 310.159 124.404 322.244 124.49C331.883 124.559 336.427 132.051 346.019 131.097C358.413 129.865 372.557 113.478 372.557 113.478" stroke="url(#paint0_linear_1_350)" stroke-width="2.20061"/>
<path d="M35.8474 141.47C35.8474 141.47 48.8918 126.68 60.5596 124.46C69.898 122.684 75.1801 128.047 84.6971 127.752C102.445 127.203 109.536 110.899 127.225 112.389C141.624 113.602 146.13 128.59 160.558 127.752C173.396 127.007 176.482 113.475 189.293 112.389C207.428 110.852 211.393 133.273 229.522 134.885C247.545 136.488 255.167 121.583 273.199 120.071C291.577 118.53 301.738 131.56 319.75 127.752C332.692 125.016 337.162 116.672 349.635 112.389C358.547 109.329 373.197 106.902 373.197 106.902" stroke="#79EFBC" stroke-width="2.20061" stroke-dasharray="6.6 6.6"/>
<path fill-rule="evenodd" clip-rule="evenodd" d="M172.75 70.75C172 71.4999 172 72.707 172 75.1211V84.8546C172 87.2687 172 88.4758 172.75 89.2257C173.5 89.9757 174.707 89.9757 177.121 89.9757H207.515L209.843 93.0798L212.171 89.9757H243.452C245.866 89.9757 247.074 89.9757 247.824 89.2257C248.573 88.4758 248.573 87.2687 248.573 84.8546V75.1211C248.573 72.707 248.573 71.4999 247.824 70.75C247.074 70 245.866 70 243.452 70H177.121C174.707 70 173.5 70 172.75 70.75Z" fill="#163D2A"/>
<path d="M182.045 79.3961V80.9192H178.166V79.3961H182.045ZM188.097 81.2605C188.097 81.5934 188.006 81.893 187.823 82.1594C187.645 82.4257 187.384 82.6393 187.04 82.8002C186.696 82.9612 186.283 83.0472 185.8 83.0583V83.7241H185.284V83.0416C184.641 82.9806 184.119 82.7864 183.719 82.459C183.32 82.1316 183.101 81.6822 183.062 81.1106H185.026C185.043 81.3381 185.129 81.4935 185.284 81.5767V80.7611C184.801 80.6279 184.419 80.5058 184.136 80.3948C183.858 80.2839 183.606 80.1008 183.378 79.8455C183.156 79.5903 183.045 79.2435 183.045 78.8051C183.045 78.4444 183.145 78.1337 183.345 77.8729C183.545 77.6066 183.814 77.4013 184.152 77.257C184.491 77.1127 184.868 77.0323 185.284 77.0156V76.3414H185.8V77.0156C186.461 77.06 186.982 77.2459 187.365 77.5733C187.748 77.8951 187.959 78.3418 187.998 78.9133H186.008C185.986 78.7025 185.917 78.561 185.8 78.4888V79.2962C185.994 79.3517 186.086 79.3794 186.075 79.3794C186.491 79.507 186.832 79.6347 187.099 79.7623C187.371 79.8843 187.604 80.0675 187.798 80.3116C187.998 80.5558 188.097 80.872 188.097 81.2605ZM185.026 78.7219C185.026 78.8661 185.112 78.9882 185.284 79.0881V78.4222C185.112 78.4555 185.026 78.5554 185.026 78.7219ZM185.8 81.6516C186.017 81.6073 186.125 81.4907 186.125 81.3021C186.125 81.1578 186.017 81.0357 185.8 80.9358V81.6516ZM188.414 78.647V76.9157H191.236V83H189.296V78.647H188.414ZM192.987 83.0666C192.665 83.0666 192.407 82.9806 192.213 82.8086C192.019 82.6366 191.922 82.4202 191.922 82.1594C191.922 81.893 192.019 81.6738 192.213 81.5018C192.407 81.3243 192.665 81.2355 192.987 81.2355C193.303 81.2355 193.558 81.3243 193.753 81.5018C193.947 81.6738 194.044 81.893 194.044 82.1594C194.044 82.4202 193.947 82.6366 193.753 82.8086C193.558 82.9806 193.303 83.0666 192.987 83.0666ZM194.546 81.5268C195.29 80.9719 195.878 80.4697 196.311 80.0203C196.744 79.5653 196.96 79.1408 196.96 78.7468C196.96 78.6137 196.929 78.511 196.868 78.4389C196.813 78.3668 196.738 78.3307 196.644 78.3307C196.533 78.3307 196.444 78.3889 196.377 78.5055C196.316 78.6164 196.294 78.7885 196.311 79.0215H194.521C194.538 78.5055 194.649 78.081 194.854 77.7481C195.065 77.4151 195.337 77.171 195.67 77.0156C196.003 76.8603 196.369 76.7826 196.768 76.7826C197.479 76.7826 197.998 76.9546 198.325 77.2986C198.658 77.6371 198.824 78.0727 198.824 78.6053C198.824 79.1658 198.644 79.6929 198.283 80.1868C197.928 80.6751 197.482 81.0884 196.943 81.4269H198.849V82.9168H194.546V81.5268ZM199.294 79.8705C199.294 78.9105 199.496 78.1559 199.901 77.6066C200.312 77.0572 200.942 76.7826 201.791 76.7826C202.634 76.7826 203.261 77.06 203.672 77.6149C204.082 78.1642 204.288 78.9161 204.288 79.8705C204.288 80.8304 204.082 81.5878 203.672 82.1427C203.261 82.692 202.634 82.9667 201.791 82.9667C200.942 82.9667 200.312 82.692 199.901 82.1427C199.496 81.5878 199.294 80.8304 199.294 79.8705ZM202.465 79.8705C202.465 79.4266 202.421 79.0936 202.332 78.8717C202.243 78.6442 202.063 78.5304 201.791 78.5304C201.513 78.5304 201.33 78.6442 201.241 78.8717C201.153 79.0936 201.108 79.4266 201.108 79.8705C201.108 80.3199 201.153 80.6584 201.241 80.8859C201.33 81.1079 201.513 81.2188 201.791 81.2188C202.063 81.2188 202.243 81.1079 202.332 80.8859C202.421 80.6584 202.465 80.3199 202.465 79.8705ZM206.652 81.1023C206.68 81.2632 206.73 81.3853 206.802 81.4685C206.88 81.5462 206.985 81.5851 207.119 81.5851C207.324 81.5851 207.457 81.4824 207.518 81.2771C207.585 81.0662 207.618 80.7305 207.618 80.27C207.518 80.4254 207.374 80.5474 207.185 80.6362C206.996 80.725 206.783 80.7694 206.544 80.7694C206.017 80.7694 205.593 80.6029 205.271 80.27C204.949 79.9371 204.788 79.4571 204.788 78.8301C204.788 78.4139 204.874 78.0532 205.046 77.7481C205.224 77.4373 205.473 77.1987 205.795 77.0323C206.123 76.8658 206.503 76.7826 206.935 76.7826C207.812 76.7826 208.42 77.0406 208.758 77.5566C209.102 78.0727 209.274 78.8079 209.274 79.7623C209.274 80.8609 209.105 81.6849 208.767 82.2343C208.434 82.7836 207.87 83.0583 207.077 83.0583C206.639 83.0583 206.261 82.9667 205.945 82.7836C205.629 82.6005 205.385 82.3619 205.213 82.0678C205.046 81.7682 204.952 81.4463 204.93 81.1023H206.652ZM207.002 79.3544C207.152 79.3544 207.271 79.3128 207.36 79.2296C207.449 79.1464 207.493 79.0298 207.493 78.88C207.493 78.7136 207.449 78.5915 207.36 78.5138C207.277 78.4306 207.157 78.3889 207.002 78.3889C206.847 78.3889 206.725 78.4306 206.636 78.5138C206.553 78.5915 206.511 78.7136 206.511 78.88C206.511 79.0298 206.555 79.1464 206.644 79.2296C206.733 79.3128 206.852 79.3544 207.002 79.3544ZM216.753 81.0191H215.513V82.2925H213.74V81.0191H212.5V79.3295H213.74V78.0477H215.513V79.3295H216.753V81.0191ZM219.032 81.1023C219.059 81.2632 219.109 81.3853 219.181 81.4685C219.259 81.5462 219.364 81.5851 219.498 81.5851C219.703 81.5851 219.836 81.4824 219.897 81.2771C219.964 81.0662 219.997 80.7305 219.997 80.27C219.897 80.4254 219.753 80.5474 219.564 80.6362C219.376 80.725 219.162 80.7694 218.923 80.7694C218.396 80.7694 217.972 80.6029 217.65 80.27C217.328 79.9371 217.167 79.4571 217.167 78.8301C217.167 78.4139 217.253 78.0532 217.425 77.7481C217.603 77.4373 217.852 77.1987 218.174 77.0323C218.502 76.8658 218.882 76.7826 219.315 76.7826C220.191 76.7826 220.799 77.0406 221.137 77.5566C221.481 78.0727 221.653 78.8079 221.653 79.7623C221.653 80.8609 221.484 81.6849 221.146 82.2343C220.813 82.7836 220.25 83.0583 219.456 83.0583C219.018 83.0583 218.64 82.9667 218.324 82.7836C218.008 82.6005 217.764 82.3619 217.592 82.0678C217.425 81.7682 217.331 81.4463 217.309 81.1023H219.032ZM219.381 79.3544C219.531 79.3544 219.65 79.3128 219.739 79.2296C219.828 79.1464 219.872 79.0298 219.872 78.88C219.872 78.7136 219.828 78.5915 219.739 78.5138C219.656 78.4306 219.537 78.3889 219.381 78.3889C219.226 78.3889 219.104 78.4306 219.015 78.5138C218.932 78.5915 218.89 78.7136 218.89 78.88C218.89 79.0298 218.934 79.1464 219.023 79.2296C219.112 79.3128 219.231 79.3544 219.381 79.3544ZM223.215 83.0666C222.894 83.0666 222.636 82.9806 222.441 82.8086C222.247 82.6366 222.15 82.4202 222.15 82.1594C222.15 81.893 222.247 81.6738 222.441 81.5018C222.636 81.3243 222.894 81.2355 223.215 81.2355C223.532 81.2355 223.787 81.3243 223.981 81.5018C224.175 81.6738 224.273 81.893 224.273 82.1594C224.273 82.4202 224.175 82.6366 223.981 82.8086C223.787 82.9806 223.532 83.0666 223.215 83.0666ZM224.974 82.0844V80.5447L227.455 77.0073H229.444V80.4864H230.043V82.0844H229.444V83H227.58V82.0844H224.974ZM227.729 79.1131L226.831 80.4864H227.729V79.1131ZM231.642 79.6541C231.42 79.5265 231.245 79.36 231.118 79.1547C230.996 78.9438 230.935 78.6941 230.935 78.4056C230.935 78.106 231.015 77.8341 231.176 77.5899C231.337 77.3458 231.581 77.1516 231.909 77.0073C232.241 76.8575 232.649 76.7826 233.132 76.7826C233.615 76.7826 234.02 76.8575 234.347 77.0073C234.68 77.1516 234.927 77.3458 235.088 77.5899C235.249 77.8341 235.329 78.106 235.329 78.4056C235.329 78.6941 235.266 78.9438 235.138 79.1547C235.016 79.36 234.844 79.5265 234.622 79.6541C235.182 79.9815 235.463 80.4725 235.463 81.1273C235.463 81.549 235.357 81.9069 235.146 82.201C234.935 82.4951 234.652 82.717 234.297 82.8668C233.942 83.0166 233.554 83.0916 233.132 83.0916C232.71 83.0916 232.322 83.0166 231.967 82.8668C231.612 82.717 231.329 82.4951 231.118 82.201C230.907 81.9069 230.802 81.549 230.802 81.1273C230.802 80.4725 231.082 79.9815 231.642 79.6541ZM233.515 78.7136C233.515 78.5582 233.479 78.4361 233.407 78.3473C233.335 78.253 233.243 78.2058 233.132 78.2058C233.021 78.2058 232.93 78.253 232.857 78.3473C232.785 78.4361 232.749 78.5582 232.749 78.7136C232.749 78.8745 232.785 78.9965 232.857 79.0798C232.93 79.163 233.021 79.2046 233.132 79.2046C233.243 79.2046 233.335 79.163 233.407 79.0798C233.479 78.9965 233.515 78.8745 233.515 78.7136ZM233.132 80.4448C232.966 80.4448 232.832 80.5003 232.733 80.6112C232.638 80.7167 232.591 80.8526 232.591 81.0191C232.591 81.1855 232.638 81.3215 232.733 81.4269C232.827 81.5323 232.96 81.5851 233.132 81.5851C233.304 81.5851 233.437 81.5323 233.532 81.4269C233.626 81.3215 233.673 81.1855 233.673 81.0191C233.673 80.8526 233.623 80.7167 233.523 80.6112C233.429 80.5003 233.299 80.4448 233.132 80.4448ZM237.112 79.6541C236.89 79.5265 236.716 79.36 236.588 79.1547C236.466 78.9438 236.405 78.6941 236.405 78.4056C236.405 78.106 236.485 77.8341 236.646 77.5899C236.807 77.3458 237.051 77.1516 237.379 77.0073C237.712 76.8575 238.12 76.7826 238.602 76.7826C239.085 76.7826 239.49 76.8575 239.817 77.0073C240.15 77.1516 240.397 77.3458 240.558 77.5899C240.719 77.8341 240.8 78.106 240.8 78.4056C240.8 78.6941 240.736 78.9438 240.608 79.1547C240.486 79.36 240.314 79.5265 240.092 79.6541C240.653 79.9815 240.933 80.4725 240.933 81.1273C240.933 81.549 240.827 81.9069 240.616 82.201C240.406 82.4951 240.123 82.717 239.768 82.8668C239.412 83.0166 239.024 83.0916 238.602 83.0916C238.181 83.0916 237.792 83.0166 237.437 82.8668C237.082 82.717 236.799 82.4951 236.588 82.201C236.377 81.9069 236.272 81.549 236.272 81.1273C236.272 80.4725 236.552 79.9815 237.112 79.6541ZM238.985 78.7136C238.985 78.5582 238.949 78.4361 238.877 78.3473C238.805 78.253 238.713 78.2058 238.602 78.2058C238.491 78.2058 238.4 78.253 238.328 78.3473C238.255 78.4361 238.219 78.5582 238.219 78.7136C238.219 78.8745 238.255 78.9965 238.328 79.0798C238.4 79.163 238.491 79.2046 238.602 79.2046C238.713 79.2046 238.805 79.163 238.877 79.0798C238.949 78.9965 238.985 78.8745 238.985 78.7136ZM238.602 80.4448C238.436 80.4448 238.303 80.5003 238.203 80.6112C238.108 80.7167 238.061 80.8526 238.061 81.0191C238.061 81.1855 238.108 81.3215 238.203 81.4269C238.297 81.5323 238.43 81.5851 238.602 81.5851C238.774 81.5851 238.907 81.5323 239.002 81.4269C239.096 81.3215 239.143 81.1855 239.143 81.0191C239.143 80.8526 239.093 80.7167 238.993 80.6112C238.899 80.5003 238.769 80.4448 238.602 80.4448Z" fill="white"/>
<rect x="206.692" y="117.413" width="6.27419" height="6.27419" rx="3.13709" fill="white" stroke="#163D2A" stroke-width="1.28027"/>
<path d="M16.5705 26.9854C15.5949 26.9854 14.7883 26.7588 14.1508 26.3056C13.5209 25.8447 13.1791 25.1726 13.1253 24.2892H15.8446C15.883 24.7578 16.0904 24.9921 16.4668 24.9921C16.605 24.9921 16.7203 24.9613 16.8124 24.8999C16.9123 24.8308 16.9622 24.7271 16.9622 24.5888C16.9622 24.3967 16.8585 24.2431 16.6511 24.1279C16.4437 24.005 16.1211 23.8667 15.6832 23.7131C15.1609 23.5287 14.7269 23.3482 14.3812 23.1715C14.0432 22.9949 13.7513 22.7375 13.5055 22.3995C13.2597 22.0615 13.1406 21.6275 13.1483 21.0975C13.1483 20.5675 13.2828 20.1181 13.5516 19.7494C13.8281 19.373 14.2007 19.0888 14.6693 18.8967C15.1455 18.7047 15.6794 18.6087 16.2709 18.6087C17.2695 18.6087 18.0607 18.8391 18.6445 19.3C19.236 19.7609 19.5471 20.41 19.5778 21.2473H16.824C16.8163 21.0168 16.7587 20.8517 16.6511 20.7518C16.5436 20.652 16.413 20.602 16.2594 20.602C16.1518 20.602 16.0635 20.6404 15.9944 20.7173C15.9252 20.7864 15.8907 20.8863 15.8907 21.0168C15.8907 21.2012 15.9905 21.3548 16.1902 21.4777C16.3976 21.593 16.7241 21.7351 17.1696 21.9041C17.6843 22.0961 18.1068 22.2805 18.4371 22.4571C18.7751 22.6338 19.067 22.8796 19.3128 23.1946C19.5586 23.5095 19.6815 23.9051 19.6815 24.3814C19.6815 24.8807 19.5586 25.3301 19.3128 25.7295C19.067 26.1213 18.7098 26.4285 18.2412 26.6513C17.7726 26.8741 17.2157 26.9854 16.5705 26.9854ZM24.6246 24.7271V26.9048H23.6567C21.8746 26.9048 20.9835 26.0176 20.9835 24.2431V22.5378H20.177V20.4062H20.9835V18.8391H23.5415V20.4062H24.6016V22.5378H23.5415V24.2892C23.5415 24.4428 23.5761 24.5542 23.6452 24.6234C23.722 24.6925 23.8449 24.7271 24.0139 24.7271H24.6246ZM25.2531 23.6555C25.2531 22.9718 25.3684 22.3803 25.5988 21.881C25.8369 21.374 26.1596 20.99 26.5667 20.7288C26.9738 20.4599 27.4309 20.3255 27.9378 20.3255C28.3603 20.3255 28.7252 20.4138 29.0325 20.5905C29.3397 20.7595 29.574 20.9938 29.7353 21.2934V20.4062H32.2818V26.9048H29.7353V26.0176C29.574 26.3171 29.3397 26.5553 29.0325 26.7319C28.7252 26.9009 28.3603 26.9854 27.9378 26.9854C27.4309 26.9854 26.9738 26.8549 26.5667 26.5937C26.1596 26.3248 25.8369 25.9407 25.5988 25.4414C25.3684 24.9345 25.2531 24.3391 25.2531 23.6555ZM29.7353 23.6555C29.7353 23.3098 29.647 23.0409 29.4703 22.8489C29.2936 22.6569 29.067 22.5608 28.7905 22.5608C28.514 22.5608 28.2874 22.6569 28.1107 22.8489C27.934 23.0409 27.8457 23.3098 27.8457 23.6555C27.8457 24.0011 27.934 24.27 28.1107 24.462C28.2874 24.6541 28.514 24.7501 28.7905 24.7501C29.067 24.7501 29.2936 24.6541 29.4703 24.462C29.647 24.27 29.7353 24.0011 29.7353 23.6555ZM37.4748 24.7271V26.9048H36.5069C34.7248 26.9048 33.8337 26.0176 33.8337 24.2431V22.5378H33.0271V20.4062H33.8337V18.8391H36.3917V20.4062H37.4517V22.5378H36.3917V24.2892C36.3917 24.4428 36.4262 24.5542 36.4954 24.6234C36.5722 24.6925 36.6951 24.7271 36.8641 24.7271H37.4748ZM39.7395 19.8877C39.2939 19.8877 38.9367 19.7686 38.6679 19.5305C38.399 19.2923 38.2646 18.9927 38.2646 18.6317C38.2646 18.263 38.399 17.9596 38.6679 17.7214C38.9367 17.4756 39.2939 17.3527 39.7395 17.3527C40.1773 17.3527 40.5307 17.4756 40.7995 17.7214C41.0684 17.9596 41.2028 18.263 41.2028 18.6317C41.2028 18.9927 41.0684 19.2923 40.7995 19.5305C40.5307 19.7686 40.1773 19.8877 39.7395 19.8877ZM41.0069 20.4062V26.9048H38.449V20.4062H41.0069ZM45.0544 26.9854C44.4398 26.9854 43.8944 26.8856 43.4182 26.6859C42.9496 26.4861 42.577 26.2096 42.3005 25.8562C42.024 25.5029 41.8665 25.1035 41.8281 24.6579H44.2824C44.3131 24.85 44.3937 24.9921 44.5243 25.0842C44.6626 25.1764 44.8354 25.2225 45.0428 25.2225C45.1734 25.2225 45.2771 25.1956 45.3539 25.1419C45.4307 25.0804 45.4692 25.0074 45.4692 24.9229C45.4692 24.777 45.3885 24.6733 45.2272 24.6118C45.0659 24.5504 44.7932 24.4812 44.4091 24.4044C43.9405 24.3122 43.5526 24.2124 43.2453 24.1048C42.9458 23.9973 42.6807 23.8129 42.4503 23.5518C42.2275 23.2906 42.1161 22.9296 42.1161 22.4687C42.1161 22.0692 42.2198 21.7082 42.4272 21.3856C42.6423 21.0553 42.9573 20.7979 43.3721 20.6136C43.7869 20.4215 44.29 20.3255 44.8815 20.3255C45.7572 20.3255 46.4409 20.5406 46.9325 20.9708C47.4318 21.4009 47.7314 21.9617 47.8312 22.653H45.5613C45.5229 22.4763 45.4423 22.3419 45.3194 22.2497C45.1965 22.1499 45.0313 22.0999 44.8239 22.0999C44.6933 22.0999 44.5935 22.1268 44.5243 22.1806C44.4552 22.2267 44.4206 22.2997 44.4206 22.3995C44.4206 22.5301 44.5013 22.63 44.6626 22.6991C44.8239 22.7606 45.0812 22.8259 45.4346 22.895C45.9032 22.9872 46.2988 23.0909 46.6214 23.2061C46.944 23.3213 47.2244 23.521 47.4625 23.8053C47.7007 24.0818 47.8197 24.4659 47.8197 24.9575C47.8197 25.3416 47.7083 25.6873 47.4856 25.9945C47.2628 26.3018 46.9402 26.5438 46.5177 26.7204C46.1029 26.8971 45.6151 26.9854 45.0544 26.9854ZM52.8792 24.7271V26.9048H51.9113C50.1292 26.9048 49.2381 26.0176 49.2381 24.2431V22.5378H48.4316V20.4062H49.2381V18.8391H51.7961V20.4062H52.8562V22.5378H51.7961V24.2892C51.7961 24.4428 51.8307 24.5542 51.8998 24.6234C51.9766 24.6925 52.0995 24.7271 52.2685 24.7271H52.8792ZM55.1439 19.8877C54.6984 19.8877 54.3412 19.7686 54.0723 19.5305C53.8035 19.2923 53.669 18.9927 53.669 18.6317C53.669 18.263 53.8035 17.9596 54.0723 17.7214C54.3412 17.4756 54.6984 17.3527 55.1439 17.3527C55.5818 17.3527 55.9351 17.4756 56.204 17.7214C56.4728 17.9596 56.6073 18.263 56.6073 18.6317C56.6073 18.9927 56.4728 19.2923 56.204 19.5305C55.9351 19.7686 55.5818 19.8877 55.1439 19.8877ZM56.4114 20.4062V26.9048H53.8534V20.4062H56.4114ZM57.221 23.6555C57.221 22.9795 57.3593 22.3919 57.6358 21.8925C57.92 21.3856 58.3118 20.9976 58.8111 20.7288C59.3181 20.4599 59.8942 20.3255 60.5394 20.3255C61.3844 20.3255 62.095 20.5636 62.6711 21.0399C63.2549 21.5161 63.6236 22.1768 63.7772 23.0217H61.0695C60.9696 22.6838 60.7737 22.5148 60.4818 22.5148C60.2744 22.5148 60.1093 22.6108 59.9864 22.8028C59.8711 22.9949 59.8135 23.2791 59.8135 23.6555C59.8135 24.0319 59.8711 24.3161 59.9864 24.5081C60.1093 24.7002 60.2744 24.7962 60.4818 24.7962C60.7737 24.7962 60.9696 24.6272 61.0695 24.2892H63.7772C63.6236 25.1342 63.2549 25.7948 62.6711 26.2711C62.095 26.7473 61.3844 26.9854 60.5394 26.9854C59.8942 26.9854 59.3181 26.851 58.8111 26.5822C58.3118 26.3133 57.92 25.9292 57.6358 25.4299C57.3593 24.9229 57.221 24.3315 57.221 23.6555ZM67.4802 26.9854C66.8657 26.9854 66.3203 26.8856 65.8441 26.6859C65.3755 26.4861 65.0029 26.2096 64.7264 25.8562C64.4499 25.5029 64.2924 25.1035 64.254 24.6579H66.7082C66.739 24.85 66.8196 24.9921 66.9502 25.0842C67.0885 25.1764 67.2613 25.2225 67.4687 25.2225C67.5993 25.2225 67.703 25.1956 67.7798 25.1419C67.8566 25.0804 67.8951 25.0074 67.8951 24.9229C67.8951 24.777 67.8144 24.6733 67.6531 24.6118C67.4918 24.5504 67.2191 24.4812 66.835 24.4044C66.3664 24.3122 65.9785 24.2124 65.6712 24.1048C65.3717 23.9973 65.1066 23.8129 64.8762 23.5518C64.6534 23.2906 64.542 22.9296 64.542 22.4687C64.542 22.0692 64.6457 21.7082 64.8531 21.3856C65.0682 21.0553 65.3832 20.7979 65.798 20.6136C66.2128 20.4215 66.7159 20.3255 67.3074 20.3255C68.1831 20.3255 68.8668 20.5406 69.3584 20.9708C69.8577 21.4009 70.1573 21.9617 70.2571 22.653H67.9872C67.9488 22.4763 67.8682 22.3419 67.7453 22.2497C67.6224 22.1499 67.4572 22.0999 67.2498 22.0999C67.1192 22.0999 67.0194 22.1268 66.9502 22.1806C66.8811 22.2267 66.8465 22.2997 66.8465 22.3995C66.8465 22.5301 66.9272 22.63 67.0885 22.6991C67.2498 22.7606 67.5071 22.8259 67.8605 22.895C68.3291 22.9872 68.7247 23.0909 69.0473 23.2061C69.3699 23.3213 69.6503 23.521 69.8884 23.8053C70.1266 24.0818 70.2456 24.4659 70.2456 24.9575C70.2456 25.3416 70.1342 25.6873 69.9115 25.9945C69.6887 26.3018 69.3661 26.5438 68.9436 26.7204C68.5288 26.8971 68.041 26.9854 67.4802 26.9854Z" fill="#262626"/>
<rect x="213.719" y="19.9077" width="4.99392" height="4.99392" rx="2.49696" fill="#163D2A"/>
<path d="M222.564 20.0507V25.4048H221.865V20.0507H222.564ZM225.806 21.1185C226.318 21.1185 226.733 21.2746 227.05 21.587C227.368 21.8943 227.527 22.3398 227.527 22.9236V25.4048H226.835V23.0235C226.835 22.6036 226.73 22.2835 226.52 22.0633C226.31 21.838 226.024 21.7253 225.66 21.7253C225.291 21.7253 224.997 21.8405 224.777 22.071C224.561 22.3014 224.454 22.6369 224.454 23.0773V25.4048H223.755V21.1953H224.454V21.7944C224.592 21.5794 224.779 21.4129 225.015 21.2951C225.255 21.1773 225.519 21.1185 225.806 21.1185ZM228.407 23.2923C228.407 22.8571 228.494 22.4781 228.668 22.1555C228.843 21.8277 229.083 21.5742 229.391 21.395C229.703 21.2158 230.059 21.1261 230.458 21.1261C230.975 21.1261 231.401 21.2516 231.733 21.5025C232.071 21.7535 232.294 22.1017 232.402 22.5472H231.649C231.577 22.2912 231.436 22.0889 231.226 21.9404C231.022 21.7919 230.766 21.7176 230.458 21.7176C230.059 21.7176 229.736 21.8559 229.49 22.1324C229.245 22.4038 229.122 22.7905 229.122 23.2923C229.122 23.7993 229.245 24.1911 229.49 24.4676C229.736 24.7442 230.059 24.8824 230.458 24.8824C230.766 24.8824 231.022 24.8107 231.226 24.6674C231.431 24.524 231.572 24.3191 231.649 24.0528H232.402C232.289 24.483 232.064 24.8287 231.726 25.0898C231.388 25.3459 230.965 25.4739 230.458 25.4739C230.059 25.4739 229.703 25.3843 229.391 25.2051C229.083 25.0258 228.843 24.7723 228.668 24.4446C228.494 24.1168 228.407 23.7328 228.407 23.2923ZM235.17 25.4739C234.776 25.4739 234.418 25.3843 234.095 25.2051C233.777 25.0258 233.526 24.7723 233.342 24.4446C233.163 24.1117 233.073 23.7276 233.073 23.2923C233.073 22.8622 233.165 22.4832 233.35 22.1555C233.539 21.8226 233.795 21.5691 234.118 21.395C234.441 21.2158 234.802 21.1261 235.201 21.1261C235.6 21.1261 235.962 21.2158 236.284 21.395C236.607 21.5691 236.86 21.82 237.045 22.1478C237.234 22.4755 237.329 22.8571 237.329 23.2923C237.329 23.7276 237.232 24.1117 237.037 24.4446C236.847 24.7723 236.589 25.0258 236.261 25.2051C235.933 25.3843 235.57 25.4739 235.17 25.4739ZM235.17 24.8594C235.421 24.8594 235.657 24.8005 235.877 24.6827C236.097 24.5649 236.274 24.3883 236.407 24.1527C236.545 23.9171 236.614 23.6303 236.614 23.2923C236.614 22.9544 236.548 22.6676 236.415 22.432C236.282 22.1964 236.107 22.0223 235.892 21.9097C235.677 21.7919 235.444 21.733 235.193 21.733C234.937 21.733 234.702 21.7919 234.487 21.9097C234.277 22.0223 234.108 22.1964 233.98 22.432C233.852 22.6676 233.788 22.9544 233.788 23.2923C233.788 23.6355 233.849 23.9248 233.972 24.1604C234.1 24.3959 234.269 24.5726 234.479 24.6904C234.689 24.8031 234.919 24.8594 235.17 24.8594ZM243.31 21.1185C243.638 21.1185 243.93 21.1876 244.186 21.3259C244.442 21.459 244.644 21.6613 244.793 21.9327C244.941 22.2041 245.015 22.5344 245.015 22.9236V25.4048H244.324V23.0235C244.324 22.6036 244.219 22.2835 244.009 22.0633C243.804 21.838 243.525 21.7253 243.172 21.7253C242.808 21.7253 242.519 21.8431 242.304 22.0787C242.089 22.3091 241.981 22.6445 241.981 23.0849V25.4048H241.29V23.0235C241.29 22.6036 241.185 22.2835 240.975 22.0633C240.77 21.838 240.491 21.7253 240.138 21.7253C239.774 21.7253 239.485 21.8431 239.27 22.0787C239.054 22.3091 238.947 22.6445 238.947 23.0849V25.4048H238.248V21.1953H238.947V21.8021C239.085 21.5819 239.27 21.4129 239.5 21.2951C239.736 21.1773 239.994 21.1185 240.276 21.1185C240.629 21.1185 240.942 21.1978 241.213 21.3566C241.484 21.5153 241.687 21.7483 241.82 22.0556C241.938 21.7586 242.132 21.5281 242.404 21.3643C242.675 21.2004 242.977 21.1185 243.31 21.1185ZM250.003 23.1387C250.003 23.2719 249.995 23.4127 249.98 23.5612H246.615C246.641 23.976 246.782 24.3012 247.038 24.5368C247.299 24.7672 247.614 24.8824 247.983 24.8824C248.285 24.8824 248.536 24.8133 248.735 24.675C248.94 24.5316 249.084 24.3422 249.166 24.1066H249.918C249.806 24.5112 249.58 24.8415 249.242 25.0975C248.904 25.3485 248.484 25.4739 247.983 25.4739C247.583 25.4739 247.225 25.3843 246.907 25.2051C246.595 25.0258 246.349 24.7723 246.17 24.4446C245.991 24.1117 245.901 23.7276 245.901 23.2923C245.901 22.8571 245.988 22.4755 246.162 22.1478C246.336 21.82 246.579 21.5691 246.892 21.395C247.209 21.2158 247.573 21.1261 247.983 21.1261C248.382 21.1261 248.735 21.2132 249.043 21.3873C249.35 21.5614 249.586 21.8021 249.749 22.1094C249.918 22.4115 250.003 22.7546 250.003 23.1387ZM249.281 22.9928C249.281 22.7265 249.222 22.4986 249.104 22.3091C248.986 22.1145 248.825 21.9686 248.62 21.8713C248.42 21.7688 248.198 21.7176 247.952 21.7176C247.599 21.7176 247.296 21.8303 247.045 22.0556C246.8 22.2809 246.659 22.5933 246.623 22.9928H249.281Z" fill="#828282"/>
<rect x="261.515" y="19.9077" width="4.99392" height="4.99392" rx="2.49696" fill="#79EFBC"/>
<path d="M270.36 20.6192V22.409H272.311V22.9851H270.36V24.8287H272.542V25.4048H269.661V20.043H272.542V20.6192H270.36ZM275.796 25.4048L274.798 23.8377L273.838 25.4048H273.108L274.467 23.3154L273.108 21.1953H273.899L274.898 22.7546L275.85 21.1953H276.58L275.228 23.277L276.588 25.4048H275.796ZM277.974 21.9711C278.112 21.7304 278.317 21.5307 278.589 21.3719C278.865 21.2081 279.185 21.1261 279.549 21.1261C279.923 21.1261 280.261 21.2158 280.563 21.395C280.87 21.5742 281.111 21.8277 281.285 22.1555C281.459 22.4781 281.546 22.8545 281.546 23.2847C281.546 23.7097 281.459 24.0887 281.285 24.4215C281.111 24.7544 280.87 25.013 280.563 25.1974C280.261 25.3817 279.923 25.4739 279.549 25.4739C279.19 25.4739 278.873 25.3945 278.596 25.2358C278.325 25.0719 278.118 24.8696 277.974 24.6289V27.402H277.275V21.1953H277.974V21.9711ZM280.832 23.2847C280.832 22.9672 280.768 22.6906 280.64 22.4551C280.512 22.2195 280.338 22.0402 280.117 21.9173C279.902 21.7944 279.664 21.733 279.403 21.733C279.147 21.733 278.909 21.797 278.689 21.925C278.473 22.0479 278.299 22.2297 278.166 22.4704C278.038 22.706 277.974 22.98 277.974 23.2923C277.974 23.6099 278.038 23.889 278.166 24.1296C278.299 24.3652 278.473 24.547 278.689 24.675C278.909 24.7979 279.147 24.8594 279.403 24.8594C279.664 24.8594 279.902 24.7979 280.117 24.675C280.338 24.547 280.512 24.3652 280.64 24.1296C280.768 23.889 280.832 23.6073 280.832 23.2847ZM286.307 23.1387C286.307 23.2719 286.299 23.4127 286.284 23.5612H282.919C282.945 23.976 283.086 24.3012 283.342 24.5368C283.603 24.7672 283.918 24.8824 284.287 24.8824C284.589 24.8824 284.84 24.8133 285.04 24.675C285.244 24.5316 285.388 24.3422 285.47 24.1066H286.223C286.11 24.5112 285.885 24.8415 285.547 25.0975C285.209 25.3485 284.789 25.4739 284.287 25.4739C283.887 25.4739 283.529 25.3843 283.211 25.2051C282.899 25.0258 282.653 24.7723 282.474 24.4446C282.295 24.1117 282.205 23.7276 282.205 23.2923C282.205 22.8571 282.292 22.4755 282.466 22.1478C282.64 21.82 282.884 21.5691 283.196 21.395C283.514 21.2158 283.877 21.1261 284.287 21.1261C284.686 21.1261 285.04 21.2132 285.347 21.3873C285.654 21.5614 285.89 21.8021 286.054 22.1094C286.223 22.4115 286.307 22.7546 286.307 23.1387ZM285.585 22.9928C285.585 22.7265 285.526 22.4986 285.408 22.3091C285.291 22.1145 285.129 21.9686 284.924 21.8713C284.725 21.7688 284.502 21.7176 284.256 21.7176C283.903 21.7176 283.601 21.8303 283.35 22.0556C283.104 22.2809 282.963 22.5933 282.927 22.9928H285.585ZM289.281 21.1185C289.793 21.1185 290.208 21.2746 290.525 21.587C290.843 21.8943 291.001 22.3398 291.001 22.9236V25.4048H290.31V23.0235C290.31 22.6036 290.205 22.2835 289.995 22.0633C289.785 21.838 289.498 21.7253 289.135 21.7253C288.766 21.7253 288.472 21.8405 288.251 22.071C288.036 22.3014 287.929 22.6369 287.929 23.0773V25.4048H287.23V21.1953H287.929V21.7944C288.067 21.5794 288.254 21.4129 288.49 21.2951C288.73 21.1773 288.994 21.1185 289.281 21.1185ZM293.633 25.4739C293.311 25.4739 293.022 25.4201 292.765 25.3126C292.509 25.1999 292.307 25.0463 292.159 24.8517C292.01 24.652 291.928 24.4241 291.913 24.168H292.635C292.655 24.378 292.753 24.5496 292.927 24.6827C293.106 24.8159 293.339 24.8824 293.626 24.8824C293.892 24.8824 294.102 24.8235 294.256 24.7058C294.409 24.588 294.486 24.4395 294.486 24.2602C294.486 24.0759 294.404 23.9402 294.24 23.8531C294.076 23.7609 293.823 23.6713 293.48 23.5842C293.167 23.5023 292.911 23.4204 292.712 23.3384C292.517 23.2514 292.348 23.1259 292.205 22.962C292.066 22.793 291.997 22.5728 291.997 22.3014C291.997 22.0863 292.061 21.8892 292.189 21.7099C292.317 21.5307 292.499 21.3899 292.735 21.2875C292.97 21.1799 293.239 21.1261 293.541 21.1261C294.007 21.1261 294.384 21.2439 294.67 21.4795C294.957 21.7151 295.111 22.0377 295.131 22.4474H294.432C294.417 22.2272 294.327 22.0505 294.164 21.9173C294.005 21.7842 293.79 21.7176 293.518 21.7176C293.267 21.7176 293.068 21.7714 292.919 21.8789C292.771 21.9865 292.696 22.1273 292.696 22.3014C292.696 22.4397 292.74 22.5549 292.827 22.6471C292.919 22.7342 293.032 22.8058 293.165 22.8622C293.303 22.9134 293.493 22.9723 293.733 23.0389C294.035 23.1208 294.281 23.2027 294.471 23.2847C294.66 23.3615 294.822 23.4793 294.955 23.638C295.093 23.7968 295.165 24.0042 295.17 24.2602C295.17 24.4907 295.106 24.6981 294.978 24.8824C294.85 25.0668 294.668 25.2127 294.432 25.3203C294.202 25.4227 293.936 25.4739 293.633 25.4739ZM299.997 23.1387C299.997 23.2719 299.99 23.4127 299.974 23.5612H296.61C296.635 23.976 296.776 24.3012 297.032 24.5368C297.293 24.7672 297.608 24.8824 297.977 24.8824C298.279 24.8824 298.53 24.8133 298.73 24.675C298.935 24.5316 299.078 24.3422 299.16 24.1066H299.913C299.8 24.5112 299.575 24.8415 299.237 25.0975C298.899 25.3485 298.479 25.4739 297.977 25.4739C297.578 25.4739 297.219 25.3843 296.902 25.2051C296.589 25.0258 296.343 24.7723 296.164 24.4446C295.985 24.1117 295.895 23.7276 295.895 23.2923C295.895 22.8571 295.982 22.4755 296.157 22.1478C296.331 21.82 296.574 21.5691 296.886 21.395C297.204 21.2158 297.567 21.1261 297.977 21.1261C298.377 21.1261 298.73 21.2132 299.037 21.3873C299.344 21.5614 299.58 21.8021 299.744 22.1094C299.913 22.4115 299.997 22.7546 299.997 23.1387ZM299.275 22.9928C299.275 22.7265 299.216 22.4986 299.099 22.3091C298.981 22.1145 298.82 21.9686 298.615 21.8713C298.415 21.7688 298.192 21.7176 297.946 21.7176C297.593 21.7176 297.291 21.8303 297.04 22.0556C296.794 22.2809 296.653 22.5933 296.617 22.9928H299.275ZM302.41 25.4739C302.088 25.4739 301.798 25.4201 301.542 25.3126C301.286 25.1999 301.084 25.0463 300.935 24.8517C300.787 24.652 300.705 24.4241 300.69 24.168H301.412C301.432 24.378 301.529 24.5496 301.704 24.6827C301.883 24.8159 302.116 24.8824 302.403 24.8824C302.669 24.8824 302.879 24.8235 303.033 24.7058C303.186 24.588 303.263 24.4395 303.263 24.2602C303.263 24.0759 303.181 23.9402 303.017 23.8531C302.853 23.7609 302.6 23.6713 302.257 23.5842C301.944 23.5023 301.688 23.4204 301.489 23.3384C301.294 23.2514 301.125 23.1259 300.982 22.962C300.843 22.793 300.774 22.5728 300.774 22.3014C300.774 22.0863 300.838 21.8892 300.966 21.7099C301.094 21.5307 301.276 21.3899 301.512 21.2875C301.747 21.1799 302.016 21.1261 302.318 21.1261C302.784 21.1261 303.161 21.2439 303.447 21.4795C303.734 21.7151 303.888 22.0377 303.908 22.4474H303.209C303.194 22.2272 303.104 22.0505 302.94 21.9173C302.782 21.7842 302.566 21.7176 302.295 21.7176C302.044 21.7176 301.844 21.7714 301.696 21.8789C301.547 21.9865 301.473 22.1273 301.473 22.3014C301.473 22.4397 301.517 22.5549 301.604 22.6471C301.696 22.7342 301.809 22.8058 301.942 22.8622C302.08 22.9134 302.269 22.9723 302.51 23.0389C302.812 23.1208 303.058 23.2027 303.248 23.2847C303.437 23.3615 303.598 23.4793 303.732 23.638C303.87 23.7968 303.941 24.0042 303.947 24.2602C303.947 24.4907 303.883 24.6981 303.755 24.8824C303.627 25.0668 303.445 25.2127 303.209 25.3203C302.979 25.4227 302.712 25.4739 302.41 25.4739Z" fill="#828282"/>
<path d="M329.016 20.0891V25.4048H328.317V21.4411L326.55 25.4048H326.058L324.284 21.4334V25.4048H323.585V20.0891H324.338L326.304 24.483L328.271 20.0891H329.016ZM332.037 25.4739C331.643 25.4739 331.284 25.3843 330.962 25.2051C330.644 25.0258 330.393 24.7723 330.209 24.4446C330.03 24.1117 329.94 23.7276 329.94 23.2923C329.94 22.8622 330.032 22.4832 330.217 22.1555C330.406 21.8226 330.662 21.5691 330.985 21.395C331.307 21.2158 331.668 21.1261 332.068 21.1261C332.467 21.1261 332.828 21.2158 333.151 21.395C333.474 21.5691 333.727 21.82 333.911 22.1478C334.101 22.4755 334.196 22.8571 334.196 23.2923C334.196 23.7276 334.098 24.1117 333.904 24.4446C333.714 24.7723 333.456 25.0258 333.128 25.2051C332.8 25.3843 332.437 25.4739 332.037 25.4739ZM332.037 24.8594C332.288 24.8594 332.524 24.8005 332.744 24.6827C332.964 24.5649 333.141 24.3883 333.274 24.1527C333.412 23.9171 333.481 23.6303 333.481 23.2923C333.481 22.9544 333.415 22.6676 333.281 22.432C333.148 22.1964 332.974 22.0223 332.759 21.9097C332.544 21.7919 332.311 21.733 332.06 21.733C331.804 21.733 331.568 21.7919 331.353 21.9097C331.143 22.0223 330.974 22.1964 330.846 22.432C330.718 22.6676 330.654 22.9544 330.654 23.2923C330.654 23.6355 330.716 23.9248 330.839 24.1604C330.967 24.3959 331.136 24.5726 331.346 24.6904C331.556 24.8031 331.786 24.8594 332.037 24.8594ZM337.166 21.1185C337.678 21.1185 338.093 21.2746 338.41 21.587C338.728 21.8943 338.886 22.3398 338.886 22.9236V25.4048H338.195V23.0235C338.195 22.6036 338.09 22.2835 337.88 22.0633C337.67 21.838 337.383 21.7253 337.02 21.7253C336.651 21.7253 336.357 21.8405 336.136 22.071C335.921 22.3014 335.814 22.6369 335.814 23.0773V25.4048H335.115V21.1953H335.814V21.7944C335.952 21.5794 336.139 21.4129 336.374 21.2951C336.615 21.1773 336.879 21.1185 337.166 21.1185ZM340.881 21.7714V24.2525C340.881 24.4574 340.924 24.6033 341.011 24.6904C341.099 24.7723 341.25 24.8133 341.465 24.8133H341.979V25.4048H341.349C340.96 25.4048 340.668 25.3152 340.474 25.1359C340.279 24.9567 340.182 24.6622 340.182 24.2525V21.7714H339.636V21.1953H340.182V20.1352H340.881V21.1953H341.979V21.7714H340.881ZM344.916 21.1185C345.233 21.1185 345.52 21.1876 345.776 21.3259C346.032 21.459 346.232 21.6613 346.375 21.9327C346.524 22.2041 346.598 22.5344 346.598 22.9236V25.4048H345.907V23.0235C345.907 22.6036 345.802 22.2835 345.592 22.0633C345.382 21.838 345.095 21.7253 344.731 21.7253C344.363 21.7253 344.068 21.8405 343.848 22.071C343.633 22.3014 343.525 22.6369 343.525 23.0773V25.4048H342.826V19.7204H343.525V21.7944C343.664 21.5794 343.853 21.4129 344.094 21.2951C344.34 21.1773 344.614 21.1185 344.916 21.1185ZM348.439 19.7204V25.4048H347.74V19.7204H348.439ZM353.256 21.1953L350.721 27.3866H349.999L350.829 25.3587L349.131 21.1953H349.907L351.228 24.6059L352.534 21.1953H353.256Z" fill="#262626"/>
<path d="M364.21 21.4287L362.123 23.5155C361.877 23.762 361.473 23.762 361.227 23.5155L359.14 21.4287" stroke="#828282" stroke-width="0.768159" stroke-miterlimit="10" stroke-linecap="round" stroke-linejoin="round"/>
<rect x="315.632" y="12.4827" width="57.2454" height="19.8441" rx="4.16086" stroke="#D9D9D9" stroke-width="0.640133"/>
<path d="M49.5517 209.807V215.123H48.8526V211.159L47.0859 215.123H46.5943L44.8198 211.151V215.123H44.1208V209.807H44.8736L46.8401 214.201L48.8066 209.807H49.5517ZM52.573 215.192C52.1787 215.192 51.8203 215.102 51.4976 214.923C51.1801 214.744 50.9292 214.49 50.7448 214.162C50.5656 213.829 50.476 213.445 50.476 213.01C50.476 212.58 50.5682 212.201 50.7525 211.873C50.942 211.54 51.198 211.287 51.5207 211.113C51.8433 210.934 52.2043 210.844 52.6038 210.844C53.0032 210.844 53.3643 210.934 53.6869 211.113C54.0095 211.287 54.263 211.538 54.4474 211.866C54.6368 212.193 54.7316 212.575 54.7316 213.01C54.7316 213.445 54.6343 213.829 54.4397 214.162C54.2502 214.49 53.9916 214.744 53.6638 214.923C53.3361 215.102 52.9725 215.192 52.573 215.192ZM52.573 214.577C52.824 214.577 53.0596 214.518 53.2798 214.4C53.5 214.283 53.6766 214.106 53.8098 213.87C53.9481 213.635 54.0172 213.348 54.0172 213.01C54.0172 212.672 53.9506 212.385 53.8175 212.15C53.6843 211.914 53.5102 211.74 53.2951 211.627C53.08 211.51 52.847 211.451 52.5961 211.451C52.34 211.451 52.1045 211.51 51.8894 211.627C51.6794 211.74 51.5104 211.914 51.3824 212.15C51.2544 212.385 51.1904 212.672 51.1904 213.01C51.1904 213.353 51.2518 213.643 51.3747 213.878C51.5027 214.114 51.6717 214.29 51.8817 214.408C52.0917 214.521 52.3221 214.577 52.573 214.577ZM57.7017 210.836C58.2138 210.836 58.6286 210.992 58.9461 211.305C59.2636 211.612 59.4223 212.058 59.4223 212.641V215.123H58.731V212.741C58.731 212.321 58.626 212.001 58.416 211.781C58.2061 211.556 57.9193 211.443 57.5557 211.443C57.187 211.443 56.8925 211.558 56.6723 211.789C56.4572 212.019 56.3497 212.355 56.3497 212.795V215.123H55.6507V210.913H56.3497V211.512C56.488 211.297 56.6749 211.131 56.9104 211.013C57.1511 210.895 57.4149 210.836 57.7017 210.836Z" fill="#828282"/>
<path d="M101.188 209.768V210.337H99.7282V215.123H99.0291V210.337H97.562V209.768H101.188ZM105.781 210.913V215.123H105.082V214.5C104.949 214.715 104.762 214.884 104.522 215.007C104.286 215.125 104.025 215.184 103.738 215.184C103.41 215.184 103.116 215.117 102.855 214.984C102.594 214.846 102.386 214.641 102.232 214.37C102.084 214.098 102.01 213.768 102.01 213.379V210.913H102.701V213.287C102.701 213.701 102.806 214.022 103.016 214.247C103.226 214.467 103.513 214.577 103.876 214.577C104.25 214.577 104.545 214.462 104.76 214.231C104.975 214.001 105.082 213.666 105.082 213.225V210.913H105.781ZM110.802 212.856C110.802 212.99 110.795 213.13 110.779 213.279H107.415C107.44 213.694 107.581 214.019 107.837 214.255C108.099 214.485 108.413 214.6 108.782 214.6C109.084 214.6 109.335 214.531 109.535 214.393C109.74 214.249 109.883 214.06 109.965 213.824H110.718C110.605 214.229 110.38 214.559 110.042 214.815C109.704 215.066 109.284 215.192 108.782 215.192C108.383 215.192 108.024 215.102 107.707 214.923C107.394 214.744 107.149 214.49 106.969 214.162C106.79 213.829 106.7 213.445 106.7 213.01C106.7 212.575 106.788 212.193 106.962 211.866C107.136 211.538 107.379 211.287 107.691 211.113C108.009 210.934 108.372 210.844 108.782 210.844C109.182 210.844 109.535 210.931 109.842 211.105C110.15 211.279 110.385 211.52 110.549 211.827C110.718 212.129 110.802 212.472 110.802 212.856ZM110.08 212.711C110.08 212.444 110.021 212.216 109.904 212.027C109.786 211.832 109.625 211.686 109.42 211.589C109.22 211.487 108.997 211.435 108.751 211.435C108.398 211.435 108.096 211.548 107.845 211.773C107.599 211.999 107.458 212.311 107.423 212.711H110.08Z" fill="#828282"/>
<path d="M155.832 209.768L154.281 215.123H153.497L152.253 210.813L150.962 215.123L150.186 215.13L148.688 209.768H149.434L150.601 214.308L151.892 209.768H152.675L153.904 214.293L155.079 209.768H155.832ZM160.438 212.856C160.438 212.99 160.43 213.13 160.415 213.279H157.05C157.076 213.694 157.217 214.019 157.473 214.255C157.734 214.485 158.049 214.6 158.418 214.6C158.72 214.6 158.971 214.531 159.171 214.393C159.375 214.249 159.519 214.06 159.601 213.824H160.354C160.241 214.229 160.016 214.559 159.678 214.815C159.34 215.066 158.92 215.192 158.418 215.192C158.018 215.192 157.66 215.102 157.342 214.923C157.03 214.744 156.784 214.49 156.605 214.162C156.426 213.829 156.336 213.445 156.336 213.01C156.336 212.575 156.423 212.193 156.597 211.866C156.771 211.538 157.015 211.287 157.327 211.113C157.645 210.934 158.008 210.844 158.418 210.844C158.817 210.844 159.171 210.931 159.478 211.105C159.785 211.279 160.021 211.52 160.185 211.827C160.354 212.129 160.438 212.472 160.438 212.856ZM159.716 212.711C159.716 212.444 159.657 212.216 159.539 212.027C159.422 211.832 159.26 211.686 159.055 211.589C158.856 211.487 158.633 211.435 158.387 211.435C158.034 211.435 157.732 211.548 157.481 211.773C157.235 211.999 157.094 212.311 157.058 212.711H159.716ZM161.1 213.002C161.1 212.572 161.187 212.196 161.361 211.873C161.535 211.545 161.773 211.292 162.075 211.113C162.382 210.934 162.726 210.844 163.104 210.844C163.432 210.844 163.737 210.921 164.019 211.074C164.3 211.223 164.515 211.42 164.664 211.666V209.438H165.371V215.123H164.664V214.331C164.526 214.582 164.321 214.79 164.049 214.954C163.778 215.112 163.46 215.192 163.097 215.192C162.723 215.192 162.382 215.1 162.075 214.915C161.773 214.731 161.535 214.472 161.361 214.139C161.187 213.806 161.1 213.427 161.1 213.002ZM164.664 213.01C164.664 212.693 164.6 212.416 164.472 212.181C164.344 211.945 164.17 211.766 163.949 211.643C163.734 211.515 163.496 211.451 163.235 211.451C162.974 211.451 162.736 211.512 162.521 211.635C162.306 211.758 162.134 211.937 162.006 212.173C161.878 212.408 161.814 212.685 161.814 213.002C161.814 213.325 161.878 213.607 162.006 213.847C162.134 214.083 162.306 214.265 162.521 214.393C162.736 214.516 162.974 214.577 163.235 214.577C163.496 214.577 163.734 214.516 163.949 214.393C164.17 214.265 164.344 214.083 164.472 213.847C164.6 213.607 164.664 213.328 164.664 213.01Z" fill="#828282"/>
<path d="M207.577 209.684V211.036H206.133V215.123H204.428V211.036H202.999V209.684H207.577ZM211.074 210.759C211.571 210.759 211.957 210.926 212.234 211.259C212.515 211.592 212.656 212.042 212.656 212.611V215.123H210.959V212.826C210.959 212.621 210.902 212.46 210.79 212.342C210.682 212.219 210.536 212.157 210.352 212.157C210.162 212.157 210.014 212.219 209.906 212.342C209.799 212.46 209.745 212.621 209.745 212.826V215.123H208.04V209.438H209.745V211.451C209.878 211.246 210.055 211.079 210.275 210.951C210.5 210.823 210.767 210.759 211.074 210.759ZM217.982 210.79V215.123H216.276V214.462C216.143 214.667 215.964 214.833 215.739 214.961C215.518 215.089 215.255 215.153 214.947 215.153C214.451 215.153 214.061 214.987 213.78 214.654C213.503 214.321 213.365 213.87 213.365 213.302V210.79H215.063V213.087C215.063 213.292 215.116 213.456 215.224 213.579C215.337 213.696 215.485 213.755 215.669 213.755C215.859 213.755 216.007 213.696 216.115 213.579C216.223 213.456 216.276 213.292 216.276 213.087V210.79H217.982Z" fill="#163D2A"/>
<path d="M258.391 209.768V210.337H256.064V212.142H257.954V212.711H256.064V215.123H255.365V209.768H258.391ZM259.935 211.597C260.058 211.356 260.232 211.169 260.457 211.036C260.688 210.903 260.967 210.836 261.294 210.836V211.558H261.11C260.327 211.558 259.935 211.983 259.935 212.833V215.123H259.236V210.913H259.935V211.597ZM262.462 210.229C262.329 210.229 262.217 210.183 262.124 210.091C262.032 209.999 261.986 209.886 261.986 209.753C261.986 209.62 262.032 209.507 262.124 209.415C262.217 209.323 262.329 209.277 262.462 209.277C262.59 209.277 262.698 209.323 262.785 209.415C262.877 209.507 262.923 209.62 262.923 209.753C262.923 209.886 262.877 209.999 262.785 210.091C262.698 210.183 262.59 210.229 262.462 210.229ZM262.8 210.913V215.123H262.101V210.913H262.8Z" fill="#828282"/>
<path d="M304.432 215.176C304.078 215.176 303.761 215.115 303.479 214.992C303.203 214.864 302.985 214.69 302.826 214.47C302.667 214.244 302.586 213.986 302.58 213.694H303.326C303.351 213.945 303.454 214.157 303.633 214.331C303.817 214.5 304.083 214.585 304.432 214.585C304.765 214.585 305.026 214.503 305.215 214.339C305.41 214.17 305.507 213.955 305.507 213.694C305.507 213.489 305.451 213.323 305.338 213.194C305.225 213.066 305.085 212.969 304.916 212.903C304.747 212.836 304.519 212.764 304.232 212.687C303.879 212.595 303.594 212.503 303.379 212.411C303.169 212.319 302.988 212.175 302.834 211.981C302.685 211.781 302.611 211.515 302.611 211.182C302.611 210.89 302.685 210.631 302.834 210.406C302.982 210.181 303.19 210.007 303.456 209.884C303.728 209.761 304.037 209.699 304.386 209.699C304.887 209.699 305.297 209.825 305.615 210.076C305.937 210.327 306.119 210.66 306.16 211.074H305.392C305.366 210.87 305.259 210.69 305.069 210.537C304.88 210.378 304.629 210.299 304.316 210.299C304.025 210.299 303.786 210.375 303.602 210.529C303.418 210.677 303.326 210.887 303.326 211.159C303.326 211.353 303.379 211.512 303.487 211.635C303.6 211.758 303.735 211.853 303.894 211.919C304.058 211.981 304.286 212.052 304.578 212.134C304.931 212.232 305.215 212.329 305.43 212.426C305.645 212.518 305.83 212.664 305.983 212.864C306.137 213.059 306.214 213.325 306.214 213.663C306.214 213.924 306.145 214.17 306.006 214.4C305.868 214.631 305.663 214.818 305.392 214.961C305.12 215.105 304.8 215.176 304.432 215.176ZM306.981 213.002C306.981 212.572 307.068 212.196 307.242 211.873C307.417 211.545 307.655 211.292 307.957 211.113C308.264 210.934 308.605 210.844 308.979 210.844C309.347 210.844 309.667 210.923 309.939 211.082C310.21 211.241 310.412 211.441 310.546 211.681V210.913H311.252V215.123H310.546V214.339C310.407 214.585 310.2 214.79 309.923 214.954C309.652 215.112 309.334 215.192 308.971 215.192C308.597 215.192 308.259 215.1 307.957 214.915C307.655 214.731 307.417 214.472 307.242 214.139C307.068 213.806 306.981 213.427 306.981 213.002ZM310.546 213.01C310.546 212.693 310.482 212.416 310.354 212.181C310.226 211.945 310.051 211.766 309.831 211.643C309.616 211.515 309.378 211.451 309.117 211.451C308.856 211.451 308.617 211.512 308.402 211.635C308.187 211.758 308.016 211.937 307.888 212.173C307.76 212.408 307.696 212.685 307.696 213.002C307.696 213.325 307.76 213.607 307.888 213.847C308.016 214.083 308.187 214.265 308.402 214.393C308.617 214.516 308.856 214.577 309.117 214.577C309.378 214.577 309.616 214.516 309.831 214.393C310.051 214.265 310.226 214.083 310.354 213.847C310.482 213.607 310.546 213.328 310.546 213.01ZM313.286 211.489V213.97C313.286 214.175 313.33 214.321 313.417 214.408C313.504 214.49 313.655 214.531 313.87 214.531H314.385V215.123H313.755C313.366 215.123 313.074 215.033 312.879 214.854C312.685 214.674 312.587 214.38 312.587 213.97V211.489H312.042V210.913H312.587V209.853H313.286V210.913H314.385V211.489H313.286Z" fill="#828282"/>
<path d="M353.723 215.176C353.369 215.176 353.052 215.115 352.77 214.992C352.494 214.864 352.276 214.69 352.117 214.47C351.959 214.244 351.877 213.986 351.871 213.694H352.617C352.642 213.945 352.745 214.157 352.924 214.331C353.108 214.5 353.374 214.585 353.723 214.585C354.056 214.585 354.317 214.503 354.506 214.339C354.701 214.17 354.798 213.955 354.798 213.694C354.798 213.489 354.742 213.323 354.629 213.194C354.516 213.066 354.376 212.969 354.207 212.903C354.038 212.836 353.81 212.764 353.523 212.687C353.17 212.595 352.885 212.503 352.67 212.411C352.46 212.319 352.279 212.175 352.125 211.981C351.976 211.781 351.902 211.515 351.902 211.182C351.902 210.89 351.976 210.631 352.125 210.406C352.273 210.181 352.481 210.007 352.747 209.884C353.019 209.761 353.328 209.699 353.677 209.699C354.178 209.699 354.588 209.825 354.906 210.076C355.228 210.327 355.41 210.66 355.451 211.074H354.683C354.657 210.87 354.55 210.69 354.36 210.537C354.171 210.378 353.92 210.299 353.607 210.299C353.316 210.299 353.077 210.375 352.893 210.529C352.709 210.677 352.617 210.887 352.617 211.159C352.617 211.353 352.67 211.512 352.778 211.635C352.891 211.758 353.026 211.853 353.185 211.919C353.349 211.981 353.577 212.052 353.869 212.134C354.222 212.232 354.506 212.329 354.721 212.426C354.936 212.518 355.121 212.664 355.274 212.864C355.428 213.059 355.505 213.325 355.505 213.663C355.505 213.924 355.436 214.17 355.297 214.4C355.159 214.631 354.954 214.818 354.683 214.961C354.411 215.105 354.091 215.176 353.723 215.176ZM360.267 210.913V215.123H359.568V214.5C359.435 214.715 359.248 214.884 359.007 215.007C358.771 215.125 358.51 215.184 358.223 215.184C357.896 215.184 357.601 215.117 357.34 214.984C357.079 214.846 356.872 214.641 356.718 214.37C356.569 214.098 356.495 213.768 356.495 213.379V210.913H357.186V213.287C357.186 213.701 357.291 214.022 357.501 214.247C357.711 214.467 357.998 214.577 358.362 214.577C358.736 214.577 359.03 214.462 359.245 214.231C359.46 214.001 359.568 213.666 359.568 213.225V210.913H360.267ZM363.498 210.836C364.01 210.836 364.425 210.992 364.742 211.305C365.06 211.612 365.219 212.058 365.219 212.641V215.123H364.527V212.741C364.527 212.321 364.422 212.001 364.212 211.781C364.002 211.556 363.716 211.443 363.352 211.443C362.983 211.443 362.689 211.558 362.469 211.789C362.254 212.019 362.146 212.355 362.146 212.795V215.123H361.447V210.913H362.146V211.512C362.284 211.297 362.471 211.131 362.707 211.013C362.947 210.895 363.211 210.836 363.498 210.836Z" fill="#828282"/>
<defs>
<linearGradient id="paint0_linear_1_350" x1="41.9325" y1="135.608" x2="376.82" y2="104.82" gradientUnits="userSpaceOnUse">
<stop stop-color="#2FB574"/>
<stop offset="0.530025" stop-color="#163D2A"/>
<stop offset="1" stop-color="#79EFBC"/>
</linearGradient>
</defs>
</svg>
