<svg width="200" height="78" viewBox="0 0 200 78" fill="none" xmlns="http://www.w3.org/2000/svg">
<path d="M57.462 47V30.2H63.63C64.974 30.2 66.078 30.432 66.942 30.896C67.822 31.344 68.478 31.96 68.91 32.744C69.342 33.512 69.558 34.368 69.558 35.312C69.558 36.336 69.286 37.272 68.742 38.12C68.214 38.968 67.382 39.584 66.246 39.968L69.726 47H66.198L63.078 40.376H60.534V47H57.462ZM60.534 38.12H63.438C64.462 38.12 65.214 37.872 65.694 37.376C66.174 36.88 66.414 36.224 66.414 35.408C66.414 34.608 66.174 33.968 65.694 33.488C65.23 33.008 64.47 32.768 63.414 32.768H60.534V38.12ZM77.3285 47.288C76.1765 47.288 75.1365 47.024 74.2085 46.496C73.2965 45.968 72.5685 45.24 72.0245 44.312C71.4965 43.368 71.2325 42.28 71.2325 41.048C71.2325 39.816 71.5045 38.736 72.0485 37.808C72.5925 36.864 73.3205 36.128 74.2325 35.6C75.1605 35.072 76.2005 34.808 77.3525 34.808C78.4885 34.808 79.5125 35.072 80.4245 35.6C81.3525 36.128 82.0805 36.864 82.6085 37.808C83.1525 38.736 83.4246 39.816 83.4246 41.048C83.4246 42.28 83.1525 43.368 82.6085 44.312C82.0805 45.24 81.3525 45.968 80.4245 46.496C79.4965 47.024 78.4645 47.288 77.3285 47.288ZM77.3285 44.624C78.1285 44.624 78.8245 44.328 79.4165 43.736C80.0085 43.128 80.3045 42.232 80.3045 41.048C80.3045 39.864 80.0085 38.976 79.4165 38.384C78.8245 37.776 78.1365 37.472 77.3525 37.472C76.5365 37.472 75.8325 37.776 75.2405 38.384C74.6645 38.976 74.3765 39.864 74.3765 41.048C74.3765 42.232 74.6645 43.128 75.2405 43.736C75.8325 44.328 76.5285 44.624 77.3285 44.624ZM93.2272 47.288C92.3312 47.288 91.5472 47.12 90.8752 46.784C90.2032 46.448 89.6592 45.976 89.2432 45.368L88.9072 47H86.1712V29.72H89.2432V36.8C89.6272 36.272 90.1312 35.808 90.7552 35.408C91.3952 35.008 92.2192 34.808 93.2272 34.808C94.3472 34.808 95.3472 35.08 96.2272 35.624C97.1072 36.168 97.8032 36.912 98.3152 37.856C98.8272 38.8 99.0832 39.872 99.0832 41.072C99.0832 42.272 98.8272 43.344 98.3152 44.288C97.8032 45.216 97.1072 45.952 96.2272 46.496C95.3472 47.024 94.3472 47.288 93.2272 47.288ZM92.5792 44.6C93.5552 44.6 94.3632 44.272 95.0032 43.616C95.6432 42.96 95.9632 42.112 95.9632 41.072C95.9632 40.032 95.6432 39.176 95.0032 38.504C94.3632 37.832 93.5552 37.496 92.5792 37.496C91.5872 37.496 90.7712 37.832 90.1312 38.504C89.5072 39.16 89.1952 40.008 89.1952 41.048C89.1952 42.088 89.5072 42.944 90.1312 43.616C90.7712 44.272 91.5872 44.6 92.5792 44.6ZM107.539 47.288C106.387 47.288 105.347 47.024 104.419 46.496C103.507 45.968 102.779 45.24 102.235 44.312C101.707 43.368 101.443 42.28 101.443 41.048C101.443 39.816 101.715 38.736 102.259 37.808C102.803 36.864 103.531 36.128 104.443 35.6C105.371 35.072 106.411 34.808 107.563 34.808C108.699 34.808 109.723 35.072 110.635 35.6C111.563 36.128 112.291 36.864 112.819 37.808C113.363 38.736 113.635 39.816 113.635 41.048C113.635 42.28 113.363 43.368 112.819 44.312C112.291 45.24 111.563 45.968 110.635 46.496C109.707 47.024 108.675 47.288 107.539 47.288ZM107.539 44.624C108.339 44.624 109.035 44.328 109.627 43.736C110.219 43.128 110.515 42.232 110.515 41.048C110.515 39.864 110.219 38.976 109.627 38.384C109.035 37.776 108.347 37.472 107.563 37.472C106.747 37.472 106.043 37.776 105.451 38.384C104.875 38.976 104.587 39.864 104.587 41.048C104.587 42.232 104.875 43.128 105.451 43.736C106.043 44.328 106.739 44.624 107.539 44.624ZM121.302 47.288C120.246 47.288 119.318 47.12 118.518 46.784C117.718 46.432 117.078 45.952 116.598 45.344C116.118 44.736 115.83 44.032 115.734 43.232H118.83C118.926 43.696 119.182 44.096 119.598 44.432C120.03 44.752 120.582 44.912 121.254 44.912C121.926 44.912 122.414 44.776 122.718 44.504C123.038 44.232 123.198 43.92 123.198 43.568C123.198 43.056 122.974 42.712 122.526 42.536C122.078 42.344 121.454 42.16 120.654 41.984C120.142 41.872 119.622 41.736 119.094 41.576C118.566 41.416 118.078 41.216 117.63 40.976C117.198 40.72 116.846 40.4 116.574 40.016C116.302 39.616 116.166 39.128 116.166 38.552C116.166 37.496 116.582 36.608 117.414 35.888C118.262 35.168 119.446 34.808 120.966 34.808C122.374 34.808 123.494 35.136 124.326 35.792C125.174 36.448 125.678 37.352 125.838 38.504H122.934C122.758 37.624 122.094 37.184 120.942 37.184C120.366 37.184 119.918 37.296 119.598 37.52C119.294 37.744 119.142 38.024 119.142 38.36C119.142 38.712 119.374 38.992 119.838 39.2C120.302 39.408 120.918 39.6 121.686 39.776C122.518 39.968 123.278 40.184 123.966 40.424C124.67 40.648 125.23 40.992 125.646 41.456C126.062 41.904 126.27 42.552 126.27 43.4C126.286 44.136 126.094 44.8 125.694 45.392C125.294 45.984 124.718 46.448 123.966 46.784C123.214 47.12 122.326 47.288 121.302 47.288ZM134.776 47.288C133.576 47.288 132.512 47.032 131.584 46.52C130.656 46.008 129.928 45.288 129.4 44.36C128.872 43.432 128.608 42.36 128.608 41.144C128.608 39.912 128.864 38.816 129.376 37.856C129.904 36.896 130.624 36.152 131.536 35.624C132.464 35.08 133.552 34.808 134.8 34.808C135.968 34.808 137 35.064 137.896 35.576C138.792 36.088 139.488 36.792 139.984 37.688C140.496 38.568 140.752 39.552 140.752 40.64C140.752 40.816 140.744 41 140.728 41.192C140.728 41.384 140.72 41.584 140.704 41.792H131.656C131.72 42.72 132.04 43.448 132.616 43.976C133.208 44.504 133.92 44.768 134.752 44.768C135.376 44.768 135.896 44.632 136.312 44.36C136.744 44.072 137.064 43.704 137.272 43.256H140.392C140.168 44.008 139.792 44.696 139.264 45.32C138.752 45.928 138.112 46.408 137.344 46.76C136.592 47.112 135.736 47.288 134.776 47.288ZM134.8 37.304C134.048 37.304 133.384 37.52 132.808 37.952C132.232 38.368 131.864 39.008 131.704 39.872H137.632C137.584 39.088 137.296 38.464 136.768 38C136.24 37.536 135.584 37.304 134.8 37.304ZM143.335 47V35.096H146.071L146.359 37.328C146.791 36.56 147.375 35.952 148.111 35.504C148.863 35.04 149.743 34.808 150.751 34.808V38.048H149.887C149.215 38.048 148.615 38.152 148.087 38.36C147.559 38.568 147.143 38.928 146.839 39.44C146.551 39.952 146.407 40.664 146.407 41.576V47H143.335ZM156.067 47L151.699 35.096H154.915L157.939 44.096L160.963 35.096H164.179L159.787 47H156.067ZM167.773 33.248C167.213 33.248 166.749 33.08 166.381 32.744C166.029 32.408 165.853 31.984 165.853 31.472C165.853 30.96 166.029 30.544 166.381 30.224C166.749 29.888 167.213 29.72 167.773 29.72C168.333 29.72 168.789 29.888 169.141 30.224C169.509 30.544 169.693 30.96 169.693 31.472C169.693 31.984 169.509 32.408 169.141 32.744C168.789 33.08 168.333 33.248 167.773 33.248ZM166.237 47V35.096H169.309V47H166.237ZM178.347 47.288C177.131 47.288 176.059 47.024 175.131 46.496C174.203 45.968 173.467 45.232 172.923 44.288C172.395 43.344 172.131 42.264 172.131 41.048C172.131 39.832 172.395 38.752 172.923 37.808C173.467 36.864 174.203 36.128 175.131 35.6C176.059 35.072 177.131 34.808 178.347 34.808C179.867 34.808 181.147 35.208 182.187 36.008C183.227 36.792 183.891 37.88 184.179 39.272H180.939C180.779 38.696 180.459 38.248 179.979 37.928C179.515 37.592 178.963 37.424 178.323 37.424C177.475 37.424 176.755 37.744 176.163 38.384C175.571 39.024 175.275 39.912 175.275 41.048C175.275 42.184 175.571 43.072 176.163 43.712C176.755 44.352 177.475 44.672 178.323 44.672C178.963 44.672 179.515 44.512 179.979 44.192C180.459 43.872 180.779 43.416 180.939 42.824H184.179C183.891 44.168 183.227 45.248 182.187 46.064C181.147 46.88 179.867 47.288 178.347 47.288ZM192.69 47.288C191.49 47.288 190.426 47.032 189.498 46.52C188.57 46.008 187.842 45.288 187.314 44.36C186.786 43.432 186.522 42.36 186.522 41.144C186.522 39.912 186.778 38.816 187.29 37.856C187.818 36.896 188.538 36.152 189.45 35.624C190.378 35.08 191.466 34.808 192.714 34.808C193.882 34.808 194.914 35.064 195.81 35.576C196.706 36.088 197.402 36.792 197.898 37.688C198.41 38.568 198.666 39.552 198.666 40.64C198.666 40.816 198.658 41 198.642 41.192C198.642 41.384 198.634 41.584 198.618 41.792H189.57C189.634 42.72 189.954 43.448 190.53 43.976C191.122 44.504 191.834 44.768 192.666 44.768C193.29 44.768 193.81 44.632 194.226 44.36C194.658 44.072 194.978 43.704 195.186 43.256H198.306C198.082 44.008 197.706 44.696 197.178 45.32C196.666 45.928 196.026 46.408 195.258 46.76C194.506 47.112 193.65 47.288 192.69 47.288ZM192.714 37.304C191.962 37.304 191.298 37.52 190.722 37.952C190.146 38.368 189.778 39.008 189.618 39.872H195.546C195.498 39.088 195.21 38.464 194.682 38C194.154 37.536 193.498 37.304 192.714 37.304Z" fill="#2FB574"/>
<g clip-path="url(#clip0_6_1823)">
<path d="M49.742 34.4355H46.0753C45.5319 34.4355 45.0916 35.0081 45.0916 35.7143V38.3781H43.4192V35.7143C43.4192 35.0081 42.9789 34.4355 42.4355 34.4355H38.3641V31.7922H42.4355C42.9789 31.7922 43.4192 31.2197 43.4192 30.5134V10.0731C43.4192 6.98284 41.4854 4.46886 39.1082 4.46886H30.9837V1.27878C30.9837 0.572509 30.5435 0 30.0001 0C29.4567 0 29.0164 0.572509 29.0164 1.27878V4.46871H20.8918C18.5146 4.46871 16.5808 6.98284 16.5808 10.073V30.5134C16.5808 31.2197 17.021 31.7922 17.5644 31.7922H21.636V34.4355H17.5644C17.021 34.4355 16.5808 35.0081 16.5808 35.7143V38.3781H14.9084V35.7143C14.9084 35.0081 14.4681 34.4355 13.9247 34.4355H10.2579C9.7145 34.4355 9.27423 35.0081 9.27423 35.7143V61.4751C9.27423 62.1814 9.7145 62.7539 10.2579 62.7539H13.9246C14.468 62.7539 14.9083 62.1814 14.9083 61.4751V46.193H16.5807V56.5833C16.5807 57.2896 17.0209 57.8621 17.5643 57.8621H19.3104V69.3965H18.0699C17.5265 69.3965 17.0862 69.969 17.0862 70.6753V76.7212C17.0862 77.4275 17.5265 78 18.0699 78H26.3602C26.9036 78 27.3439 77.4275 27.3439 76.7212V70.6753C27.3439 69.969 26.9036 69.3965 26.3602 69.3965H25.1198V57.8621H34.8802V69.3965H33.6397C33.0963 69.3965 32.656 69.969 32.656 70.6753V76.7212C32.656 77.4275 33.0963 78 33.6397 78H41.93C42.4734 78 42.9137 77.4275 42.9137 76.7212V70.6753C42.9137 69.969 42.4734 69.3965 41.93 69.3965H40.6896V57.8621H42.4357C42.9791 57.8621 43.4193 57.2896 43.4193 56.5833V46.193H45.0917V61.4749C45.0917 62.1812 45.532 62.7537 46.0754 62.7537H49.7421C50.2855 62.7537 50.7258 62.1812 50.7258 61.4749V35.7142C50.7255 35.0081 50.2852 34.4355 49.742 34.4355ZM12.941 60.1963H11.2417V36.9931H12.941V60.1963ZM16.5808 43.6356H14.9084V40.9356H16.5808V43.6356ZM18.548 29.2348V10.0731C18.548 8.39309 19.5994 7.02626 20.8918 7.02626H39.1082C40.4006 7.02626 41.452 8.39309 41.452 10.0731V29.2348H18.548ZM36.3969 31.7921V34.4354H23.6032V31.7921H36.3969ZM25.3766 71.9542V75.4426H19.0535V71.9542H25.3766ZM21.2779 69.3967V57.8622H23.1527V69.3967H21.2779ZM40.9464 71.9542V75.4426H34.6233V71.9542H40.9464ZM36.8477 69.3967V57.8622H38.7225V69.3967H36.8477ZM41.452 55.3045H18.548V36.9931H41.4519V55.3045H41.452ZM45.0916 43.6356H43.4192V40.9356H45.0916V43.6356ZM48.7583 60.1963H47.059V36.9931H48.7583V60.1963Z" fill="#2FB574"/>
<path d="M23.934 12.9102C21.4961 12.9102 19.5128 15.4884 19.5128 18.6575C19.5128 21.8265 21.4961 24.4048 23.934 24.4048C26.3717 24.405 28.355 21.8267 28.355 18.6575C28.3551 15.4884 26.3718 12.9102 23.934 12.9102ZM23.934 21.8474C22.581 21.8474 21.48 20.4166 21.48 18.6575C21.48 16.8987 22.5809 15.4676 23.934 15.4676C25.2869 15.4676 26.3878 16.8985 26.3878 18.6575C26.3878 20.4165 25.287 21.8474 23.934 21.8474Z" fill="#2FB574"/>
<path d="M36.0663 12.9102C33.6284 12.9102 31.6451 15.4884 31.6451 18.6575C31.6451 21.8265 33.6284 24.405 36.0663 24.405C38.504 24.405 40.4873 21.8267 40.4873 18.6576C40.4873 15.4886 38.504 12.9102 36.0663 12.9102ZM36.0663 21.8474C34.7134 21.8474 33.6124 20.4165 33.6124 18.6575C33.6124 16.8987 34.7131 15.4676 36.0663 15.4676C37.4192 15.4676 38.5201 16.8985 38.5201 18.6575C38.52 20.4165 37.4192 21.8474 36.0663 21.8474Z" fill="#2FB574"/>
<path d="M30.0002 41.27C26.4474 41.27 23.5569 45.0274 23.5569 49.6462C23.5569 50.3525 23.9972 50.925 24.5406 50.925H35.4597C36.0031 50.925 36.4434 50.3525 36.4434 49.6462C36.4433 45.0276 33.5529 41.27 30.0002 41.27ZM25.633 48.3674C26.0825 45.7721 27.87 43.8276 30 43.8276C32.1302 43.8276 33.9176 45.7721 34.367 48.3674H25.633Z" fill="#2FB574"/>
<path d="M38.2904 41.9872C38.8336 41.9872 39.274 41.4147 39.274 40.7085C39.274 40.0022 38.8336 39.4297 38.2904 39.4297C37.7471 39.4297 37.3067 40.0022 37.3067 40.7085C37.3067 41.4147 37.7471 41.9872 38.2904 41.9872Z" fill="#2FB574"/>
<path d="M21.7099 41.9872C22.2531 41.9872 22.6935 41.4147 22.6935 40.7085C22.6935 40.0022 22.2531 39.4297 21.7099 39.4297C21.1666 39.4297 20.7262 40.0022 20.7262 40.7085C20.7262 41.4147 21.1666 41.9872 21.7099 41.9872Z" fill="#2FB574"/>
</g>
<defs>
<clipPath id="clip0_6_1823">
<rect width="60" height="78" fill="white"/>
</clipPath>
</defs>
</svg>
