<svg width="541" height="562" viewBox="0 0 541 562" fill="none" xmlns="http://www.w3.org/2000/svg">
<path d="M263.939 561.21C345.86 561.21 412.27 554.571 412.27 546.381C412.27 538.191 345.86 531.552 263.939 531.552C182.018 531.552 115.607 538.191 115.607 546.381C115.607 554.571 182.018 561.21 263.939 561.21Z" fill="#F1F0F0"/>
<path d="M85.8387 305.423L91.6441 292.225L105.809 294.585L111.618 281.387L125.787 283.747L131.596 270.55" stroke="#333533" stroke-width="4" stroke-linecap="round" stroke-linejoin="round"/>
<path d="M353.699 115.173L367.546 128.025" stroke="#333533" stroke-width="4" stroke-linecap="round" stroke-linejoin="round"/>
<path d="M354.228 128.556L367.018 114.642" stroke="#333533" stroke-width="4" stroke-linecap="round" stroke-linejoin="round"/>
<path d="M334.712 215.46C337.617 215.46 339.971 213.094 339.971 210.175C339.971 207.256 337.617 204.889 334.712 204.889C331.807 204.889 329.453 207.256 329.453 210.175C329.453 213.094 331.807 215.46 334.712 215.46Z" stroke="#333533" stroke-width="4" stroke-linecap="round" stroke-linejoin="round"/>
<path d="M85.0479 260.721C88.8377 260.721 91.91 257.633 91.91 253.825C91.91 250.016 88.8377 246.929 85.0479 246.929C81.2581 246.929 78.1858 250.016 78.1858 253.825C78.1858 257.633 81.2581 260.721 85.0479 260.721Z" fill="#D81F27"/>
<path d="M3 543.789L43.6793 467.052L83.4453 543.304L3 543.789Z" stroke="#333533" stroke-width="6" stroke-linecap="round" stroke-linejoin="round"/>
<path d="M457.551 541.018L498.231 464.277L538 540.533L457.551 541.018Z" stroke="#333533" stroke-width="6" stroke-linecap="round" stroke-linejoin="round"/>
<path d="M70.5329 170.101C84.5675 170.101 95.9448 158.667 95.9448 144.564C95.9448 130.46 84.5675 119.027 70.5329 119.027C56.4983 119.027 45.121 130.46 45.121 144.564C45.121 158.667 56.4983 170.101 70.5329 170.101Z" fill="#3C8D51"/>
<path d="M73.1118 134.447V154.628H69.3815V137.59H65.1369V134.447H73.1118Z" fill="white"/>
<path d="M73.3778 78.4463C88.0462 78.4463 99.9374 66.4966 99.9374 51.756C99.9374 37.0153 88.0462 25.0657 73.3778 25.0657C58.7093 25.0657 46.8181 37.0153 46.8181 51.756C46.8181 66.4966 58.7093 78.4463 73.3778 78.4463Z" fill="#9BB13B"/>
<path d="M80.7228 57.5511V60.716H65.9173V58.2087L73.8957 50.5954C75.8448 48.7211 76.1912 47.5396 76.1912 46.4143C76.1912 44.5681 74.928 43.5026 72.461 43.5026C70.5084 43.5026 68.8742 44.1638 67.7545 45.6126L65.144 43.5941C66.6907 41.4842 69.4761 40.2499 72.7759 40.2499C77.1361 40.2499 79.9495 42.4688 79.9495 46.0451C79.9495 48.0073 79.4036 49.7937 76.6217 52.417L71.2537 57.5511H80.7228Z" fill="white"/>
<path d="M195.468 63.0721C212.8 63.0721 226.85 48.9529 226.85 31.536C226.85 14.1192 212.8 0 195.468 0C178.137 0 164.086 14.1192 164.086 31.536C164.086 48.9529 178.137 63.0721 195.468 63.0721Z" fill="#FEC249"/>
<path d="M203.898 35.9176C203.898 39.6522 201.098 42.8803 195.174 42.8803C192.056 42.8803 188.938 41.9309 186.891 40.3168L188.641 37.1203C190.216 38.4495 192.609 39.304 195.097 39.304C198.026 39.304 199.758 38.0064 199.758 35.9493C199.758 33.9554 198.31 32.6578 194.971 32.6578H192.956V29.8446L197.963 23.8666H187.962V20.4169H202.985V23.1703L197.631 29.5633C201.788 30.0943 203.898 32.6051 203.898 35.9176Z" fill="white"/>
<path d="M319.819 72.1799C334.178 72.1799 345.819 60.4821 345.819 46.0522C345.819 31.6223 334.178 19.9246 319.819 19.9246C305.46 19.9246 293.819 31.6223 293.819 46.0522C293.819 60.4821 305.46 72.1799 319.819 72.1799Z" fill="#E56925"/>
<path d="M327.703 50.8909H324.144V55.4624H320.529V50.8909H309.51V48.2957L319.41 35.2847H323.399L314.073 47.712H320.641V43.6364H324.141V47.7015H327.699L327.703 50.8909Z" fill="white"/>
<path d="M428.01 106.339C446.432 106.339 461.365 91.332 461.365 72.8198C461.365 54.3075 446.432 39.3004 428.01 39.3004C409.589 39.3004 394.655 54.3075 394.655 72.8198C394.655 91.332 409.589 106.339 428.01 106.339Z" fill="#A11E23"/>
<path d="M436.059 76.7724C436.059 80.6652 433.259 83.8933 427.335 83.8933C424.217 83.8933 421.068 82.9439 419.052 81.3298L420.802 78.1333C422.659 79.573 424.944 80.3422 427.289 80.317C430.218 80.317 431.95 79.0194 431.95 76.9306C431.95 74.8418 430.596 73.4809 426.03 73.4809H420.707L421.841 61.4229H434.788V64.8725H425.309L424.836 69.9996H426.936C433.445 69.9996 436.059 72.848 436.059 76.7724Z" fill="white"/>
<path d="M447.099 154.719C447.295 155.971 447.029 157.252 446.35 158.32L445.85 159.108L445.825 159.147C444.782 160.777 443.312 162.087 441.577 162.933C439.842 163.779 437.908 164.129 435.989 163.943C429.515 163.303 422.863 162.997 416.172 162.969C412.087 162.965 408.04 163.754 404.253 165.293C387.772 171.957 374.859 175.576 357.79 180.084C350.503 182.01 342.867 182.188 335.499 180.604L326.646 178.702L333.295 154.74C336.539 155.613 339.761 156.432 343.023 157.202C348.451 158.521 354.114 158.521 359.543 157.202L403.284 146.561C405.257 146.083 407.021 144.972 408.309 143.396C410.693 140.509 412.672 137.307 414.191 133.881C414.276 133.688 414.397 133.514 414.548 133.369C414.7 133.224 414.878 133.111 415.073 133.036C415.269 132.961 415.477 132.925 415.686 132.931C415.895 132.937 416.1 132.985 416.291 133.072C416.417 133.131 416.535 133.206 416.641 133.297C418.681 135.02 418.153 139.071 416.854 143.579C419.53 143.376 422.221 143.638 424.808 144.353C431.408 146.174 437.864 148.351 443.757 150.552C444.635 150.882 445.408 151.442 445.996 152.175C446.584 152.909 446.965 153.787 447.099 154.719Z" fill="white"/>
<path d="M287.752 169.977C288.536 171.606 289.406 173.192 290.358 174.728C294.064 180.723 295.297 187.934 293.795 194.829C290.397 210.474 290.355 224.719 297.294 239.488C297.952 240.895 298.572 242.313 299.156 243.743L234.314 234.745L234.828 232.318C235.968 226.903 235.782 221.29 234.286 215.963C231.269 205.209 228.414 193.942 225.933 183.333C221.811 193 218.074 201.503 213.951 209.44L195.874 199.203C199.674 189.99 202.943 181.519 205.753 173.072C207.624 167.45 210.795 162.353 215.006 158.2C219.216 154.047 224.346 150.956 229.975 149.181C232.575 148.358 235.119 147.627 237.631 146.976C245.952 157.61 270.21 157.353 273.418 142.834C278.017 142.879 282.818 143.101 287.937 143.47C295.661 144.028 303.289 145.532 310.651 147.947C318.738 150.602 326.048 152.789 333.284 154.726L326.636 178.688C312.827 175.727 301.178 173.223 287.752 169.977Z" fill="#2FB574"/>
<path d="M307.963 503.55L260.723 513.312C257.45 513.997 254.072 513.997 250.799 513.312L246.026 512.257C246.579 504.687 247.618 497.161 249.137 489.726C249.256 489.153 249.368 488.58 249.487 488.007C257.574 485.057 264.226 481.325 269.947 476.16C269.947 477.083 269.953 478.013 269.965 478.948C269.981 481.146 270.623 483.293 271.817 485.135C273.01 486.977 274.704 488.436 276.697 489.34C283.38 492.251 290.668 493.481 297.931 492.923C299.841 492.771 301.746 493.274 303.335 494.35C304.924 495.426 306.103 497.012 306.679 498.848C307.134 500.325 307.575 501.883 307.963 503.55ZM264.992 496.246C264.992 495.327 264.721 494.428 264.212 493.663C263.704 492.899 262.982 492.303 262.136 491.951C261.291 491.599 260.361 491.507 259.464 491.687C258.566 491.866 257.742 492.309 257.095 492.959C256.448 493.609 256.007 494.437 255.829 495.339C255.65 496.241 255.742 497.176 256.092 498.025C256.442 498.875 257.035 499.601 257.796 500.111C258.557 500.622 259.451 500.895 260.366 500.895C261.592 500.893 262.767 500.402 263.633 499.531C264.499 498.659 264.985 497.478 264.985 496.246H264.992Z" fill="#333533"/>
<path d="M304.751 267.557C306.362 291.195 303.952 314.936 297.627 337.761C295.814 337.779 294.039 337.772 292.301 337.739C277.604 337.472 265.527 335.412 254.459 330.935C241.144 325.548 229.31 316.662 216.219 303.179C208.643 295.376 200.647 286.033 191.699 274.935C203.195 267.357 214.76 260.046 225.992 253.058C227.562 252.084 228.921 250.804 229.992 249.294C231.063 247.785 231.823 246.076 232.228 244.267C232.928 241.102 233.628 237.902 234.307 234.752L299.149 243.75C302.252 251.34 304.143 259.374 304.751 267.557Z" fill="#333533"/>
<path d="M292.301 337.74C290.344 354.886 287.619 373.256 282.566 383.806C279.615 389.976 277.591 396.552 276.557 403.319C272.932 426.957 271.067 443.161 270.328 458.176C263.704 459.189 255.708 460.339 248.682 461.148C244.633 432.981 246.208 410.408 254.466 377.103C255.453 373.118 255.876 369.012 255.722 364.908L254.463 330.903C265.527 335.412 277.618 337.486 292.301 337.74Z" fill="white"/>
<path d="M268.089 97.1717C274.237 102.601 277.023 114.663 275.018 124.133C273.705 130.315 270.346 135.386 264.537 136.792L265.017 142.95C267.757 142.837 270.549 142.798 273.415 142.83C270.206 157.35 245.949 157.599 237.628 146.972C240.728 146.174 243.776 145.499 246.813 144.943C247.023 141.74 247.139 138.705 247.163 135.748C247.184 131.996 246.974 127.333 246.656 123.655C239.741 121.826 240.546 114.188 245.512 114.35C252.514 114.156 265.93 109.406 268.089 97.1717Z" fill="white"/>
<path d="M257.71 119.642C258.698 119.642 259.498 118.498 259.498 117.086C259.498 115.674 258.698 114.529 257.71 114.529C256.723 114.529 255.922 115.674 255.922 117.086C255.922 118.498 256.723 119.642 257.71 119.642Z" fill="#333533"/>
<path d="M271.042 118.141C271.812 118.141 272.435 117.25 272.435 116.15C272.435 115.051 271.812 114.16 271.042 114.16C270.273 114.16 269.65 115.051 269.65 116.15C269.65 117.25 270.273 118.141 271.042 118.141Z" fill="#333533"/>
<path d="M270.325 458.194C270.024 464.246 269.909 470.104 269.94 476.177C264.219 481.357 257.567 485.074 249.48 488.024C250.711 481.08 250.747 473.974 249.588 467.017C249.259 465.038 248.957 463.088 248.682 461.165C255.705 460.356 263.701 459.207 270.325 458.194Z" fill="white"/>
<path d="M260.373 491.597C261.288 491.596 262.183 491.868 262.944 492.379C263.705 492.889 264.298 493.615 264.649 494.464C265 495.313 265.092 496.248 264.914 497.149C264.737 498.051 264.297 498.88 263.65 499.531C263.004 500.181 262.18 500.625 261.282 500.805C260.385 500.985 259.455 500.894 258.609 500.542C257.764 500.191 257.041 499.596 256.532 498.832C256.023 498.068 255.751 497.169 255.75 496.25C255.75 495.639 255.869 495.034 256.101 494.47C256.333 493.906 256.674 493.393 257.103 492.961C257.532 492.529 258.042 492.186 258.603 491.952C259.164 491.718 259.766 491.598 260.373 491.597Z" fill="white"/>
<path d="M230.801 383.767C232.118 384.292 233.224 385.243 233.944 386.47C234.664 387.697 234.956 389.13 234.776 390.543C233.337 401.409 228.347 400.794 227.123 405.713C225.573 411.945 229.446 416.615 227.896 424.558C226.846 429.9 223.501 435.242 217.748 435.811C217.163 435.864 216.573 435.789 216.02 435.59C215.467 435.392 214.963 435.075 214.544 434.662C214.124 434.248 213.799 433.749 213.59 433.197C213.382 432.645 213.295 432.054 213.336 431.465C214.466 415.141 205.903 408.769 209.059 394.482C217.059 398.248 221.954 388.152 220.282 381.879C223.876 381.818 227.449 382.46 230.801 383.767Z" fill="#333533"/>
<path d="M220.271 381.868C221.944 388.149 217.048 398.237 209.049 394.471C206.295 389.815 203.384 385.163 200.357 380.546C207.53 382.167 215.029 377.029 216.453 368.667C217.993 373.305 219.267 377.75 220.271 381.868Z" fill="white"/>
<path d="M144.991 205.382C139.941 207.105 134.993 210.037 129.713 214.433C127.946 215.903 123.981 216.121 121.448 215.087C120.865 214.866 120.334 214.528 119.887 214.092C119.254 213.434 118.641 212.777 118.043 212.119C117.122 211.104 116.612 209.779 116.612 208.406C116.612 207.032 117.122 205.708 118.043 204.692C123.916 198.177 131.134 193.028 139.193 189.607C134.293 185.763 129.52 182.517 132.628 178.783C132.874 178.492 133.215 178.297 133.59 178.232C133.964 178.168 134.35 178.239 134.678 178.431L187.703 209.025C188.083 209.244 188.501 209.386 188.936 209.443C189.37 209.5 189.811 209.469 190.233 209.354C190.656 209.239 191.052 209.042 191.398 208.773C191.745 208.504 192.035 208.169 192.252 207.787C192.318 207.673 192.376 207.556 192.427 207.435C193.624 204.622 194.774 201.876 195.878 199.196L213.955 209.433C211.361 214.464 208.504 219.354 205.396 224.082C203.776 226.557 201.415 228.45 198.654 229.487C195.893 230.524 192.875 230.651 190.037 229.849C173.342 225.053 160.22 216.656 144.991 205.382Z" fill="white"/>
<path d="M188.228 316.366C201.357 331.666 210.746 351.475 216.453 368.667C215.029 377.047 207.53 382.167 200.357 380.546C186.864 360.071 171.739 340.731 155.132 322.717C152.237 319.592 150.696 315.44 150.847 311.173C150.999 306.906 152.831 302.875 155.94 299.965C156.396 299.537 156.878 299.136 157.382 298.766C168.478 290.583 180.054 282.625 191.699 274.945C200.647 286.043 208.643 295.387 216.219 303.19C209.017 306.819 195.328 313.978 188.228 316.366Z" fill="white"/>
<path d="M163.31 114.054C163.691 114.227 164.065 114.406 164.433 114.607C164.062 114.431 163.688 114.244 163.31 114.054Z" fill="white"/>
<path d="M246.642 123.658C246.96 127.336 247.17 131.999 247.149 135.751C241.659 136.929 235.916 137.935 230.276 138.976C220.407 140.796 211.267 145.427 203.943 152.317C200.037 155.978 195.33 158.667 190.201 160.168C185.072 161.668 179.665 161.939 174.413 160.958C169.402 160.077 164.258 160.347 159.366 161.745C155.437 162.822 151.307 162.931 147.327 162.063C143.347 161.195 139.634 159.376 136.502 156.759C133.37 154.143 130.912 150.806 129.336 147.033C127.76 143.259 127.113 139.159 127.448 135.08C127.784 131.001 129.093 127.064 131.265 123.601C133.437 120.139 136.407 117.254 139.924 115.19C143.441 113.126 147.401 111.945 151.469 111.746C155.537 111.547 159.592 112.337 163.292 114.047C163.67 114.237 164.045 114.424 164.415 114.599C202.743 133.089 224.148 105.914 237.82 95.772C251.628 85.532 280.9 83.8792 280.242 111.948C280.221 114.225 279.746 116.475 278.844 118.564C277.943 120.654 276.633 122.54 274.993 124.112C276.998 114.642 274.213 102.58 268.064 97.1505C265.905 109.384 252.489 114.135 245.473 114.332C240.532 114.188 239.727 121.829 246.642 123.658Z" fill="#E2E2E2"/>
<path d="M191.699 274.935C200.647 286.033 208.643 295.376 216.219 303.179C229.31 316.661 241.144 325.548 254.459 330.935C265.527 335.412 277.618 337.472 292.301 337.739C294.036 337.77 295.812 337.777 297.627 337.761C303.952 314.936 306.362 291.195 304.751 267.557C304.142 259.373 302.253 251.336 299.152 243.743C298.569 242.308 297.948 240.89 297.291 239.488C290.355 224.719 290.397 210.474 293.791 194.829C295.293 187.934 294.06 180.723 290.355 174.728C289.403 173.192 288.533 171.606 287.748 169.977C286.442 167.268 285.388 164.443 284.599 161.538" stroke="#333533" stroke-width="6" stroke-linecap="round" stroke-linejoin="round"/>
<path d="M234.307 234.745H234.31L299.152 243.743" stroke="#333533" stroke-width="6" stroke-linecap="round" stroke-linejoin="round"/>
<path d="M254.459 330.935L255.719 364.94C255.873 369.044 255.45 373.149 254.463 377.135C246.204 410.426 244.63 432.998 248.678 461.179C248.954 463.102 249.256 465.052 249.585 467.031C250.744 473.988 250.707 481.094 249.476 488.038C249.375 488.612 249.263 489.185 249.126 489.758C247.607 497.193 246.568 504.719 246.015 512.288" stroke="#333533" stroke-width="6" stroke-linecap="round" stroke-linejoin="round"/>
<path d="M209.049 394.471C217.048 398.237 221.944 388.141 220.271 381.868" stroke="#333533" stroke-width="6" stroke-linecap="round" stroke-linejoin="round"/>
<path d="M200.357 380.546C207.53 382.167 215.029 377.029 216.453 368.667" stroke="#333533" stroke-width="6" stroke-linecap="round" stroke-linejoin="round"/>
<path d="M249.476 488.024C257.563 485.074 264.215 481.343 269.937 476.177" stroke="#333533" stroke-width="6" stroke-linecap="round" stroke-linejoin="round"/>
<path d="M43.6793 467.052C104.48 482.117 213.133 505.301 246.026 512.274L250.799 513.284C254.072 513.969 257.45 513.969 260.723 513.284L307.963 503.536L498.238 464.267" stroke="#333533" stroke-width="6" stroke-linecap="round" stroke-linejoin="round"/>
<path d="M292.301 337.739C290.345 354.886 287.619 373.256 282.566 383.806C279.615 389.976 277.591 396.552 276.557 403.319C272.932 426.957 271.067 443.161 270.329 458.176C270.028 464.228 269.912 470.087 269.944 476.16C269.944 477.086 269.949 478.015 269.961 478.948C269.977 481.146 270.62 483.293 271.813 485.135C273.006 486.977 274.7 488.436 276.694 489.34C283.376 492.251 290.665 493.481 297.927 492.923C299.838 492.771 301.743 493.274 303.331 494.35C304.92 495.426 306.099 497.012 306.676 498.848C307.141 500.308 307.582 501.865 307.963 503.532" stroke="#333533" stroke-width="6" stroke-linecap="round" stroke-linejoin="round"/>
<path d="M248.678 461.165C255.705 460.356 263.701 459.207 270.325 458.194" stroke="#333533" stroke-width="6" stroke-linecap="round" stroke-linejoin="round"/>
<path d="M264.985 496.246C264.985 495.327 264.714 494.428 264.205 493.663C263.697 492.899 262.975 492.303 262.129 491.951C261.284 491.599 260.354 491.507 259.457 491.686C258.559 491.866 257.735 492.309 257.088 492.959C256.441 493.609 256 494.437 255.822 495.339C255.643 496.241 255.735 497.176 256.085 498.025C256.435 498.874 257.028 499.601 257.789 500.111C258.55 500.622 259.444 500.895 260.359 500.895C260.967 500.895 261.568 500.775 262.129 500.541C262.691 500.307 263.201 499.965 263.63 499.533C264.06 499.102 264.4 498.589 264.633 498.025C264.865 497.461 264.985 496.856 264.985 496.246Z" stroke="#333533" stroke-width="6" stroke-linecap="round" stroke-linejoin="round"/>
<path d="M144.991 205.382C160.22 216.656 173.335 225.053 190.037 229.849C192.873 230.65 195.889 230.523 198.649 229.488C201.408 228.452 203.769 226.562 205.389 224.089C208.497 219.361 211.354 214.471 213.948 209.44C218.07 201.503 221.807 193 225.929 183.333C228.41 193.942 231.266 205.209 234.282 215.963C235.779 221.29 235.966 226.902 234.828 232.318L234.314 234.744C233.642 237.909 232.946 241.074 232.235 244.26C231.83 246.069 231.07 247.778 229.999 249.287C228.928 250.797 227.569 252.077 225.999 253.051C214.763 260.039 203.198 267.35 191.706 274.928C180.061 282.608 168.485 290.566 157.389 298.748C155.692 299.999 154.257 301.573 153.165 303.381C152.074 305.188 151.348 307.195 151.028 309.284C150.708 311.374 150.801 313.507 151.302 315.561C151.803 317.615 152.701 319.549 153.946 321.254C154.315 321.76 154.714 322.243 155.139 322.703C171.748 340.72 186.872 360.063 200.364 380.542C203.391 385.16 206.312 389.812 209.056 394.468C205.907 408.755 214.462 415.127 213.332 431.451C213.29 432.04 213.376 432.631 213.584 433.184C213.792 433.736 214.118 434.237 214.537 434.65C214.957 435.064 215.461 435.381 216.015 435.579C216.569 435.777 217.159 435.851 217.745 435.797C223.508 435.238 226.864 429.897 227.893 424.544C229.443 416.601 225.569 411.931 227.119 405.699C228.344 400.776 233.334 401.395 234.772 390.529C234.953 389.116 234.66 387.683 233.94 386.456C233.221 385.229 232.115 384.278 230.797 383.753C227.443 382.441 223.867 381.796 220.268 381.854C219.263 377.736 217.99 373.291 216.45 368.653C210.743 351.461 201.354 331.652 188.225 316.352C195.325 313.964 209.014 306.805 216.219 303.165" stroke="#333533" stroke-width="6" stroke-linecap="round" stroke-linejoin="round"/>
<path d="M195.871 199.203L213.948 209.44" stroke="#333533" stroke-width="6" stroke-linecap="round" stroke-linejoin="round"/>
<path d="M326.646 178.702L333.284 154.74" stroke="#333533" stroke-width="6" stroke-linecap="round" stroke-linejoin="round"/>
<path d="M275.018 124.133C277.023 114.663 274.237 102.601 268.089 97.1717C265.93 109.406 252.514 114.156 245.497 114.353C240.532 114.192 239.727 121.829 246.642 123.658C246.96 127.336 247.17 131.999 247.149 135.751C247.149 138.709 247.023 141.729 246.799 144.947C243.762 145.503 240.714 146.178 237.614 146.976C235.101 147.627 232.557 148.358 229.957 149.181C224.328 150.956 219.198 154.047 214.988 158.2C210.778 162.353 207.607 167.45 205.735 173.072C202.936 181.512 199.657 189.99 195.857 199.203C194.751 201.878 193.601 204.624 192.406 207.442C192.059 208.257 191.404 208.9 190.585 209.23C189.766 209.56 188.85 209.549 188.039 209.201C187.919 209.149 187.802 209.09 187.689 209.025L134.664 178.431C134.336 178.239 133.95 178.168 133.576 178.233C133.201 178.297 132.86 178.492 132.614 178.783C129.506 182.517 134.272 185.763 139.178 189.607C131.12 193.029 123.902 198.177 118.029 204.692C117.108 205.708 116.598 207.032 116.598 208.406C116.598 209.78 117.108 211.104 118.029 212.119C118.624 212.778 119.238 213.436 119.873 214.092C120.323 214.538 120.86 214.886 121.451 215.112C123.985 216.146 127.949 215.928 129.716 214.458C134.997 210.062 139.945 207.129 144.994 205.406C148.015 204.364 151.158 203.726 154.344 203.507" stroke="#333533" stroke-width="6" stroke-linecap="round" stroke-linejoin="round"/>
<path d="M287.751 169.977C301.178 173.223 312.827 175.738 326.646 178.702L335.499 180.604C342.867 182.188 350.503 182.01 357.79 180.084C374.849 175.576 387.772 171.957 404.253 165.293C408.04 163.754 412.087 162.965 416.172 162.969C422.863 162.997 429.515 163.303 435.989 163.943C437.91 164.131 439.846 163.782 441.583 162.936C443.32 162.09 444.792 160.779 445.836 159.147L445.86 159.108L446.36 158.32C447.099 157.134 447.338 155.702 447.025 154.339C446.713 152.976 445.875 151.794 444.695 151.052C444.399 150.864 444.085 150.707 443.757 150.584C437.864 148.383 431.408 146.206 424.808 144.384C422.221 143.669 419.53 143.408 416.854 143.611C418.153 139.103 418.681 135.052 416.641 133.328C416.317 133.062 415.9 132.935 415.483 132.976C415.066 133.017 414.682 133.222 414.415 133.546C414.327 133.654 414.251 133.772 414.191 133.898C412.673 137.326 410.693 140.529 408.309 143.417C407.021 144.993 405.257 146.104 403.284 146.582L359.543 157.223C354.114 158.542 348.451 158.542 343.023 157.223C339.761 156.435 336.539 155.616 333.295 154.762C326.072 152.824 318.748 150.637 310.661 147.982C303.299 145.563 295.67 144.056 287.944 143.495C282.825 143.143 278.023 142.904 273.425 142.858C270.556 142.827 267.764 142.858 265.027 142.978L264.548 136.82C270.357 135.414 273.716 130.343 275.046 124.161" stroke="#333533" stroke-width="6" stroke-linecap="round" stroke-linejoin="round"/>
<path d="M423.563 156.126C437.514 158.904 440.734 159.685 445.825 159.147" stroke="#333533" stroke-width="6" stroke-linecap="round" stroke-linejoin="round"/>
<path d="M425.13 150.517C432.598 152.718 441.392 154.916 447.099 154.737" stroke="#333533" stroke-width="6" stroke-linecap="round" stroke-linejoin="round"/>
<path d="M133.769 198.116C128.429 201.461 122.462 206.338 117.245 210.976" stroke="#333533" stroke-width="6" stroke-linecap="round" stroke-linejoin="round"/>
<path d="M138.647 201.925C133.167 204.928 126.98 210.013 121.448 215.087" stroke="#333533" stroke-width="6" stroke-linecap="round" stroke-linejoin="round"/>
<path d="M163.292 114.047C159.593 112.344 155.541 111.561 151.477 111.765C147.413 111.969 143.458 113.153 139.946 115.218C136.435 117.283 133.469 120.167 131.302 123.628C129.134 127.088 127.828 131.022 127.493 135.097C127.159 139.172 127.806 143.268 129.38 147.038C130.955 150.808 133.409 154.142 136.537 156.757C139.665 159.372 143.373 161.192 147.349 162.062C151.324 162.932 155.45 162.827 159.376 161.756C164.269 160.357 169.413 160.088 174.423 160.968C179.676 161.948 185.084 161.676 190.213 160.173C195.342 158.671 200.048 155.98 203.954 152.317C211.276 145.428 220.414 140.797 230.279 138.976C235.92 137.921 241.662 136.929 247.153 135.751" stroke="#333533" stroke-width="6" stroke-linecap="round" stroke-linejoin="round"/>
<path d="M164.433 114.607C164.065 114.413 163.691 114.227 163.31 114.054" stroke="#333533" stroke-width="6" stroke-linecap="round" stroke-linejoin="round"/>
<path d="M275.014 124.136C276.654 122.565 277.964 120.678 278.865 118.589C279.767 116.5 280.242 114.25 280.263 111.973C280.921 83.8898 251.649 85.5425 237.841 95.7967C224.169 105.938 202.764 133.114 164.436 114.624C164.066 114.448 163.691 114.272 163.313 114.072" stroke="#333533" stroke-width="6" stroke-linecap="round" stroke-linejoin="round"/>
<path d="M261.094 127.421C263.253 128.936 266.367 129.439 267.875 127.976" stroke="#333533" stroke-width="4" stroke-linecap="round" stroke-linejoin="round"/>
<path d="M237.628 146.976C245.949 157.61 270.206 157.353 273.415 142.834" stroke="#333533" stroke-width="6" stroke-linecap="round" stroke-linejoin="round"/>
<path d="M265.996 114.459C265.996 116.713 266.616 119.449 267.848 120.377C268.082 120.554 268.243 120.812 268.299 121.101C268.295 121.112 268.295 121.123 268.299 121.133C268.347 121.433 268.276 121.741 268.099 121.988C267.923 122.235 267.656 122.402 267.358 122.452C267.296 122.457 267.234 122.457 267.172 122.452H265.213" stroke="#333533" stroke-width="4" stroke-linecap="round" stroke-linejoin="round"/>
</svg>
